Cosmetique-BoldOblique.sfdir
StartChar: exclam
Encoding: 33 33 142
Width: 330
Flags: HW
LayerCount: 2
Fore
SplineSet
114 -12 m 0
 90.6666666667 -12 70.6666666667 -4 54 12 c 128
 37.3333333333 28 29 47.6666666667 29 71 c 256
 29 94.3333333333 37.3333333333 114.333333333 54 131 c 128
 70.6666666667 147.666666667 91 156 115 156 c 0
 138.333333333 156 158 147.333333333 174 130 c 128
 190 112.666666667 198 92 198 68 c 0
 198 45.3333333333 190 26.3333333333 174 11 c 128
 158 -4.33333333333 138 -12 114 -12 c 0
128 224 m 1
 144 571 l 1
 144 607.666666667 150.333333333 635.833333333 163 655.5 c 128
 175.666666667 675.166666667 199 685 233 685 c 0
 255.666666667 685 275.333333333 679.5 292 668.5 c 128
 308.666666667 657.5 317 641.333333333 317 620 c 0
 317 608 315.333333333 596 312 584 c 128
 308.666666667 572 303.333333333 556.333333333 296 537 c 1
 160 224 l 1
 128 224 l 1
EndSplineSet
EndChar
StartChar: quotedbl
Encoding: 34 34 143
Width: 326
Flags: W
LayerCount: 2
Fore
SplineSet
130 690 m 1,0,-1
 130 422 l 1,1,-1
 38 422 l 1,2,-1
 38 690 l 1,3,-1
 130 690 l 1,0,-1
287 690 m 1,4,-1
 287 422 l 1,5,-1
 195 422 l 1,6,-1
 195 690 l 1,7,-1
 287 690 l 1,4,-1
EndSplineSet
EndChar
StartChar: numbersign
Encoding: 35 35 2
Width: 756
Flags: HW
LayerCount: 2
Fore
SplineSet
447 702 m 1
 375 504 l 1
 493 504 l 1
 564 702 l 1
 670 702 l 1
 599 504 l 1
 734 504 l 1
 700 406 l 1
 565 406 l 1
 524 291 l 1
 664 291 l 1
 628 195 l 1
 489 195 l 1
 418 -4 l 1
 312 -4 l 1
 383 195 l 1
 265 195 l 1
 195 -4 l 1
 88 -4 l 1
 160 195 l 1
 22 195 l 1
 57 291 l 1
 194 291 l 1
 235 406 l 1
 91 406 l 1
 127 504 l 1
 270 504 l 1
 340 702 l 1
 447 702 l 1
298 290 m 1
 419 290 l 1
 460 406 l 1
 339 406 l 1
 298 290 l 1
EndSplineSet
EndChar
StartChar: dollar
Encoding: 36 36 3
Width: 539
Flags: HW
LayerCount: 2
Fore
SplineSet
-1 62 m 1
 8.33333333333 84 17.1666666667 105.833333333 25.5 127.5 c 128
 33.8333333333 149.166666667 41.6666666667 171.666666667 49 195 c 1
 67 191 l 1
 67 153.666666667 77.6666666667 122.333333333 99 97 c 128
 120.333333333 71.6666666667 149.666666667 54.6666666667 187 46 c 1
 233 265 l 1
 171.666666667 296.333333333 130 326.833333333 108 356.5 c 128
 86 386.166666667 75 417.666666667 75 451 c 0
 75 517.666666667 98 568 144 602 c 128
 190 636 247.666666667 653 317 653 c 1
 320.333333333 679 323.666666667 705.333333333 327 732 c 1
 360 731 l 1
 396 732 l 1
 375 649 l 1
 431 640.333333333 482.333333333 621 529 591 c 1
 519.666666667 573 512.5 558 507.5 546 c 128
 502.5 534 494.666666667 512 484 480 c 1
 462 480 l 1
 456 509.333333333 444.833333333 534.833333333 428.5 556.5 c 128
 412.166666667 578.166666667 390.333333333 592 363 598 c 1
 318 389 l 1
 367.333333333 365 407 337.333333333 437 306 c 128
 467 274.666666667 482 236 482 190 c 0
 482 122 457.833333333 70.8333333333 409.5 36.5 c 128
 361.166666667 2.16666666667 302.333333333 -15 233 -15 c 1
 225 -47.6666666667 219 -82.3333333333 215 -119 c 1
 180 -117 l 1
 147 -119 l 1
 151.666666667 -105 155.166666667 -93.6666666667 157.5 -85 c 128
 159.833333333 -76.3333333333 166 -50.6666666667 176 -8 c 1
 145.333333333 -8 115.166666667 -1.83333333333 85.5 10.5 c 128
 55.8333333333 22.8333333333 27 40 -1 62 c 1
346 146 m 0
 346 166 340.333333333 183.666666667 329 199 c 128
 317.666666667 214.333333333 302.333333333 226.666666667 283 236 c 1
 241 44 l 1
 269.666666667 44 294.333333333 54 315 74 c 128
 335.666666667 94 346 118 346 146 c 0
310 601 m 1
 280 601 254 592.5 232 575.5 c 128
 210 558.5 199 535 199 505 c 0
 199 486.333333333 206 469 220 453 c 128
 234 437 251 424.333333333 271 415 c 1
 310 601 l 1
EndSplineSet
EndChar
StartChar: percent
Encoding: 37 37 6
Width: 775
Flags: W
LayerCount: 2
Fore
SplineSet
214 655 m 0,0,1
 276 655 276 655 321 619.5 c 128,-1,2
 366 584 366 584 366 523 c 0,3,4
 366 447 366 447 307.5 394.5 c 128,-1,5
 249 342 249 342 172 342 c 0,6,7
 111 342 111 342 66.5 377.5 c 128,-1,8
 22 413 22 413 22 473 c 0,9,10
 22 506 22 506 39.5 549 c 128,-1,11
 57 592 57 592 105.5 623.5 c 128,-1,12
 154 655 154 655 214 655 c 0,0,1
92 -90 m 1,13,-1
 608 731 l 1,14,-1
 668 731 l 1,15,-1
 153 -90 l 1,16,-1
 92 -90 l 1,13,-1
593 297 m 0,17,18
 656 297 656 297 701 260.5 c 128,-1,19
 746 224 746 224 746 163 c 0,20,21
 746 88 746 88 687 36 c 128,-1,22
 628 -16 628 -16 551 -16 c 0,23,24
 487 -16 487 -16 444 18.5 c 128,-1,25
 401 53 401 53 401 115 c 0,26,27
 401 147 401 147 419.5 190 c 128,-1,28
 438 233 438 233 484.5 265 c 128,-1,29
 531 297 531 297 593 297 c 0,17,18
499 80 m 0,30,31
 499 54 499 54 511.5 37 c 128,-1,32
 524 20 524 20 548 20 c 0,33,34
 601 20 601 20 625.5 80.5 c 128,-1,35
 650 141 650 141 650 202 c 0,36,37
 650 210 650 210 648 218.5 c 128,-1,38
 646 227 646 227 642 237 c 128,-1,39
 638 247 638 247 625 253 c 128,-1,40
 612 259 612 259 599 259 c 0,41,42
 565 259 565 259 545 229 c 128,-1,43
 525 199 525 199 511 155 c 1,44,45
 505 129 505 129 502 114 c 128,-1,46
 499 99 499 99 499 80 c 0,30,31
118 439 m 0,47,48
 118 416 118 416 131.5 398 c 128,-1,49
 145 380 145 380 167 380 c 0,50,51
 221 380 221 380 245.5 440 c 128,-1,52
 270 500 270 500 270 563 c 0,53,54
 270 586 270 586 256 603 c 128,-1,55
 242 620 242 620 220 620 c 0,56,57
 184 620 184 620 164.5 590 c 128,-1,58
 145 560 145 560 134.5 525 c 128,-1,59
 124 490 124 490 121 476.5 c 128,-1,60
 118 463 118 463 118 439 c 0,47,48
EndSplineSet
EndChar
StartChar: ampersand
Encoding: 38 38 7
Width: 703
Flags: W
LayerCount: 2
Fore
SplineSet
413 60 m 1,0,1
 334 -13 334 -13 229 -13 c 0,2,3
 151 -13 151 -13 93.5 33 c 128,-1,4
 36 79 36 79 36 155 c 0,5,6
 36 233 36 233 88 289.5 c 128,-1,7
 140 346 140 346 224 391 c 1,8,9
 196 439 196 439 187 467 c 128,-1,10
 178 495 178 495 178 523 c 0,11,12
 178 594 178 594 233.5 639.5 c 128,-1,13
 289 685 289 685 362 685 c 0,14,15
 428 685 428 685 477 652.5 c 128,-1,16
 526 620 526 620 526 558 c 0,17,18
 526 497 526 497 487.5 461.5 c 128,-1,19
 449 426 449 426 380 397 c 1,20,21
 436 290 436 290 496 197 c 1,22,23
 533 236 533 236 554.5 280.5 c 128,-1,24
 576 325 576 325 587 383 c 1,25,-1
 602 385 l 1,26,27
 623 349 623 349 632 335.5 c 128,-1,28
 641 322 641 322 658 304 c 1,29,30
 602 220 602 220 523 153 c 1,31,-1
 622 0 l 1,32,-1
 559 6 l 1,33,34
 523 6 523 6 498.5 5 c 128,-1,35
 474 4 474 4 445 0 c 1,36,-1
 413 60 l 1,0,1
448 563 m 0,37,38
 448 593 448 593 430 611 c 128,-1,39
 412 629 412 629 381 629 c 0,40,41
 349 629 349 629 331.5 607 c 128,-1,42
 314 585 314 585 314 552 c 0,43,44
 314 526 314 526 325.5 497 c 128,-1,45
 337 468 337 468 355 441 c 1,46,47
 393 460 393 460 420.5 493 c 128,-1,48
 448 526 448 526 448 563 c 0,37,38
247 342 m 1,49,50
 211 321 211 321 190 291.5 c 128,-1,51
 169 262 169 262 169 222 c 0,52,53
 169 171 169 171 209 125 c 128,-1,54
 249 79 249 79 300 79 c 0,55,56
 347 79 347 79 388 110 c 1,57,58
 312 228 312 228 247 342 c 1,49,50
EndSplineSet
EndChar
StartChar: quotesingle
Encoding: 39 39 8
Width: 270
Flags: W
LayerCount: 2
Fore
SplineSet
51 373 m 1,0,-1
 163 612 l 1,1,2
 180 653 180 653 197 669 c 128,-1,3
 214 685 214 685 235 685 c 0,4,5
 262 685 262 685 283.5 671 c 128,-1,6
 305 657 305 657 305 633 c 0,7,8
 305 613 305 613 292.5 591.5 c 128,-1,9
 280 570 280 570 262 551 c 2,10,-1
 72 356 l 1,11,-1
 51 373 l 1,0,-1
EndSplineSet
EndChar
StartChar: parenleft
Encoding: 40 40 9
Width: 321
Flags: W
LayerCount: 2
Fore
SplineSet
41 212 m 0,0,1
 41 364 41 364 122 491.5 c 128,-1,2
 203 619 203 619 340 689 c 1,3,-1
 364 649 l 1,4,5
 249 568 249 568 199 440 c 128,-1,6
 149 312 149 312 149 155 c 0,7,8
 149 80 149 80 163 14 c 128,-1,9
 177 -52 177 -52 209 -110 c 1,10,-1
 176 -135 l 1,11,12
 107 -54 107 -54 74 28 c 128,-1,13
 41 110 41 110 41 212 c 0,0,1
EndSplineSet
EndChar
StartChar: parenright
Encoding: 41 41 10
Width: 321
Flags: W
LayerCount: 2
Fore
SplineSet
259 341 m 0,0,1
 259 189 259 189 179.5 63 c 128,-1,2
 100 -63 100 -63 -38 -135 c 1,3,-1
 -62 -95 l 1,4,-1
 -13 -59 l 1,5,6
 72 19 72 19 111 141.5 c 128,-1,7
 150 264 150 264 150 397 c 0,8,9
 150 475 150 475 137 540.5 c 128,-1,10
 124 606 124 606 90 664 c 1,11,-1
 124 689 l 1,12,13
 193 608 193 608 226 526 c 128,-1,14
 259 444 259 444 259 341 c 0,0,1
EndSplineSet
EndChar
StartChar: asterisk
Encoding: 42 42 11
Width: 492
Flags: W
LayerCount: 2
Fore
SplineSet
256 472 m 1,0,1
 203 446 203 446 178.5 434 c 128,-1,2
 154 422 154 422 125 405 c 1,3,4
 125 429 125 429 118.5 450 c 128,-1,5
 112 471 112 471 99 495 c 1,6,7
 165 495 165 495 245 512 c 1,8,9
 217 533 217 533 185 551.5 c 128,-1,10
 153 570 153 570 118 586 c 1,11,12
 156 621 156 621 180 658 c 1,13,14
 201 626 201 626 222 599 c 128,-1,15
 243 572 243 572 271 543 c 1,16,17
 271 574 271 574 273.5 627 c 128,-1,18
 276 680 276 680 276 690 c 1,19,20
 299 680 299 680 320.5 675 c 128,-1,21
 342 670 342 670 368 670 c 1,22,23
 351 638 351 638 336.5 603.5 c 128,-1,24
 322 569 322 569 312 532 c 1,25,26
 372 559 372 559 442 602 c 1,27,28
 446 554 446 554 470 511 c 1,29,30
 435 511 435 511 402.5 507 c 128,-1,31
 370 503 370 503 325 494 c 1,32,33
 360 469 360 469 388 452.5 c 128,-1,34
 416 436 416 436 451 420 c 1,35,36
 430 402 430 402 416.5 386.5 c 128,-1,37
 403 371 403 371 388 349 c 1,38,39
 369 378 369 378 353.5 397.5 c 128,-1,40
 338 417 338 417 298 464 c 1,41,42
 293 425 293 425 292 394.5 c 128,-1,43
 291 364 291 364 291 314 c 1,44,45
 268 323 268 323 244 328.5 c 128,-1,46
 220 334 220 334 199 334 c 1,47,48
 233 401 233 401 256 472 c 1,0,1
EndSplineSet
EndChar
StartChar: plus
Encoding: 43 43 10
Width: 819
Flags: HW
LayerCount: 2
Fore
SplineSet
458 586 m 1
 458 341 l 1
 698 341 l 1
 698 246 l 1
 458 246 l 1
 458 0 l 1
 361 0 l 1
 361 246 l 1
 122 246 l 1
 122 341 l 1
 361 341 l 1
 361 586 l 1
 458 586 l 1
EndSplineSet
EndChar
StartChar: comma
Encoding: 44 44 11
Width: 270
Flags: HW
LayerCount: 2
Fore
SplineSet
48 89 m 1
 60 119 72.3333333333 139.666666667 85 151 c 128
 97.6666666667 162.333333333 112 168 128 168 c 0
 143.333333333 168 158.5 163 173.5 153 c 128
 188.5 143 196 131 196 117 c 0
 196 102.333333333 191.833333333 86.8333333333 183.5 70.5 c 128
 175.166666667 54.1666666667 164.666666667 39 152 25 c 2
 -39 -183 l 1
 -61 -164 l 1
 48 89 l 1
EndSplineSet
EndChar
StartChar: hyphen
Encoding: 45 45 14
Width: 320
Flags: W
LayerCount: 2
Fore
SplineSet
27 306 m 1,0,-1
 143 301 l 1,1,2
 177 301 177 301 230 303.5 c 128,-1,3
 283 306 283 306 292 306 c 1,4,5
 282 270 282 270 276 239.5 c 128,-1,6
 270 209 270 209 267 177 c 1,7,8
 255 177 255 177 204.5 180.5 c 128,-1,9
 154 184 154 184 130 184 c 0,10,11
 110 184 110 184 66 180.5 c 128,-1,12
 22 177 22 177 3 177 c 1,13,14
 12 208 12 208 17.5 239.5 c 128,-1,15
 23 271 23 271 27 306 c 1,0,-1
EndSplineSet
EndChar
StartChar: period
Encoding: 46 46 13
Width: 270
Flags: HW
LayerCount: 2
Fore
SplineSet
85 156 m 0
 111 156 131.5 148.166666667 146.5 132.5 c 128
 161.5 116.833333333 169 96.3333333333 169 71 c 0
 169 46.3333333333 161.333333333 26.3333333333 146 11 c 128
 130.666666667 -4.33333333333 110.333333333 -12 85 -12 c 0
 59 -12 38.3333333333 -4.66666666667 23 10 c 128
 7.66666666667 24.6666666667 0 45 0 71 c 0
 0 96.3333333333 7.83333333333 116.833333333 23.5 132.5 c 128
 39.1666666667 148.166666667 59.6666666667 156 85 156 c 0
EndSplineSet
EndChar
StartChar: slash
Encoding: 47 47 16
Width: 277
Flags: W
LayerCount: 2
Fore
SplineSet
-32 -89 m 1,0,-1
 259 739 l 1,1,-1
 316 739 l 1,2,-1
 25 -89 l 1,3,-1
 -32 -89 l 1,0,-1
EndSplineSet
EndChar
StartChar: zero
Encoding: 48 48 15
Width: 539
Flags: HW
LayerCount: 2
Fore
SplineSet
326 654 m 0
 388.666666667 654 437.333333333 634.666666667 472 596 c 128
 506.666666667 557.333333333 524 506.333333333 524 443 c 0
 524 332.333333333 497.833333333 228.666666667 445.5 132 c 128
 393.166666667 35.3333333333 316 -13 214 -13 c 0
 146 -13 96.1666666667 8.5 64.5 51.5 c 128
 32.8333333333 94.5 17 151 17 221 c 0
 17 237 18.1666666667 255.666666667 20.5 277 c 128
 22.8333333333 298.333333333 30.3333333333 338 43 396 c 128
 55.6666666667 454 86.8333333333 511.5 136.5 568.5 c 128
 186.166666667 625.5 249.333333333 654 326 654 c 0
153 131 m 0
 153 105 157.666666667 82.6666666667 167 64 c 128
 176.333333333 45.3333333333 192.666666667 36 216 36 c 0
 250.666666667 36 280.5 67 305.5 129 c 128
 330.5 191 350 263.166666667 364 345.5 c 128
 378 427.833333333 385 487 385 523 c 0
 385 545 379.833333333 563.666666667 369.5 579 c 128
 359.166666667 594.333333333 343.666666667 602 323 602 c 0
 283.666666667 602 256.5 581 241.5 539 c 128
 226.5 497 211.166666667 442.666666667 195.5 376 c 128
 179.833333333 309.333333333 168.833333333 260 162.5 228 c 128
 156.166666667 196 153 163.666666667 153 131 c 0
EndSplineSet
EndChar
StartChar: one
Encoding: 49 49 16
Width: 539
Flags: HW
LayerCount: 2
Fore
SplineSet
257 530 m 1
 229 519.333333333 203.5 509.166666667 180.5 499.5 c 128
 157.5 489.833333333 135.333333333 479.333333333 114 468 c 1
 114 478 113 487.166666667 111 495.5 c 128
 109 503.833333333 105 518 99 538 c 1
 207.666666667 571.333333333 316 611.333333333 424 658 c 1
 451 644 l 1
 419.666666667 531.333333333 392.833333333 423.833333333 370.5 321.5 c 128
 348.166666667 219.166666667 328.666666667 112 312 0 c 1
 303.333333333 0 288.666666667 1 268 3 c 128
 247.333333333 5 232.333333333 6 223 6 c 0
 209.666666667 6 196.666666667 5.33333333333 184 4 c 128
 171.333333333 2.66666666667 156.333333333 1.33333333333 139 0 c 1
 158.333333333 63.3333333333 175.666666667 123.5 191 180.5 c 128
 206.333333333 237.5 220 296.166666667 232 356.5 c 128
 244 416.833333333 252.333333333 474.666666667 257 530 c 1
EndSplineSet
EndChar
StartChar: two
Encoding: 50 50 19
Width: 539
Flags: W
LayerCount: 2
Fore
SplineSet
-30 55 m 1,0,1
 64 122 64 122 141 187 c 128,-1,2
 218 252 218 252 280 335.5 c 128,-1,3
 342 419 342 419 342 497 c 0,4,5
 342 538 342 538 321.5 569 c 128,-1,6
 301 600 301 600 262 600 c 0,7,8
 212 600 212 600 190 556.5 c 128,-1,9
 168 513 168 513 168 458 c 1,10,-1
 161 449 l 1,11,12
 122 485 122 485 100.5 508 c 128,-1,13
 79 531 79 531 68 543 c 1,14,15
 148 655 148 655 292 655 c 0,16,17
 378 655 378 655 442 615 c 128,-1,18
 506 575 506 575 506 494 c 0,19,20
 506 422 506 422 459.5 367.5 c 128,-1,21
 413 313 413 313 333 253 c 2,22,-1
 245 186 l 1,23,-1
 165 124 l 1,24,-1
 357 130 l 1,25,-1
 461 135 l 1,26,27
 452 107 452 107 443 68 c 128,-1,28
 434 29 434 29 430 0 c 1,29,30
 392 0 392 0 312 3 c 128,-1,31
 232 6 232 6 193 6 c 256,32,33
 154 6 154 6 76 3 c 128,-1,34
 -2 0 -2 0 -41 0 c 1,35,36
 -30 26 -30 26 -30 55 c 1,0,1
EndSplineSet
EndChar
StartChar: three
Encoding: 51 51 20
Width: 539
Flags: W
LayerCount: 2
Fore
SplineSet
90 179 m 1,0,1
 90 121 90 121 109 80.5 c 128,-1,2
 128 40 128 40 180 40 c 0,3,4
 235 40 235 40 260 93.5 c 128,-1,5
 285 147 285 147 285 208 c 0,6,7
 285 250 285 250 263 281.5 c 128,-1,8
 241 313 241 313 201 313 c 2,9,-1
 189 313 l 1,10,-1
 159 312 l 1,11,12
 166 340 166 340 166 372 c 1,13,14
 173 371 173 371 187.5 370 c 128,-1,15
 202 369 202 369 214 369 c 0,16,17
 269 369 269 369 300.5 410 c 128,-1,18
 332 451 332 451 332 509 c 0,19,20
 332 550 332 550 313.5 579.5 c 128,-1,21
 295 609 295 609 256 609 c 0,22,23
 211 609 211 609 191.5 576 c 128,-1,24
 172 543 172 543 163 490 c 1,25,-1
 146 476 l 1,26,27
 124 529 124 529 83 580 c 1,28,29
 121 618 121 618 169.5 636.5 c 128,-1,30
 218 655 218 655 276 655 c 0,31,32
 358 655 358 655 421 623 c 128,-1,33
 484 591 484 591 484 517 c 256,34,35
 484 443 484 443 434.5 402.5 c 128,-1,36
 385 362 385 362 305 347 c 1,37,-1
 304 338 l 1,38,39
 369 324 369 324 407.5 288 c 128,-1,40
 446 252 446 252 446 190 c 0,41,42
 446 88 446 88 376.5 36 c 128,-1,43
 307 -16 307 -16 201 -16 c 0,44,45
 132 -16 132 -16 76.5 2.5 c 128,-1,46
 21 21 21 21 -12 68 c 1,47,48
 17 106 17 106 35 130.5 c 128,-1,49
 53 155 53 155 73 183 c 1,50,-1
 90 179 l 1,0,1
EndSplineSet
EndChar
StartChar: four
Encoding: 52 52 19
Width: 539
Flags: HW
LayerCount: 2
Fore
SplineSet
256 162 m 1
 228 162 186 161 130 159 c 128
 74 157 32 156 4 156 c 1
 10 178.666666667 15 198.833333333 19 216.5 c 128
 23 234.166666667 26.3333333333 254.333333333 29 277 c 1
 67.6666666667 317 105.5 357.166666667 142.5 397.5 c 128
 179.5 437.833333333 214.333333333 476 247 512 c 128
 279.666666667 548 321.666666667 595.333333333 373 654 c 1
 441 650 l 1
 465 650 465 650 489 650 c 1
 502.333333333 652 512 653.333333333 518 654 c 1
 482 525.333333333 451.333333333 399.666666667 426 277 c 1
 449 276 l 1
 465.666666667 276 478.666666667 276.666666667 488 278 c 128
 497.333333333 279.333333333 504.333333333 280 509 280 c 1
 492.333333333 240.666666667 484 199 484 155 c 1
 456.666666667 157.666666667 437.5 159.166666667 426.5 159.5 c 128
 415.5 159.833333333 406.666666667 160 400 160 c 1
 373 0 l 1
 364.333333333 0 351.666666667 1 335 3 c 128
 318.333333333 5 305.666666667 6 297 6 c 0
 287.666666667 6 274.333333333 5 257 3 c 128
 239.666666667 1 226.666666667 0 218 0 c 1
 223.333333333 21.3333333333 229.5 46.5 236.5 75.5 c 128
 243.5 104.5 250 133.333333333 256 162 c 1
283 277 m 1
 292.333333333 319 302.166666667 362.333333333 312.5 407 c 128
 322.833333333 451.666666667 332.333333333 496 341 540 c 1
 249.666666667 432 193.166666667 366 171.5 342 c 128
 149.833333333 318 129.333333333 295.333333333 110 274 c 1
 138.666666667 274 167.333333333 274.333333333 196 275 c 128
 224.666666667 275.666666667 253.666666667 276.333333333 283 277 c 1
EndSplineSet
EndChar
StartChar: five
Encoding: 53 53 22
Width: 539
Flags: W
LayerCount: 2
Fore
SplineSet
69 181 m 1,0,-1
 88 177 l 1,1,2
 88 121 88 121 114.5 79 c 128,-1,3
 141 37 141 37 195 37 c 0,4,5
 257 37 257 37 283.5 94 c 128,-1,6
 310 151 310 151 310 221 c 0,7,8
 310 274 310 274 286 309 c 128,-1,9
 262 344 262 344 211 344 c 0,10,11
 186 344 186 344 163.5 332.5 c 128,-1,12
 141 321 141 321 116 301 c 1,13,14
 109 308 109 308 96.5 315.5 c 128,-1,15
 84 323 84 323 77 327 c 1,16,17
 100 405 100 405 118 482 c 128,-1,18
 136 559 136 559 150 640 c 1,19,-1
 401 638 l 1,20,-1
 528 640 l 1,21,22
 512 600 512 600 504.5 570.5 c 128,-1,23
 497 541 497 541 497 508 c 1,24,-1
 346 510 l 1,25,-1
 195 507 l 1,26,-1
 160 377 l 1,27,28
 177 389 177 389 210 395.5 c 128,-1,29
 243 402 243 402 270 402 c 0,30,31
 353 402 353 402 412.5 359.5 c 128,-1,32
 472 317 472 317 472 239 c 0,33,34
 472 123 472 123 396.5 55 c 128,-1,35
 321 -13 321 -13 202 -13 c 0,36,37
 145 -13 145 -13 90.5 1.5 c 128,-1,38
 36 16 36 16 3 49 c 1,39,40
 21 83 21 83 35 110.5 c 128,-1,41
 49 138 49 138 69 181 c 1,0,-1
EndSplineSet
EndChar
StartChar: six
Encoding: 54 54 21
Width: 539
Flags: HW
LayerCount: 2
Fore
SplineSet
321 386 m 0
 367 386 406.333333333 369.666666667 439 337 c 128
 471.666666667 304.333333333 488 265 488 219 c 0
 488 151 464.833333333 94.8333333333 418.5 50.5 c 128
 372.166666667 6.16666666667 315 -16 247 -16 c 256
 179 -16 126 4.33333333333 88 45 c 128
 50 85.6666666667 31 140.333333333 31 209 c 0
 31 321.666666667 62.5 423.833333333 125.5 515.5 c 128
 188.5 607.166666667 273.666666667 653 381 653 c 0
 398.333333333 653 413.5 652.166666667 426.5 650.5 c 128
 439.5 648.833333333 456 645.333333333 476 640 c 1
 488 552 l 1
 474 549 l 1
 462 565.666666667 448.333333333 578.5 433 587.5 c 128
 417.666666667 596.5 400 601 380 601 c 0
 328.666666667 601 290.666666667 576.333333333 266 527 c 128
 241.333333333 477.666666667 226.333333333 422 221 360 c 1
 254.333333333 377.333333333 287.666666667 386 321 386 c 0
177 124 m 0
 177 100 181.666666667 79 191 61 c 128
 200.333333333 43 216.333333333 34 239 34 c 0
 271.666666667 34 295.333333333 56.5 310 101.5 c 128
 324.666666667 146.5 332 190.333333333 332 233 c 0
 332 257.666666667 327.333333333 279.166666667 318 297.5 c 128
 308.666666667 315.833333333 293 325 271 325 c 0
 243.666666667 325 223.5 311.833333333 210.5 285.5 c 128
 197.5 259.166666667 188.333333333 228.666666667 183 194 c 1
 180.333333333 182.666666667 178.666666667 171.666666667 178 161 c 128
 177.333333333 150.333333333 177 138 177 124 c 0
EndSplineSet
EndChar
StartChar: seven
Encoding: 55 55 22
Width: 539
Flags: HW
LayerCount: 2
Fore
SplineSet
25 6 m 1
 71.6666666667 62 118.833333333 119.5 166.5 178.5 c 128
 214.166666667 237.5 263 298.666666667 313 362 c 1
 433 517 l 1
 94 509 l 1
 100 529.666666667 105 551.333333333 109 574 c 128
 113 596.666666667 115 618.666666667 115 640 c 1
 349 639 l 1
 583 640 l 1
 582 607 l 1
 505.333333333 520.333333333 433.5 427.166666667 366.5 327.5 c 128
 299.5 227.833333333 233 118.666666667 167 0 c 1
 159 0 147 1 131 3 c 128
 115 5 103 6 95 6 c 0
 85.6666666667 6 75 5.33333333333 63 4 c 128
 51 2.66666666667 39.3333333333 1.33333333333 28 0 c 1
 25 6 l 1
EndSplineSet
EndChar
StartChar: eight
Encoding: 56 56 25
Width: 539
Flags: W
LayerCount: 2
Fore
SplineSet
197 365 m 1,0,1
 157 379 157 379 133.5 411 c 128,-1,2
 110 443 110 443 110 485 c 0,3,4
 110 562 110 562 167.5 608 c 128,-1,5
 225 654 225 654 304 654 c 0,6,7
 394 654 394 654 461.5 618.5 c 128,-1,8
 529 583 529 583 529 501 c 0,9,10
 529 441 529 441 487.5 400 c 128,-1,11
 446 359 446 359 385 348 c 1,12,-1
 384 338 l 1,13,14
 431 324 431 324 458 287 c 128,-1,15
 485 250 485 250 485 201 c 0,16,17
 485 101 485 101 413.5 44 c 128,-1,18
 342 -13 342 -13 239 -13 c 0,19,20
 150 -13 150 -13 85 33.5 c 128,-1,21
 20 80 20 80 20 165 c 0,22,23
 20 241 20 241 69.5 290.5 c 128,-1,24
 119 340 119 340 197 356 c 1,25,-1
 197 365 l 1,0,1
172 132 m 0,26,27
 172 95 172 95 184.5 68.5 c 128,-1,28
 197 42 197 42 230 38 c 1,29,30
 292 38 292 38 314 98 c 128,-1,31
 336 158 336 158 336 234 c 0,32,33
 336 271 336 271 321.5 297 c 128,-1,34
 307 323 307 323 273 323 c 0,35,36
 231 323 231 323 212 289 c 128,-1,37
 193 255 193 255 183 202 c 1,38,39
 172 167 172 167 172 132 c 0,26,27
249 443 m 1,40,41
 252 415 252 415 264.5 397 c 128,-1,42
 277 379 277 379 304 379 c 0,43,44
 350 379 350 379 370 431 c 128,-1,45
 390 483 390 483 390 538 c 0,46,47
 390 566 390 566 376 585.5 c 128,-1,48
 362 605 362 605 335 605 c 0,49,50
 310 605 310 605 289 575.5 c 128,-1,51
 268 546 268 546 258.5 513 c 128,-1,52
 249 480 249 480 249 443 c 1,40,41
EndSplineSet
EndChar
StartChar: nine
Encoding: 57 57 26
Width: 539
Flags: W
LayerCount: 2
Fore
SplineSet
29 114 m 1,0,-1
 47 116 l 1,1,2
 61 77 61 77 87.5 54.5 c 128,-1,3
 114 32 114 32 155 32 c 0,4,5
 235 32 235 32 268.5 99 c 128,-1,6
 302 166 302 166 326 279 c 1,7,8
 312 269 312 269 283.5 262.5 c 128,-1,9
 255 256 255 256 234 256 c 0,10,11
 154 256 154 256 107.5 300.5 c 128,-1,12
 61 345 61 345 61 426 c 0,13,14
 61 527 61 527 133 591 c 128,-1,15
 205 655 205 655 307 655 c 256,16,17
 409 655 409 655 461.5 594.5 c 128,-1,18
 514 534 514 534 514 429 c 0,19,20
 514 257 514 257 415 121 c 128,-1,21
 316 -15 316 -15 150 -15 c 0,22,23
 126 -15 126 -15 100 -11.5 c 128,-1,24
 74 -8 74 -8 47 -1 c 1,25,26
 35 55 35 55 29 114 c 1,0,-1
369 511 m 0,27,28
 369 550 369 550 356 577.5 c 128,-1,29
 343 605 343 605 308 605 c 0,30,31
 260 605 260 605 237.5 538 c 128,-1,32
 215 471 215 471 215 408 c 0,33,34
 215 358 215 358 232.5 336 c 128,-1,35
 250 314 250 314 278 314 c 0,36,37
 316 314 316 314 337 356 c 128,-1,38
 358 398 358 398 363 446 c 1,39,40
 369 479 369 479 369 511 c 0,27,28
EndSplineSet
EndChar
StartChar: colon
Encoding: 58 58 25
Width: 330
Flags: HW
LayerCount: 2
Fore
SplineSet
122 156 m 256
 145.333333333 156 165 148 181 132 c 128
 197 116 205 96.3333333333 205 73 c 0
 205 50.3333333333 196.5 30.8333333333 179.5 14.5 c 128
 162.5 -1.83333333333 143 -10 121 -10 c 0
 97.6666666667 -10 77.8333333333 -2.16666666667 61.5 13.5 c 128
 45.1666666667 29.1666666667 37 48.6666666667 37 72 c 0
 37 94.6666666667 45.3333333333 114.333333333 62 131 c 128
 78.6666666667 147.666666667 98.6666666667 156 122 156 c 256
183 490 m 0
 205.666666667 490 225 482.333333333 241 467 c 128
 257 451.666666667 265 432.333333333 265 409 c 0
 265 385 256.833333333 364.833333333 240.5 348.5 c 128
 224.166666667 332.166666667 204.333333333 324 181 324 c 0
 158.333333333 324 139 332 123 348 c 128
 107 364 99 384 99 408 c 0
 99 430.666666667 107 450 123 466 c 128
 139 482 159 490 183 490 c 0
EndSplineSet
EndChar
StartChar: semicolon
Encoding: 59 59 28
Width: 330
Flags: W
LayerCount: 2
Fore
SplineSet
183 492 m 0,0,1
 218 492 218 492 243 468 c 128,-1,2
 268 444 268 444 268 409 c 256,3,4
 268 374 268 374 243 349 c 128,-1,5
 218 324 218 324 183 324 c 256,6,7
 148 324 148 324 123.5 348.5 c 128,-1,8
 99 373 99 373 99 408 c 0,9,10
 99 442 99 442 123 467 c 128,-1,11
 147 492 147 492 183 492 c 0,0,1
54 89 m 1,12,13
 73 128 73 128 88.5 148 c 128,-1,14
 104 168 104 168 134 168 c 0,15,16
 157 168 157 168 178.5 153 c 128,-1,17
 200 138 200 138 202 117 c 1,18,19
 202 92 202 92 190.5 70 c 128,-1,20
 179 48 179 48 159 25 c 2,21,-1
 -33 -183 l 1,22,-1
 -54 -164 l 1,23,-1
 54 89 l 1,12,13
EndSplineSet
EndChar
StartChar: less
Encoding: 60 60 29
Width: 819
Flags: W
LayerCount: 2
Fore
SplineSet
692 469 m 1,0,-1
 262 293 l 1,1,-1
 692 118 l 1,2,-1
 692 12 l 1,3,-1
 127 246 l 1,4,-1
 127 340 l 1,5,-1
 692 573 l 1,6,-1
 692 469 l 1,0,-1
EndSplineSet
EndChar
StartChar: equal
Encoding: 61 61 30
Width: 819
Flags: W
LayerCount: 2
Fore
SplineSet
698 444 m 1,0,-1
 698 349 l 1,1,-1
 122 349 l 1,2,-1
 122 444 l 1,3,-1
 698 444 l 1,0,-1
698 237 m 1,4,-1
 698 142 l 1,5,-1
 122 142 l 1,6,-1
 122 237 l 1,7,-1
 698 237 l 1,4,-1
EndSplineSet
EndChar
StartChar: greater
Encoding: 62 62 29
Width: 819
Flags: HW
LayerCount: 2
Fore
SplineSet
693 340 m 1
 693 246 l 1
 127 12 l 1
 127 118 l 1
 556 293 l 1
 127 469 l 1
 127 573 l 1
 693 340 l 1
EndSplineSet
EndChar
StartChar: question
Encoding: 63 63 32
Width: 432
Flags: W
LayerCount: 2
Fore
SplineSet
167 -12 m 256,0,1
 132 -12 132 -12 108 11 c 128,-1,2
 84 34 84 34 84 69 c 0,3,4
 84 106 84 106 106.5 130.5 c 128,-1,5
 129 155 129 155 164 155 c 0,6,7
 200 155 200 155 226 131 c 128,-1,8
 252 107 252 107 252 71 c 0,9,10
 252 36 252 36 227 12 c 128,-1,11
 202 -12 202 -12 167 -12 c 256,0,1
317 257 m 1,12,13
 311 246 311 246 305 230 c 128,-1,14
 299 214 299 214 295 199 c 1,15,-1
 255 196 l 1,16,17
 194 196 194 196 148.5 229 c 128,-1,18
 103 262 103 262 103 320 c 0,19,20
 103 382 103 382 195 452 c 128,-1,21
 287 522 287 522 287 571 c 0,22,23
 287 597 287 597 267.5 613.5 c 128,-1,24
 248 630 248 630 221 630 c 0,25,26
 200 630 200 630 172.5 617.5 c 128,-1,27
 145 605 145 605 137 589 c 1,28,-1
 116 589 l 1,29,30
 125 614 125 614 128.5 628 c 128,-1,31
 132 642 132 642 132 660 c 1,32,33
 183 685 183 685 246 685 c 0,34,35
 316 685 316 685 369 643.5 c 128,-1,36
 422 602 422 602 422 534 c 256,37,38
 422 466 422 466 391.5 439 c 128,-1,39
 361 412 361 412 286.5 363.5 c 128,-1,40
 212 315 212 315 212 281 c 1,41,42
 213 264 213 264 226.5 253 c 128,-1,43
 240 242 240 242 258 242 c 0,44,45
 271 242 271 242 282.5 246.5 c 128,-1,46
 294 251 294 251 307 260 c 1,47,-1
 317 257 l 1,12,13
EndSplineSet
EndChar
StartChar: at
Encoding: 64 64 31
Width: 984
Flags: HW
LayerCount: 2
Fore
SplineSet
419 52 m 0
 368.333333333 52 329.333333333 66.3333333333 302 95 c 128
 274.666666667 123.666666667 261 164 261 216 c 0
 261 282.666666667 283.166666667 344.166666667 327.5 400.5 c 128
 371.833333333 456.833333333 427 485 493 485 c 0
 517 485 538.166666667 479.666666667 556.5 469 c 128
 574.833333333 458.333333333 592 442.666666667 608 422 c 1
 633 471 l 1
 720 471 l 1
 647 183 l 1
 644 165 l 1
 644 153.666666667 648.5 145 657.5 139 c 128
 666.5 133 677.333333333 130 690 130 c 0
 737.333333333 130 776.166666667 156.333333333 806.5 209 c 128
 836.833333333 261.666666667 852 313.333333333 852 364 c 0
 852 442.666666667 822.5 507 763.5 557 c 128
 704.5 607 635.333333333 632 556 632 c 0
 438 632 337.833333333 598.166666667 255.5 530.5 c 128
 173.166666667 462.833333333 132 370.666666667 132 254 c 0
 132 151.333333333 166.666666667 71.3333333333 236 14 c 128
 305.333333333 -43.3333333333 392.666666667 -72 498 -72 c 0
 545.333333333 -72 595.166666667 -63.6666666667 647.5 -47 c 128
 699.833333333 -30.3333333333 746.333333333 -8.66666666667 787 18 c 1
 825 -36 l 1
 729.666666667 -110 620.666666667 -147 498 -147 c 0
 372.666666667 -147 265.666666667 -111.333333333 177 -40 c 128
 88.3333333333 31.3333333333 44 128.333333333 44 251 c 0
 44 382.333333333 92.3333333333 491.833333333 189 579.5 c 128
 285.666666667 667.166666667 400.333333333 711 533 711 c 0
 641 711 736 679.666666667 818 617 c 128
 900 554.333333333 941 470.333333333 941 365 c 0
 941 285 914.5 212.666666667 861.5 148 c 128
 808.5 83.3333333333 742.666666667 51 664 51 c 1
 645 52 l 1
 622.333333333 52 604.333333333 56.5 591 65.5 c 128
 577.666666667 74.5 567.666666667 96 561 130 c 1
 542.333333333 104 521.666666667 84.5 499 71.5 c 128
 476.333333333 58.5 449.666666667 52 419 52 c 0
501 416 m 0
 456.333333333 416 422.5 394.166666667 399.5 350.5 c 128
 376.5 306.833333333 365 260.666666667 365 212 c 0
 365 188.666666667 371.666666667 167.833333333 385 149.5 c 128
 398.333333333 131.166666667 416 122 438 122 c 0
 468 122 493.5 132.5 514.5 153.5 c 128
 535.5 174.5 550 200.666666667 558 232 c 2
 584 336 l 1
 582 359.333333333 573.5 378.5 558.5 393.5 c 128
 543.5 408.5 524.333333333 416 501 416 c 0
EndSplineSet
EndChar
StartChar: A
Encoding: 65 65 34
Width: 616
Flags: W
LayerCount: 2
Fore
SplineSet
374 25 m 2,0,1
 374 64 374 64 368.5 106.5 c 128,-1,2
 363 149 363 149 358 191 c 1,3,4
 300 198 300 198 246 198 c 0,5,6
 221 198 221 198 191.5 195 c 128,-1,7
 162 192 162 192 145 191 c 1,8,9
 99 109 99 109 83.5 80 c 128,-1,10
 68 51 68 51 44 0 c 1,11,-1
 -6 4 l 2,12,13
 -16 4 -16 4 -32 2.5 c 128,-1,14
 -48 1 -48 1 -67 0 c 1,15,16
 5 108 5 108 70 210.5 c 128,-1,17
 135 313 135 313 198 416.5 c 128,-1,18
 261 520 261 520 354 676 c 1,19,-1
 400 672 l 2,20,21
 411 672 411 672 424.5 673.5 c 128,-1,22
 438 675 438 675 445 676 c 1,23,-1
 479 446 l 2,24,25
 491 371 491 371 505.5 284 c 128,-1,26
 520 197 520 197 532.5 135.5 c 128,-1,27
 545 74 545 74 566 0 c 1,28,29
 529 5 529 5 505.5 7 c 128,-1,30
 482 9 482 9 467 9 c 0,31,32
 448 9 448 9 431.5 7 c 128,-1,33
 415 5 415 5 374 0 c 1,34,-1
 374 25 l 2,0,1
240 261 m 1,35,-1
 349 263 l 1,36,37
 341 346 341 346 337 382.5 c 128,-1,38
 333 419 333 419 323 484 c 1,39,40
 291 435 291 435 252 373.5 c 128,-1,41
 213 312 213 312 185 263 c 1,42,-1
 240 261 l 1,35,-1
EndSplineSet
EndChar
StartChar: B
Encoding: 66 66 33
Width: 599
Flags: HW
LayerCount: 2
Fore
SplineSet
135 671 m 1
 162.333333333 668.333333333 180.166666667 666.833333333 188.5 666.5 c 128
 196.833333333 666.166666667 206.333333333 666 217 666 c 0
 237 666 264.5 667.166666667 299.5 669.5 c 128
 334.5 671.833333333 357.333333333 673 368 673 c 0
 423.333333333 673 471 662 511 640 c 128
 551 618 571 581.333333333 571 530 c 0
 571 480.666666667 553.166666667 440.333333333 517.5 409 c 128
 481.833333333 377.666666667 438 358.333333333 386 351 c 1
 386 345 l 1
 423.333333333 345 455.5 332.166666667 482.5 306.5 c 128
 509.5 280.833333333 523 249 523 211 c 0
 523 133 496.833333333 78.3333333333 444.5 47 c 128
 392.166666667 15.6666666667 324 0 240 0 c 0
 215.333333333 0 182.5 0.833333333333 141.5 2.5 c 128
 100.5 4.16666666667 76 5 68 5 c 2
 3 0 l 1
 21.6666666667 65.3333333333 41.5 140 62.5 224 c 128
 83.5 308 100.833333333 389.166666667 114.5 467.5 c 128
 128.166666667 545.833333333 135 613.666666667 135 671 c 1
412 516 m 0
 412 544.666666667 404.333333333 567.666666667 389 585 c 128
 373.666666667 602.333333333 351.666666667 611 323 611 c 1
 290 609 l 1
 284.666666667 589.666666667 279.5 567.5 274.5 542.5 c 128
 267 505 267 505 264 490 c 2
 245 382 l 1
 295.666666667 382 336.166666667 392.166666667 366.5 412.5 c 128
 396.833333333 432.833333333 412 467.333333333 412 516 c 0
207 64 m 1
 254.333333333 64 291.833333333 79.1666666667 319.5 109.5 c 128
 347.166666667 139.833333333 361 179 361 227 c 0
 361 266.333333333 350.166666667 292.166666667 328.5 304.5 c 128
 306.833333333 316.833333333 275 323 233 323 c 1
 209 207 l 1
 181 65 l 1
 207 64 l 1
EndSplineSet
EndChar
StartChar: C
Encoding: 67 67 36
Width: 669
Flags: W
LayerCount: 2
Fore
SplineSet
362 -15 m 0,0,1
 213 -15 213 -15 119.5 64.5 c 128,-1,2
 26 144 26 144 26 291 c 0,3,4
 26 462 26 462 153 573.5 c 128,-1,5
 280 685 280 685 454 685 c 0,6,7
 521 685 521 685 581 669.5 c 128,-1,8
 641 654 641 654 698 622 c 1,9,10
 694 613 694 613 678.5 570.5 c 128,-1,11
 663 528 663 528 650 483 c 1,12,-1
 637 487 l 1,13,14
 620 554 620 554 572 588.5 c 128,-1,15
 524 623 524 623 453 623 c 0,16,17
 326 623 326 623 263 513 c 128,-1,18
 200 403 200 403 200 264 c 0,19,20
 200 169 200 169 247 109.5 c 128,-1,21
 294 50 294 50 387 50 c 0,22,23
 441 50 441 50 490 70 c 128,-1,24
 539 90 539 90 585 129 c 1,25,-1
 597 115 l 1,26,27
 589 96 589 96 582 76 c 128,-1,28
 575 56 575 56 568 29 c 1,29,30
 525 6 525 6 471.5 -4.5 c 128,-1,31
 418 -15 418 -15 362 -15 c 0,0,1
EndSplineSet
EndChar
StartChar: D
Encoding: 68 68 35
Width: 747
Flags: HW
LayerCount: 2
Fore
SplineSet
132 671 m 1
 158 668.333333333 175.333333333 666.833333333 184 666.5 c 128
 192.666666667 666.166666667 202.333333333 666 213 666 c 0
 240.333333333 666 275 666.833333333 317 668.5 c 128
 359 670.166666667 383.333333333 671 390 671 c 0
 487.333333333 671 566.5 651.166666667 627.5 611.5 c 128
 688.5 571.833333333 719 506 719 414 c 0
 719 281.333333333 675.666666667 179.166666667 589 107.5 c 128
 502.333333333 35.8333333333 390.666666667 0 254 0 c 0
 236 0 208.333333333 1.16666666667 171 3.5 c 128
 133.666666667 5.83333333333 108.333333333 7 95 7 c 0
 61.6666666667 7 29 5 -3 1 c 1
 21 89 41.3333333333 167.833333333 58 237.5 c 128
 74.6666666667 307.166666667 89.3333333333 377.833333333 102 449.5 c 128
 114.666666667 521.166666667 124.666666667 595 132 671 c 1
245 62 m 0
 339.666666667 62 413.833333333 94 467.5 158 c 128
 521.166666667 222 548 302 548 398 c 0
 548 464.666666667 531 516.5 497 553.5 c 128
 463 590.5 413 609 347 609 c 1
 295 606 l 1
 271 518 249.333333333 427.833333333 230 335.5 c 128
 210.666666667 243.166666667 195.333333333 154 184 68 c 1
 194 66.6666666667 205.833333333 65.3333333333 219.5 64 c 128
 233.166666667 62.6666666667 241.666666667 62 245 62 c 0
EndSplineSet
EndChar
StartChar: E
Encoding: 69 69 36
Width: 504
Flags: HW
LayerCount: 2
Fore
SplineSet
133 671 m 1
 153.666666667 671 184.333333333 670 225 668 c 128
 265.666666667 666 296.333333333 665 317 665 c 0
 341 665 376.333333333 666 423 668 c 128
 469.666666667 670 504.666666667 671 528 671 c 1
 520.666666667 655.666666667 515.166666667 641.333333333 511.5 628 c 128
 507.833333333 614.666666667 506 600.333333333 506 585 c 1
 481.333333333 588.333333333 456.5 591.333333333 431.5 594 c 128
 406.5 596.666666667 382.333333333 598 359 598 c 2
 288 597 l 1
 284 584.333333333 279.833333333 569.833333333 275.5 553.5 c 128
 271.166666667 537.166666667 267.333333333 521.666666667 264 507 c 1
 244 395 l 1
 330 392 l 2
 348.666666667 392 373.5 392.833333333 404.5 394.5 c 128
 435.5 396.166666667 454 397 460 397 c 1
 456 388.333333333 452.666666667 374.666666667 450 356 c 128
 447.333333333 337.333333333 446 322.333333333 446 311 c 1
 430 311 408.5 312.166666667 381.5 314.5 c 128
 354.5 316.833333333 337 318 329 318 c 2
 229 317 l 1
 201 191 l 2
 193 152.333333333 187 115 183 79 c 1
 213 79 258.5 81 319.5 85 c 128
 380.5 89 416 91 426 91 c 1
 422 79 418 64.1666666667 414 46.5 c 128
 410 28.8333333333 407 13.3333333333 405 0 c 1
 383 0 347.666666667 1 299 3 c 128
 250.333333333 5 215 6 193 6 c 0
 171.666666667 6 139.333333333 5 96 3 c 128
 52.6666666667 1 20 0 -2 0 c 1
 28.6666666667 104 55.5 214 78.5 330 c 128
 101.5 446 119.666666667 559.666666667 133 671 c 1
EndSplineSet
EndChar
StartChar: F
Encoding: 70 70 37
Width: 485
Flags: HW
LayerCount: 2
Fore
SplineSet
134 671 m 1
 154.666666667 671 185.333333333 670 226 668 c 128
 266.666666667 666 297.333333333 665 318 665 c 0
 342 665 377.333333333 666 424 668 c 128
 470.666666667 670 505.666666667 671 529 671 c 1
 523 657.666666667 518 643.5 514 628.5 c 128
 510 613.5 508 599 508 585 c 1
 482.666666667 588.333333333 457.5 591.333333333 432.5 594 c 128
 407.5 596.666666667 383.333333333 598 360 598 c 2
 290 597 l 1
 286 588.333333333 282.666666667 578.5 280 567.5 c 128
 277.333333333 556.5 273 536.333333333 267 507 c 2
 245 395 l 1
 336 394 l 2
 376.666666667 394 418.333333333 396.666666667 461 402 c 1
 451.666666667 374 447 344 447 312 c 1
 428.333333333 314 406.333333333 316 381 318 c 128
 355.666666667 320 334 321 316 321 c 0
 295 321 295 321 281 321 c 128
 271.666666667 321 255.666666667 319.666666667 233 317 c 1
 205 191 l 1
 195 132.333333333 186.666666667 68.6666666667 180 0 c 1
 165.333333333 1.33333333333 149.5 2.83333333333 132.5 4.5 c 128
 115.5 6.16666666667 101.666666667 7 91 7 c 0
 76.3333333333 7 60 6 42 4 c 128
 24 2 10 0.666666666667 0 0 c 1
 32 126 59.3333333333 243.5 82 352.5 c 128
 104.666666667 461.5 122 567.666666667 134 671 c 1
EndSplineSet
EndChar
StartChar: G
Encoding: 71 71 38
Width: 738
Flags: HW
LayerCount: 2
Fore
SplineSet
516 304 m 1
 534 302 549.333333333 300.5 562 299.5 c 128
 574.666666667 298.5 587.333333333 298 600 298 c 0
 612 298 626.666666667 298.666666667 644 300 c 128
 661.333333333 301.333333333 676.333333333 302.666666667 689 304 c 1
 675 264 662.666666667 219.333333333 652 170 c 128
 641.333333333 120.666666667 632 71 624 21 c 1
 583.333333333 11 542.333333333 3.33333333333 501 -2 c 128
 459.666666667 -7.33333333333 418 -10 376 -10 c 0
 271.333333333 -10 186.833333333 14.5 122.5 63.5 c 128
 58.1666666667 112.5 26 188 26 290 c 0
 26 409.333333333 69.6666666667 505 157 577 c 128
 244.333333333 649 348.666666667 685 470 685 c 0
 520.666666667 685 568.833333333 680.5 614.5 671.5 c 128
 660.166666667 662.5 703.666666667 647.333333333 745 626 c 1
 679 478 l 1
 664 483 l 1
 657.333333333 529.666666667 635.333333333 564.166666667 598 586.5 c 128
 560.666666667 608.833333333 516.666666667 620 466 620 c 0
 380 620 314.5 584 269.5 512 c 128
 224.5 440 202 357.666666667 202 265 c 0
 202 205 218.833333333 154.333333333 252.5 113 c 128
 286.166666667 71.6666666667 332.666666667 51 392 51 c 0
 405.333333333 51 417.5 52 428.5 54 c 128
 439.5 56 452.666666667 59 468 63 c 1
 489.333333333 143.666666667 505.333333333 224 516 304 c 1
EndSplineSet
EndChar
StartChar: H
Encoding: 72 72 41
Width: 738
Flags: W
LayerCount: 2
Fore
SplineSet
202 171 m 2,0,1
 195 137 195 137 188 85.5 c 128,-1,2
 181 34 181 34 178 0 c 1,3,4
 148 3 148 3 125.5 5 c 128,-1,5
 103 7 103 7 88 7 c 0,6,7
 66 7 66 7 40 4 c 128,-1,8
 14 1 14 1 0 0 c 1,9,10
 37 147 37 147 60.5 247.5 c 128,-1,11
 84 348 84 348 104 453.5 c 128,-1,12
 124 559 124 559 136 671 c 1,13,14
 157 669 157 669 182.5 666.5 c 128,-1,15
 208 664 208 664 223 664 c 0,16,17
 245 664 245 664 272 667 c 128,-1,18
 299 670 299 670 314 671 c 1,19,20
 302 630 302 630 293 593.5 c 128,-1,21
 284 557 284 557 277 523 c 2,22,-1
 250 403 l 1,23,-1
 388 399 l 1,24,-1
 512 403 l 1,25,-1
 533 501 l 2,26,27
 541 541 541 541 549.5 602.5 c 128,-1,28
 558 664 558 664 559 671 c 1,29,30
 589 668 589 668 611.5 666 c 128,-1,31
 634 664 634 664 649 664 c 0,32,33
 671 664 671 664 697 667 c 128,-1,34
 723 670 723 670 738 671 c 1,35,36
 709 564 709 564 681 447.5 c 128,-1,37
 653 331 653 331 632 215.5 c 128,-1,38
 611 100 611 100 600 0 c 1,39,40
 579 2 579 2 555 4.5 c 128,-1,41
 531 7 531 7 517 7 c 0,42,43
 494 7 494 7 469 4.5 c 128,-1,44
 444 2 444 2 423 0 c 1,45,-1
 460 148 l 1,46,-1
 498 323 l 1,47,48
 477 323 477 323 428 325 c 128,-1,49
 379 327 379 327 359 327 c 256,50,51
 339 327 339 327 297 324 c 128,-1,52
 255 321 255 321 234 321 c 1,53,-1
 202 171 l 2,0,1
EndSplineSet
EndChar
StartChar: I
Encoding: 73 73 40
Width: 330
Flags: HW
LayerCount: 2
Fore
SplineSet
188 0 m 1
 182 0 166.5 1.16666666667 141.5 3.5 c 128
 116.5 5.83333333333 98.6666666667 7 88 7 c 0
 72 7 56 6 40 4 c 128
 24 2 12.6666666667 0.666666666667 6 0 c 1
 27.3333333333 78 47.6666666667 156 67 234 c 128
 86.3333333333 312 102.333333333 385.666666667 115 455 c 128
 127.666666667 524.333333333 137 596.333333333 143 671 c 1
 162.333333333 669 179.5 667.333333333 194.5 666 c 128
 209.5 664.666666667 222.333333333 664 233 664 c 0
 247.666666667 664 264.333333333 665 283 667 c 128
 301.666666667 669 315.666666667 670.333333333 325 671 c 1
 294.333333333 581 266.666666667 473.833333333 242 349.5 c 128
 217.333333333 225.166666667 199.333333333 108.666666667 188 0 c 1
EndSplineSet
EndChar
StartChar: J
Encoding: 74 74 41
Width: 328
Flags: HW
LayerCount: 2
Fore
SplineSet
-124 -108 m 1
 -104.666666667 -108 -85 -106 -65 -102 c 1
 -29.6666666667 -93.3333333333 -5 -73.8333333333 9 -43.5 c 128
 23 -13.1666666667 41.6666666667 62.3333333333 65 183 c 1
 97 360 l 2
 109 423.333333333 118.666666667 480 126 530 c 128
 133.333333333 580 137 627 137 671 c 1
 151.666666667 669.666666667 167.666666667 668.333333333 185 667 c 128
 202.333333333 665.666666667 217.666666667 665 231 665 c 0
 243.666666667 665 258 665.666666667 274 667 c 128
 290 668.333333333 305 669.666666667 319 671 c 1
 305 626.333333333 291.333333333 573.5 278 512.5 c 128
 264.666666667 451.5 252.833333333 391.833333333 242.5 333.5 c 128
 232.166666667 275.166666667 219.666666667 203.333333333 205 118 c 128
 190.333333333 32.6666666667 162.166666667 -35.3333333333 120.5 -86 c 128
 78.8333333333 -136.666666667 5 -162 -101 -162 c 1
 -105.666666667 -154.666666667 -109.833333333 -146.5 -113.5 -137.5 c 128
 -117.166666667 -128.5 -120.666666667 -118.666666667 -124 -108 c 1
EndSplineSet
EndChar
StartChar: K
Encoding: 75 75 42
Width: 585
Flags: HW
LayerCount: 2
Fore
SplineSet
271 508 m 1
 242 363 l 1
 374 483 l 1
 404 508.333333333 430.666666667 533.666666667 454 559 c 128
 477.333333333 584.333333333 510.333333333 621.666666667 553 671 c 1
 612 666 l 1
 626.666666667 666 638.666666667 666.5 648 667.5 c 128
 657.333333333 668.5 667.666666667 669.666666667 679 671 c 1
 677 661 l 1
 641.666666667 629.666666667 602.333333333 594.333333333 559 555 c 128
 515.666666667 515.666666667 483 485.833333333 461 465.5 c 128
 439 445.166666667 407 414 365 372 c 1
 401 296 438.666666667 219.666666667 478 143 c 1
 553 0 l 1
 543 0 527.666666667 1 507 3 c 128
 486.333333333 5 470.333333333 6 459 6 c 0
 449 6 433 5 411 3 c 128
 389 1 372.333333333 0 361 0 c 1
 333 68.6666666667 310.166666667 123.333333333 292.5 164 c 128
 274.833333333 204.666666667 253.333333333 247.666666667 228 293 c 1
 206 193 l 1
 193.333333333 125.666666667 183.666666667 61.3333333333 177 0 c 1
 157 2 139.333333333 3.66666666667 124 5 c 128
 108.666666667 6.33333333333 96 7 86 7 c 0
 72.6666666667 7 57.3333333333 6 40 4 c 128
 22.6666666667 2 9.33333333333 0.666666666667 0 0 c 1
 19.3333333333 72 39.5 147.833333333 60.5 227.5 c 128
 81.5 307.166666667 99.1666666667 385.833333333 113.5 463.5 c 128
 127.833333333 541.166666667 135 610.333333333 135 671 c 1
 143 670.333333333 158 669 180 667 c 128
 202 665 216.666666667 664 224 664 c 0
 238.666666667 664 255.5 665 274.5 667 c 128
 293.5 669 306.333333333 670.333333333 313 671 c 1
 303 645 295.166666667 620.666666667 289.5 598 c 128
 283.833333333 575.333333333 277.666666667 545.333333333 271 508 c 1
EndSplineSet
EndChar
StartChar: L
Encoding: 76 76 43
Width: 454
Flags: HW
LayerCount: 2
Fore
SplineSet
190 79 m 1
 213.333333333 79 253.166666667 81.1666666667 309.5 85.5 c 128
 365.833333333 89.8333333333 403.666666667 92 423 92 c 1
 417 74.6666666667 412.333333333 58.5 409 43.5 c 128
 405.666666667 28.5 404 14 404 0 c 1
 373.333333333 0 322.166666667 0.666666666667 250.5 2 c 128
 178.833333333 3.33333333333 140.333333333 4 135 4 c 2
 0 0 l 1
 24.6666666667 98.6666666667 44.3333333333 179.833333333 59 243.5 c 128
 73.6666666667 307.166666667 88.1666666667 377 102.5 453 c 128
 116.833333333 529 127.666666667 601.666666667 135 671 c 1
 155 669 172.5 667.333333333 187.5 666 c 128
 202.5 664.666666667 215 664 225 664 c 0
 239.666666667 664 255.833333333 665 273.5 667 c 128
 291.166666667 669 305 670.333333333 315 671 c 1
 292.333333333 594.333333333 271.333333333 521.666666667 252 453 c 128
 232.666666667 384.333333333 217.5 319.833333333 206.5 259.5 c 128
 195.5 199.166666667 190 139 190 79 c 1
EndSplineSet
EndChar
StartChar: M
Encoding: 77 77 46
Width: 886
Flags: W
LayerCount: 2
Fore
SplineSet
160 671 m 1,0,1
 173 669 173 669 191.5 667 c 128,-1,2
 210 665 210 665 223 665 c 0,3,4
 235 665 235 665 251 667 c 128,-1,5
 267 669 267 669 282 671 c 1,6,7
 314 548 314 548 346 439.5 c 128,-1,8
 378 331 378 331 417 223 c 1,9,-1
 624 503 l 1,10,-1
 744 671 l 1,11,12
 764 669 764 669 785 667 c 128,-1,13
 806 665 806 665 809 665 c 0,14,15
 820 665 820 665 842 668 c 128,-1,16
 864 671 864 671 874 671 c 1,17,18
 841 533 841 533 820 431 c 128,-1,19
 799 329 799 329 781.5 221 c 128,-1,20
 764 113 764 113 754 0 c 1,21,-1
 693 6 l 1,22,23
 658 6 658 6 634.5 5 c 128,-1,24
 611 4 611 4 583 0 c 1,25,26
 600 67 600 67 619 172.5 c 128,-1,27
 638 278 638 278 641 298 c 2,28,-1
 662 425 l 1,29,30
 582 323 582 323 506 214.5 c 128,-1,31
 430 106 430 106 358 -8 c 1,32,-1
 299 -8 l 1,33,34
 276 102 276 102 248 208.5 c 128,-1,35
 220 315 220 315 185 430 c 1,36,37
 163 334 163 334 140.5 219 c 128,-1,38
 118 104 118 104 101 0 c 1,39,40
 92 0 92 0 73 3 c 128,-1,41
 54 6 54 6 45 6 c 0,42,43
 33 6 33 6 19 4 c 128,-1,44
 5 2 5 2 -8 0 c 1,45,46
 84 331 84 331 160 671 c 1,0,1
EndSplineSet
EndChar
StartChar: O
Encoding: 79 79 46
Width: 804
Flags: HW
LayerCount: 2
Fore
SplineSet
25 283 m 0
 25 393.666666667 63 488.333333333 139 567 c 128
 215 645.666666667 307 685 415 685 c 0
 523.666666667 685 611.333333333 662.5 678 617.5 c 128
 744.666666667 572.5 778 498 778 394 c 0
 778 279.333333333 737.666666667 183.333333333 657 106 c 128
 576.333333333 28.6666666667 478.333333333 -10 363 -10 c 0
 326.333333333 -10 295 -8.33333333333 269 -5 c 128
 243 -1.66666666667 210.5 8.33333333333 171.5 25 c 128
 132.5 41.6666666667 98.3333333333 74.1666666667 69 122.5 c 128
 39.6666666667 170.833333333 25 224.333333333 25 283 c 0
203 260 m 0
 203 200.666666667 216 151.5 242 112.5 c 128
 268 73.5 310 54 368 54 c 0
 448 54 507.5 91.3333333333 546.5 166 c 128
 585.5 240.666666667 605 322.333333333 605 411 c 0
 605 469.666666667 591.166666667 519.333333333 563.5 560 c 128
 535.833333333 600.666666667 494 621 438 621 c 0
 376 621 326.5 596 289.5 546 c 128
 252.5 496 228.833333333 445.166666667 218.5 393.5 c 128
 208.166666667 341.833333333 203 297.333333333 203 260 c 0
EndSplineSet
EndChar
StartChar: P
Encoding: 80 80 49
Width: 598
Flags: W
LayerCount: 2
Fore
SplineSet
136 671 m 1,0,-1
 223 668 l 1,1,-1
 340 671 l 1,2,3
 448 671 448 671 520 634.5 c 128,-1,4
 592 598 592 598 592 500 c 0,5,6
 592 388 592 388 504 336.5 c 128,-1,7
 416 285 416 285 298 285 c 0,8,9
 259 285 259 285 228 289 c 1,10,-1
 208 193 l 2,11,12
 186 84 186 84 178 0 c 1,13,14
 139 4 139 4 125 5.5 c 128,-1,15
 111 7 111 7 86 7 c 0,16,17
 64 7 64 7 41 4.5 c 128,-1,18
 18 2 18 2 0 0 c 1,19,20
 29 109 29 109 61.5 232 c 128,-1,21
 94 355 94 355 115 466.5 c 128,-1,22
 136 578 136 578 136 671 c 1,0,-1
262 353 m 1,23,24
 344 353 344 353 384.5 398 c 128,-1,25
 425 443 425 443 425 526 c 0,26,27
 425 568 425 568 395 589.5 c 128,-1,28
 365 611 365 611 320 611 c 1,29,-1
 300 610 l 1,30,31
 291 582 291 582 285.5 562 c 128,-1,32
 280 542 280 542 277 521 c 1,33,-1
 240 354 l 1,34,-1
 262 353 l 1,23,24
EndSplineSet
EndChar
StartChar: Q
Encoding: 81 81 48
Width: 804
Flags: HW
LayerCount: 2
Fore
SplineSet
297 -7 m 1
 213.666666667 4.33333333333 147.666666667 35.6666666667 99 87 c 128
 50.3333333333 138.333333333 26 206 26 290 c 0
 26 398.666666667 64.3333333333 491.666666667 141 569 c 128
 217.666666667 646.333333333 309.666666667 685 417 685 c 0
 521.666666667 685 608 661.833333333 676 615.5 c 128
 744 569.166666667 778 495.666666667 778 395 c 0
 778 304.333333333 750.833333333 221.333333333 696.5 146 c 128
 642.166666667 70.6666666667 571.333333333 23 484 3 c 1
 514.666666667 -9.66666666667 543.666666667 -21.3333333333 571 -32 c 128
 598.333333333 -42.6666666667 627.333333333 -53.3333333333 658 -64 c 2
 757 -97 l 1
 755 -114 l 1
 736.333333333 -127.333333333 718.666666667 -142 702 -158 c 128
 685.333333333 -174 668.666666667 -192.333333333 652 -213 c 1
 604 -182.333333333 548.5 -148.833333333 485.5 -112.5 c 128
 422.5 -76.1666666667 359.666666667 -41 297 -7 c 1
203 260 m 0
 203 200.666666667 216 151.5 242 112.5 c 128
 268 73.5 310 54 368 54 c 0
 448 54 507.5 91.3333333333 546.5 166 c 128
 585.5 240.666666667 605 322.333333333 605 411 c 0
 605 469.666666667 591.166666667 519.333333333 563.5 560 c 128
 535.833333333 600.666666667 494 621 438 621 c 0
 376 621 326.5 596 289.5 546 c 128
 252.5 496 228.833333333 445.166666667 218.5 393.5 c 128
 208.166666667 341.833333333 203 297.333333333 203 260 c 0
EndSplineSet
EndChar
StartChar: R
Encoding: 82 82 49
Width: 610
Flags: HW
LayerCount: 2
Fore
SplineSet
136 670 m 1
 146 670 161 669.333333333 181 668 c 128
 201 666.666666667 216 666 226 666 c 0
 250.666666667 666 281.5 666.833333333 318.5 668.5 c 128
 355.5 670.166666667 376.666666667 671 382 671 c 0
 444.666666667 671 497.5 659 540.5 635 c 128
 583.5 611 605 569.666666667 605 511 c 0
 605 454.333333333 587.5 411.333333333 552.5 382 c 128
 517.5 352.666666667 469.666666667 335 409 329 c 1
 429.666666667 275.666666667 451.5 222.166666667 474.5 168.5 c 128
 497.5 114.833333333 522.666666667 58.6666666667 550 0 c 1
 530.666666667 2 511.333333333 3.83333333333 492 5.5 c 128
 472.666666667 7.16666666667 456.666666667 8 444 8 c 0
 426.666666667 8 409.666666667 7 393 5 c 128
 376.333333333 3 363 1.33333333333 353 0 c 1
 335.666666667 62 319.333333333 118 304 168 c 128
 288.666666667 218 272 265.333333333 254 310 c 1
 228 310 l 1
 204 192 l 2
 200.666666667 174 196.166666667 143.833333333 190.5 101.5 c 128
 184.833333333 59.1666666667 180.666666667 25.3333333333 178 0 c 1
 157.333333333 2 139.166666667 3.66666666667 123.5 5 c 128
 107.833333333 6.33333333333 95.3333333333 7 86 7 c 0
 72 7 56.5 6 39.5 4 c 128
 22.5 2 9.33333333333 0.666666666667 0 0 c 1
 19.3333333333 72.6666666667 39.8333333333 149.833333333 61.5 231.5 c 128
 83.1666666667 313.166666667 101 391.333333333 115 466 c 128
 129 540.666666667 136 608.666666667 136 670 c 1
267 366 m 1
 317 366 358.833333333 377.833333333 392.5 401.5 c 128
 426.166666667 425.166666667 443 461 443 509 c 0
 443 539.666666667 433 563.5 413 580.5 c 128
 393 597.5 367.333333333 606 336 606 c 1
 292 605 l 1
 272 522 l 1
 237 367 l 1
 267 366 l 1
EndSplineSet
EndChar
StartChar: S
Encoding: 83 83 52
Width: 498
Flags: W
LayerCount: 2
Fore
SplineSet
20 205 m 1,0,-1
 30 200 l 1,1,2
 46 129 46 129 83 90 c 128,-1,3
 120 51 120 51 189 51 c 0,4,5
 234 51 234 51 268 75.5 c 128,-1,6
 302 100 302 100 302 144 c 0,7,8
 302 191 302 191 243 243 c 128,-1,9
 184 295 184 295 128 344 c 1,10,11
 67 409 67 409 67 480 c 0,12,13
 67 572 67 572 137 627.5 c 128,-1,14
 207 683 207 683 300 683 c 0,15,16
 350 683 350 683 399 671.5 c 128,-1,17
 448 660 448 660 499 638 c 1,18,19
 487 608 487 608 474 568.5 c 128,-1,20
 461 529 461 529 454 507 c 1,21,-1
 443 509 l 1,22,23
 430 561 430 561 395 591 c 128,-1,24
 360 621 360 621 308 621 c 0,25,26
 267 621 267 621 237 598 c 128,-1,27
 207 575 207 575 207 535 c 0,28,29
 207 481 207 481 265.5 432 c 128,-1,30
 324 383 324 383 381 337 c 1,31,32
 442 277 442 277 442 205 c 0,33,34
 442 105 442 105 367 46.5 c 128,-1,35
 292 -12 292 -12 188 -12 c 0,36,37
 71 -12 71 -12 -26 44 c 1,38,39
 -1 117 -1 117 20 205 c 1,0,-1
EndSplineSet
EndChar
StartChar: T
Encoding: 84 84 53
Width: 501
Flags: W
LayerCount: 2
Fore
SplineSet
190 413 m 1,0,-1
 223 596 l 1,1,2
 192 596 192 596 127.5 592.5 c 128,-1,3
 63 589 63 589 38 589 c 1,4,5
 46 603 46 603 50 631.5 c 128,-1,6
 54 660 54 660 54 671 c 1,7,8
 88 671 88 671 179.5 667.5 c 128,-1,9
 271 664 271 664 317 664 c 256,10,11
 363 664 363 664 456 667.5 c 128,-1,12
 549 671 549 671 583 671 c 1,13,14
 577 659 577 659 573 644.5 c 128,-1,15
 569 630 569 630 568 616 c 1,16,-1
 568 587 l 1,17,18
 482 596 482 596 395 596 c 1,19,20
 353 456 353 456 323 303 c 128,-1,21
 293 150 293 150 277 0 c 1,22,23
 254 2 254 2 227 4.5 c 128,-1,24
 200 7 200 7 185 7 c 0,25,26
 163 7 163 7 135.5 4 c 128,-1,27
 108 1 108 1 93 0 c 1,28,29
 121 91 121 91 142.5 184.5 c 128,-1,30
 164 278 164 278 190 413 c 1,0,-1
EndSplineSet
EndChar
StartChar: U
Encoding: 85 85 54
Width: 724
Flags: W
LayerCount: 2
Fore
SplineSet
220 665 m 0,0,1
 238 665 238 665 262.5 667 c 128,-1,2
 287 669 287 669 307 671 c 1,3,4
 284 592 284 592 260 507.5 c 128,-1,5
 236 423 236 423 220.5 340.5 c 128,-1,6
 205 258 205 258 205 187 c 0,7,8
 205 132 205 132 240.5 100.5 c 128,-1,9
 276 69 276 69 331 69 c 0,10,11
 380 69 380 69 421.5 86.5 c 128,-1,12
 463 104 463 104 498.5 146.5 c 128,-1,13
 534 189 534 189 560 282 c 128,-1,14
 586 375 586 375 601 479 c 128,-1,15
 616 583 616 583 629 671 c 1,16,-1
 681 667 l 1,17,-1
 730 671 l 1,18,19
 681 474 681 474 656.5 363 c 128,-1,20
 632 252 632 252 625 221 c 1,21,22
 616 195 616 195 598.5 141 c 128,-1,23
 581 87 581 87 498 37.5 c 128,-1,24
 415 -12 415 -12 308 -12 c 0,25,26
 196 -12 196 -12 123.5 31.5 c 128,-1,27
 51 75 51 75 51 180 c 0,28,29
 51 222 51 222 68.5 317.5 c 128,-1,30
 86 413 86 413 106 517 c 128,-1,31
 126 621 126 621 131 671 c 1,32,33
 156 668 156 668 178 666.5 c 128,-1,34
 200 665 200 665 220 665 c 0,0,1
EndSplineSet
EndChar
StartChar: V
Encoding: 86 86 53
Width: 585
Flags: HW
LayerCount: 2
Fore
SplineSet
288 215 m 1
 342 291 392.166666667 367.833333333 438.5 445.5 c 128
 484.833333333 523.166666667 524 598.333333333 556 671 c 1
 608 666 l 1
 616 666 627.5 666.833333333 642.5 668.5 c 128
 657.5 670.166666667 666.666666667 671 670 671 c 1
 596 561 525 450.833333333 457 340.5 c 128
 389 230.166666667 322.666666667 116.666666667 258 0 c 1
 246.666666667 2.66666666667 237.166666667 4.66666666667 229.5 6 c 128
 221.833333333 7.33333333333 214 8 206 8 c 0
 197.333333333 8 187.666666667 6.83333333333 177 4.5 c 128
 166.333333333 2.16666666667 157.333333333 0.666666666667 150 0 c 1
 136 122.666666667 120.5 236.666666667 103.5 342 c 128
 86.5 447.333333333 65 557 39 671 c 1
 135 666 l 1
 227 671 l 1
 227 623 229.666666667 575.333333333 235 528 c 128
 240.333333333 480.666666667 247.333333333 432.666666667 256 384 c 128
 264.666666667 335.333333333 275.333333333 279 288 215 c 1
EndSplineSet
EndChar
StartChar: W
Encoding: 87 87 56
Width: 887
Flags: W
LayerCount: 2
Fore
SplineSet
37 671 m 1,0,1
 60 671 60 671 81 669 c 128,-1,2
 102 667 102 667 132 665 c 1,3,4
 151 665 151 665 174.5 667 c 128,-1,5
 198 669 198 669 221 671 c 1,6,7
 221 570 221 570 232.5 451.5 c 128,-1,8
 244 333 244 333 256 221 c 1,9,10
 313 326 313 326 366 436.5 c 128,-1,11
 419 547 419 547 474 671 c 1,12,-1
 528 667 l 1,13,14
 553 667 553 667 566 669 c 128,-1,15
 579 671 579 671 586 671 c 1,16,17
 604 528 604 528 617 433 c 128,-1,18
 630 338 630 338 648 225 c 1,19,20
 701 335 701 335 747 446 c 128,-1,21
 793 557 793 557 834 671 c 1,22,23
 860 668 860 668 886 665 c 1,24,25
 895 665 895 665 913 668 c 128,-1,26
 931 671 931 671 941 671 c 1,27,28
 870 524 870 524 792 349 c 128,-1,29
 714 174 714 174 640 0 c 1,30,31
 611 3 611 3 582 6 c 1,32,33
 569 6 569 6 553 4 c 128,-1,34
 537 2 537 2 522 0 c 1,35,36
 508 136 508 136 495 229.5 c 128,-1,37
 482 323 482 323 457 443 c 1,38,39
 429 390 429 390 386.5 305 c 128,-1,40
 344 220 344 220 308.5 145.5 c 128,-1,41
 273 71 273 71 241 0 c 1,42,43
 225 1 225 1 204 3.5 c 128,-1,44
 183 6 183 6 179 6 c 0,45,46
 165 6 165 6 143.5 3 c 128,-1,47
 122 0 122 0 120 0 c 1,48,49
 120 106 120 106 108.5 209 c 128,-1,50
 97 312 97 312 76.5 435.5 c 128,-1,51
 56 559 56 559 37 671 c 1,0,1
EndSplineSet
EndChar
StartChar: X
Encoding: 88 88 57
Width: 578
Flags: W
LayerCount: 2
Fore
SplineSet
141 226 m 2,0,-1
 224 321 l 1,1,2
 196 406 196 406 161 493 c 128,-1,3
 126 580 126 580 86 671 c 1,4,5
 108 669 108 669 134 667 c 128,-1,6
 160 665 160 665 180 665 c 0,7,8
 199 665 199 665 225.5 667 c 128,-1,9
 252 669 252 669 273 671 c 1,10,11
 287 621 287 621 305 565.5 c 128,-1,12
 323 510 323 510 344 454 c 1,13,14
 425 559 425 559 501 671 c 1,15,16
 532 668 532 668 563 665 c 0,17,18
 573 665 573 665 594 668 c 128,-1,19
 615 671 615 671 625 671 c 1,20,21
 582 627 582 627 532.5 573 c 128,-1,22
 483 519 483 519 442 471 c 1,23,-1
 368 381 l 1,24,25
 406 262 406 262 423 215 c 128,-1,26
 440 168 440 168 450 138 c 2,27,-1
 500 0 l 1,28,29
 480 2 480 2 451 4 c 128,-1,30
 422 6 422 6 402 6 c 0,31,32
 383 6 383 6 359 4 c 128,-1,33
 335 2 335 2 312 0 c 1,34,35
 300 58 300 58 285 119 c 128,-1,36
 270 180 270 180 252 239 c 1,37,38
 199 179 199 179 154 123 c 128,-1,39
 109 67 109 67 61 0 c 1,40,41
 44 3 44 3 28 4.5 c 128,-1,42
 12 6 12 6 -2 6 c 256,43,44
 -16 6 -16 6 -33 4 c 128,-1,45
 -50 2 -50 2 -65 0 c 1,46,47
 1 71 1 71 37.5 110.5 c 128,-1,48
 74 150 74 150 141 226 c 2,0,-1
EndSplineSet
EndChar
StartChar: Z
Encoding: 90 90 57
Width: 617
Flags: HW
LayerCount: 2
Fore
SplineSet
-29 44 m 1
 31 118.666666667 83.3333333333 184.166666667 128 240.5 c 128
 172.666666667 296.833333333 213.833333333 349.666666667 251.5 399 c 128
 289.166666667 448.333333333 338 513 398 593 c 1
 316 594 l 2
 292 594 253.333333333 592.333333333 200 589 c 128
 146.666666667 585.666666667 110.666666667 584 92 584 c 1
 97.3333333333 596.666666667 101.333333333 609.333333333 104 622 c 128
 106.666666667 634.666666667 109.333333333 651 112 671 c 1
 140.666666667 671 187 670 251 668 c 128
 315 666 361.666666667 665 391 665 c 0
 419 665 461.666666667 666 519 668 c 128
 576.333333333 670 619.333333333 671 648 671 c 1
 644 635 l 1
 559.333333333 535.666666667 480.333333333 440.833333333 407 350.5 c 128
 333.666666667 260.166666667 264.333333333 170 199 80 c 1
 237 80 301.5 82.1666666667 392.5 86.5 c 128
 483.5 90.8333333333 545 93 577 93 c 1
 566.333333333 63.6666666667 561 32.6666666667 561 0 c 1
 527.666666667 0 478 1 412 3 c 128
 346 5 296.333333333 6 263 6 c 0
 230.333333333 6 181.333333333 5 116 3 c 128
 50.6666666667 1 1.33333333333 0 -32 0 c 1
 -29 44 l 1
EndSplineSet
EndChar
StartChar: bracketleft
Encoding: 91 91 58
Width: 321
Flags: HW
LayerCount: 2
Fore
SplineSet
153 671 m 1
 169.666666667 671 195.333333333 670.666666667 230 670 c 128
 264.666666667 669.333333333 290.666666667 669 308 669 c 2
 383 671 l 1
 381 666.333333333 378.833333333 659.166666667 376.5 649.5 c 128
 374.166666667 639.833333333 372 627.666666667 370 613 c 1
 345.333333333 615.666666667 328.166666667 617.166666667 318.5 617.5 c 128
 308.833333333 617.833333333 301 618 295 618 c 2
 259 616 l 1
 233.666666667 514 209.666666667 407.666666667 187 297 c 128
 164.333333333 186.333333333 141.333333333 65.6666666667 118 -65 c 1
 160 -67 l 2
 174 -67 185.5 -66.5 194.5 -65.5 c 128
 203.5 -64.5 213.666666667 -63.3333333333 225 -62 c 1
 213 -116 l 1
 107 -111 l 1
 -8 -116 l 1
 10.6666666667 -29.3333333333 28.1666666667 52.3333333333 44.5 129 c 128
 60.8333333333 205.666666667 78.8333333333 292.833333333 98.5 390.5 c 128
 118.166666667 488.166666667 136.333333333 581.666666667 153 671 c 1
EndSplineSet
EndChar
StartChar: backslash
Encoding: 92 92 61
Width: 277
Flags: W
LayerCount: 2
Fore
SplineSet
177 -89 m 1,0,-1
 44 739 l 1,1,-1
 99 739 l 1,2,-1
 233 -89 l 1,3,-1
 177 -89 l 1,0,-1
EndSplineSet
EndChar
StartChar: bracketright
Encoding: 93 93 62
Width: 321
Flags: W
LayerCount: 2
Fore
SplineSet
158 -115 m 1,0,-1
 44 -113 l 1,1,-1
 -72 -115 l 1,2,3
 -63 -86 -63 -86 -60 -57 c 1,4,5
 -44 -59 -44 -59 -23.5 -60 c 128,-1,6
 -3 -61 -3 -61 16 -61 c 2,7,-1
 51 -60 l 1,8,9
 88 88 88 88 124.5 266.5 c 128,-1,10
 161 445 161 445 192 620 c 1,11,-1
 150 622 l 2,12,13
 129 622 129 622 112.5 620 c 128,-1,14
 96 618 96 618 86 617 c 1,15,-1
 97 671 l 1,16,-1
 202 667 l 1,17,-1
 318 670 l 1,18,19
 270 460 270 460 229.5 262 c 128,-1,20
 189 64 189 64 158 -115 c 1,0,-1
EndSplineSet
EndChar
StartChar: asciicircum
Encoding: 94 94 61
Width: 283
Flags: HW
LayerCount: 2
Fore
SplineSet
289 544 m 1
 202 638 l 1
 73 544 l 1
 23 544 l 1
 172 722 l 1
 253 722 l 1
 330 544 l 1
 289 544 l 1
EndSplineSet
EndChar
StartChar: underscore
Encoding: 95 95 64
Width: 492
Flags: W
LayerCount: 2
Fore
SplineSet
492 -133 m 1,0,-1
 492 -232 l 1,1,-1
 0 -232 l 1,2,-1
 0 -133 l 1,3,-1
 492 -133 l 1,0,-1
EndSplineSet
EndChar
StartChar: grave
Encoding: 96 96 63
Width: 270
Flags: HW
LayerCount: 2
Fore
SplineSet
313 672 m 1
 201 432 l 2
 190.333333333 409.333333333 180 392 170 380 c 128
 160 368 146 361 128 359 c 1
 110.666666667 359 94.6666666667 364 80 374 c 128
 65.3333333333 384 58 397 58 413 c 0
 58 426.333333333 61.5 438.666666667 68.5 450 c 128
 75.5 461.333333333 86.3333333333 476 101 494 c 1
 292 689 l 1
 313 672 l 1
EndSplineSet
EndChar
StartChar: a
Encoding: 97 97 66
Width: 513
Flags: W
LayerCount: 2
Fore
SplineSet
125 -10 m 0,0,1
 67 -10 67 -10 30 23 c 128,-1,2
 -7 56 -7 56 -7 114 c 0,3,4
 -7 192 -7 192 44 230.5 c 128,-1,5
 95 269 95 269 175.5 278 c 128,-1,6
 256 287 256 287 279 295 c 128,-1,7
 302 303 302 303 302 352 c 0,8,9
 302 385 302 385 277 404 c 128,-1,10
 252 423 252 423 217 423 c 0,11,12
 142 423 142 423 97 364 c 1,13,-1
 86 362 l 1,14,15
 96 406 96 406 100 441 c 1,16,17
 146 464 146 464 190.5 477 c 128,-1,18
 235 490 235 490 280 490 c 0,19,20
 349 490 349 490 395.5 457.5 c 128,-1,21
 442 425 442 425 442 360 c 1,22,23
 439 323 439 323 432 296 c 2,24,-1
 403 166 l 2,25,26
 391 115 391 115 389 101 c 128,-1,27
 387 87 387 87 387 68 c 0,28,29
 387 56 387 56 397.5 47.5 c 128,-1,30
 408 39 408 39 422 39 c 1,31,32
 435 42 435 42 449 45 c 1,33,-1
 447 9 l 1,34,35
 403 -9 403 -9 356 -9 c 0,36,37
 278 -9 278 -9 255 62 c 1,38,39
 235 25 235 25 202 7.5 c 128,-1,40
 169 -10 169 -10 125 -10 c 0,0,1
136 127 m 1,41,42
 136 101 136 101 148 82.5 c 128,-1,43
 160 64 160 64 184 64 c 0,44,45
 223 64 223 64 237 89.5 c 128,-1,46
 251 115 251 115 277 236 c 1,47,48
 218 236 218 236 179.5 209.5 c 128,-1,49
 141 183 141 183 136 127 c 1,41,42
EndSplineSet
EndChar
StartChar: b
Encoding: 98 98 67
Width: 594
Flags: W
LayerCount: 2
Fore
SplineSet
138 739 m 1,0,1
 181 734 181 734 220 734 c 0,2,3
 258 734 258 734 301 739 c 1,4,5
 292 711 292 711 284.5 682.5 c 128,-1,6
 277 654 277 654 263 594 c 2,7,-1
 226 430 l 1,8,9
 256 460 256 460 290.5 477.5 c 128,-1,10
 325 495 325 495 366 495 c 0,11,12
 447 495 447 495 495 440 c 128,-1,13
 543 385 543 385 543 301 c 0,14,15
 543 178 543 178 467 83 c 128,-1,16
 391 -12 391 -12 271 -12 c 0,17,18
 172 -12 172 -12 113 62 c 1,19,20
 88 51 88 51 70.5 37.5 c 128,-1,21
 53 24 53 24 15 -9 c 1,22,-1
 -16 0 l 1,23,24
 38 203 38 203 75.5 377.5 c 128,-1,25
 113 552 113 552 138 739 c 1,0,1
174 139 m 0,26,27
 174 102 174 102 194 73.5 c 128,-1,28
 214 45 214 45 249 45 c 0,29,30
 322 45 322 45 356 139.5 c 128,-1,31
 390 234 390 234 390 323 c 0,32,33
 390 364 390 364 370.5 396.5 c 128,-1,34
 351 429 351 429 311 429 c 0,35,36
 259 429 259 429 235 383.5 c 128,-1,37
 211 338 211 338 192 262 c 1,38,39
 184 222 184 222 179 196 c 128,-1,40
 174 170 174 170 174 139 c 0,26,27
EndSplineSet
EndChar
StartChar: c
Encoding: 99 99 66
Width: 474
Flags: HW
LayerCount: 2
Fore
SplineSet
240 -10 m 0
 172 -10 115.5 7.5 70.5 42.5 c 128
 25.5 77.5 3 128 3 194 c 0
 3 277.333333333 33.1666666667 347.5 93.5 404.5 c 128
 153.833333333 461.5 225.666666667 490 309 490 c 0
 341 490 371 486.833333333 399 480.5 c 128
 427 474.166666667 453 463.666666667 477 449 c 1
 468.333333333 432.333333333 460 411.666666667 452 387 c 128
 444 362.333333333 436.666666667 339 430 317 c 1
 414 315 l 1
 415 336 l 1
 415 366.666666667 405.833333333 392.166666667 387.5 412.5 c 128
 369.166666667 432.833333333 344.666666667 443 314 443 c 0
 261.333333333 443 222.5 417.333333333 197.5 366 c 128
 172.5 314.666666667 160 259.333333333 160 200 c 0
 160 157.333333333 169.833333333 121.833333333 189.5 93.5 c 128
 209.166666667 65.1666666667 239.333333333 51 280 51 c 0
 298.666666667 51 317.166666667 54.5 335.5 61.5 c 128
 353.833333333 68.5 371.333333333 78.3333333333 388 91 c 1
 399 80 l 1
 363 9 l 1
 342.333333333 3 322 -1.66666666667 302 -5 c 128
 282 -8.33333333333 261.333333333 -10 240 -10 c 0
EndSplineSet
EndChar
StartChar: d
Encoding: 100 100 69
Width: 594
Flags: W
LayerCount: 2
Fore
SplineSet
340 66 m 1,0,1
 282 -12 282 -12 184 -12 c 0,2,3
 104 -12 104 -12 59.5 41.5 c 128,-1,4
 15 95 15 95 15 177 c 0,5,6
 15 293 15 293 80 391.5 c 128,-1,7
 145 490 145 490 256 490 c 0,8,9
 351 490 351 490 402 409 c 1,10,-1
 436 553 l 2,11,12
 457 646 457 646 472 739 c 1,13,14
 514 734 514 734 546 734 c 0,15,16
 587 734 587 734 630 739 c 1,17,18
 596 623 596 623 564 494.5 c 128,-1,19
 532 366 532 366 508.5 240.5 c 128,-1,20
 485 115 485 115 473 0 c 1,21,22
 457 0 457 0 432 2.5 c 128,-1,23
 407 5 407 5 402 5 c 0,24,25
 386 5 386 5 360.5 2.5 c 128,-1,26
 335 0 335 0 330 0 c 1,27,-1
 340 66 l 1,0,1
169 139 m 0,28,29
 169 103 169 103 188.5 79 c 128,-1,30
 208 55 208 55 243 55 c 0,31,32
 315 55 315 55 347 147.5 c 128,-1,33
 379 240 379 240 379 329 c 0,34,35
 379 365 379 365 361 390.5 c 128,-1,36
 343 416 343 416 307 416 c 0,37,38
 247 416 247 416 222.5 360 c 128,-1,39
 198 304 198 304 187.5 266 c 128,-1,40
 177 228 177 228 173 200.5 c 128,-1,41
 169 173 169 173 169 139 c 0,28,29
EndSplineSet
EndChar
StartChar: e
Encoding: 101 101 70
Width: 514
Flags: W
LayerCount: 2
Fore
SplineSet
243 -13 m 0,0,1
 142 -13 142 -13 72 43.5 c 128,-1,2
 2 100 2 100 2 198 c 0,3,4
 2 319 2 319 85 406 c 128,-1,5
 168 493 168 493 288 493 c 0,6,7
 376 493 376 493 428 446 c 128,-1,8
 480 399 480 399 480 310 c 0,9,10
 480 274 480 274 472 232 c 1,11,-1
 290 234 l 1,12,-1
 163 233 l 1,13,-1
 160 187 l 1,14,15
 160 125 160 125 197 90 c 128,-1,16
 234 55 234 55 298 55 c 0,17,18
 334 55 334 55 370 67.5 c 128,-1,19
 406 80 406 80 438 104 c 1,20,-1
 449 90 l 1,21,22
 426 56 426 56 412 23 c 1,23,24
 368 5 368 5 328 -4 c 128,-1,25
 288 -13 288 -13 243 -13 c 0,0,1
263 284 m 2,26,-1
 333 287 l 1,27,28
 337 304 337 304 340 327.5 c 128,-1,29
 343 351 343 351 343 370 c 0,30,31
 343 399 343 399 327.5 424 c 128,-1,32
 312 449 312 449 285 449 c 0,33,34
 236 449 236 449 210 400 c 128,-1,35
 184 351 184 351 172 287 c 1,36,37
 195 287 195 287 226.5 285.5 c 128,-1,38
 258 284 258 284 263 284 c 2,26,-1
EndSplineSet
EndChar
StartChar: f
Encoding: 102 102 71
Width: 323
Flags: W
LayerCount: 2
Fore
SplineSet
35 430 m 1,0,-1
 47 484 l 1,1,-1
 112 482 l 1,2,3
 134 583 134 583 198 661 c 128,-1,4
 262 739 262 739 356 739 c 0,5,6
 375 739 375 739 393 734.5 c 128,-1,7
 411 730 411 730 431 720 c 1,8,9
 406 661 406 661 387 594 c 1,10,-1
 374 596 l 1,11,12
 364 620 364 620 348 634.5 c 128,-1,13
 332 649 332 649 309 649 c 0,14,15
 278 649 278 649 266 621 c 128,-1,16
 254 593 254 593 254 558 c 1,17,-1
 258 482 l 1,18,-1
 353 484 l 1,19,20
 348 471 348 471 345.5 459 c 128,-1,21
 343 447 343 447 341 430 c 1,22,-1
 250 432 l 1,23,24
 220 311 220 311 200 211 c 128,-1,25
 180 111 180 111 166 0 c 1,26,27
 149 0 149 0 119 2.5 c 128,-1,28
 89 5 89 5 83 5 c 0,29,30
 68 5 68 5 38 2.5 c 128,-1,31
 8 0 8 0 0 0 c 1,32,33
 24 97 24 97 51 206.5 c 128,-1,34
 78 316 78 316 104 432 c 1,35,-1
 35 430 l 1,0,-1
EndSplineSet
EndChar
StartChar: g
Encoding: 103 103 70
Width: 509
Flags: HW
LayerCount: 2
Fore
SplineSet
78 27 m 1
 61.3333333333 32.3333333333 47.6666666667 41.3333333333 37 54 c 128
 26.3333333333 66.6666666667 21 81 21 97 c 0
 21 124.333333333 31.1666666667 145 51.5 159 c 128
 71.8333333333 173 97.3333333333 183 128 189 c 1
 128 197 l 1
 99.3333333333 207.666666667 76.3333333333 222.666666667 59 242 c 128
 41.6666666667 261.333333333 33 285 33 313 c 0
 33 367.666666667 54.1666666667 410.666666667 96.5 442 c 128
 138.833333333 473.333333333 188.333333333 489 245 489 c 0
 267 489 289.166666667 488.333333333 311.5 487 c 128
 333.833333333 485.666666667 360.666666667 484.333333333 392 483 c 1
 409.333333333 483 432.166666667 483.833333333 460.5 485.5 c 128
 488.833333333 487.166666667 505 488 509 488 c 1
 505 478 502 469 500 461 c 128
 498 453 496.333333333 443 495 431 c 1
 405 437 l 1
 437 411 453 378.666666667 453 340 c 0
 453 286 430 245 384 217 c 128
 338 189 286 175 228 175 c 2
 214 175 l 2
 206 175 193.333333333 176 176 178 c 1
 165.333333333 178 156 175 148 169 c 128
 140 163 136 154.666666667 136 144 c 0
 136 123.333333333 168.333333333 107.166666667 233 95.5 c 128
 297.666666667 83.8333333333 347.666666667 70.3333333333 383 55 c 128
 418.333333333 39.6666666667 436 6 436 -46 c 0
 436 -116 407 -170.833333333 349 -210.5 c 128
 291 -250.166666667 225.333333333 -270 152 -270 c 0
 95.3333333333 -270 44.5 -257.666666667 -0.5 -233 c 128
 -45.5 -208.333333333 -68 -169.666666667 -68 -117 c 0
 -68 -77.6666666667 -54.5 -47 -27.5 -25 c 128
 -0.5 -3 34.3333333333 12 77 20 c 1
 78 27 l 1
172 292 m 1
 172 271.333333333 176.166666667 254.166666667 184.5 240.5 c 128
 192.833333333 226.833333333 206.666666667 220 226 220 c 0
 257.333333333 220 279.666666667 237 293 271 c 128
 306.333333333 305 313 340 313 376 c 0
 313 396 308.5 413 299.5 427 c 128
 290.5 441 277 448 259 448 c 0
 235.666666667 448 218.833333333 439.5 208.5 422.5 c 128
 198.166666667 405.5 188.333333333 381.666666667 179 351 c 1
 176.333333333 331 174 311.333333333 172 292 c 1
33 -110 m 0
 33 -143.333333333 45.3333333333 -169.666666667 70 -189 c 128
 94.6666666667 -208.333333333 124.333333333 -218 159 -218 c 0
 197 -218 231.666666667 -208.166666667 263 -188.5 c 128
 294.333333333 -168.833333333 310 -140.666666667 310 -104 c 0
 310 -60 291.166666667 -32.3333333333 253.5 -21 c 128
 215.833333333 -9.66666666667 168 -4 110 -4 c 1
 86.6666666667 -14.6666666667 68 -28.8333333333 54 -46.5 c 128
 40 -64.1666666667 33 -85.3333333333 33 -110 c 0
EndSplineSet
EndChar
StartChar: h
Encoding: 104 104 73
Width: 583
Flags: W
LayerCount: 2
Fore
SplineSet
144 738 m 1,0,-1
 218 732 l 1,1,2
 236 732 236 732 258.5 734 c 128,-1,3
 281 736 281 736 300 738 c 1,4,-1
 265 596 l 1,5,-1
 228 418 l 1,6,7
 268 452 268 452 303.5 471 c 128,-1,8
 339 490 339 490 380 490 c 0,9,10
 444 490 444 490 486 461 c 128,-1,11
 528 432 528 432 528 370 c 0,12,13
 528 329 528 329 512.5 260.5 c 128,-1,14
 497 192 497 192 479.5 115.5 c 128,-1,15
 462 39 462 39 458 0 c 1,16,17
 445 0 445 0 413.5 2 c 128,-1,18
 382 4 382 4 381 4 c 0,19,20
 367 4 367 4 333 2 c 128,-1,21
 299 0 299 0 298 0 c 1,22,23
 332 127 332 127 353 215 c 128,-1,24
 374 303 374 303 374 351 c 0,25,26
 374 376 374 376 362 394 c 128,-1,27
 350 412 350 412 325 412 c 0,28,29
 309 412 309 412 296 404 c 1,30,31
 234 373 234 373 212 309 c 128,-1,32
 190 245 190 245 156 0 c 1,33,34
 139 0 139 0 110.5 2.5 c 128,-1,35
 82 5 82 5 76 5 c 0,36,37
 59 5 59 5 30 2.5 c 128,-1,38
 1 0 1 0 -5 0 c 1,39,40
 38 192 38 192 77 381 c 128,-1,41
 116 570 116 570 144 738 c 1,0,-1
EndSplineSet
EndChar
StartChar: i
Encoding: 105 105 72
Width: 283
Flags: HW
LayerCount: 2
Fore
SplineSet
93 480 m 1
 104.333333333 480 120 479.166666667 140 477.5 c 128
 160 475.833333333 172 475 176 475 c 0
 186.666666667 475 201.166666667 475.833333333 219.5 477.5 c 128
 237.833333333 479.166666667 249 480 253 480 c 1
 230.333333333 395.333333333 211.166666667 315.333333333 195.5 240 c 128
 179.833333333 164.666666667 165.666666667 84.6666666667 153 0 c 1
 145 0 131.166666667 0.666666666667 111.5 2 c 128
 91.8333333333 3.33333333333 81 4 79 4 c 0
 69 4 52.5 3.33333333333 29.5 2 c 128
 6.5 0.666666666667 -5.66666666667 0 -7 0 c 1
 13 84.6666666667 32 169 50 253 c 128
 68 337 82.3333333333 412.666666667 93 480 c 1
199 733 m 0
 219.666666667 733 238 725.333333333 254 710 c 128
 270 694.666666667 278 676.333333333 278 655 c 256
 278 633.666666667 270.333333333 615.666666667 255 601 c 128
 239.666666667 586.333333333 221.333333333 579 200 579 c 256
 178.666666667 579 160.5 586.5 145.5 601.5 c 128
 130.5 616.5 123 634.666666667 123 656 c 0
 123 676.666666667 130.333333333 694.666666667 145 710 c 128
 159.666666667 725.333333333 177.666666667 733 199 733 c 0
EndSplineSet
EndChar
StartChar: j
Encoding: 106 106 73
Width: 284
Flags: HW
LayerCount: 2
Fore
SplineSet
192 733 m 256
 214.666666667 733 234 725.333333333 250 710 c 128
 266 694.666666667 274 676 274 654 c 256
 274 632 266.166666667 613.166666667 250.5 597.5 c 128
 234.833333333 581.833333333 216 574 194 574 c 256
 172 574 153.166666667 581.5 137.5 596.5 c 128
 121.833333333 611.5 114 630.333333333 114 653 c 256
 114 675.666666667 121.333333333 694.666666667 136 710 c 128
 150.666666667 725.333333333 169.333333333 733 192 733 c 256
-136 -221 m 1
 -90.6666666667 -221 -60.6666666667 -211.5 -46 -192.5 c 128
 -31.3333333333 -173.5 -20.5 -145.666666667 -13.5 -109 c 128
 -6.5 -72.3333333333 5.5 -10 22.5 78 c 128
 39.5 166 53.6666666667 241.666666667 65 305 c 128
 76.3333333333 368.333333333 85.3333333333 426.666666667 92 480 c 1
 104.666666667 480 120.333333333 479.166666667 139 477.5 c 128
 157.666666667 475.833333333 168 475 170 475 c 0
 182.666666667 475 198.333333333 475.833333333 217 477.5 c 128
 235.666666667 479.166666667 246.333333333 480 249 480 c 1
 235.666666667 427.333333333 223 373.333333333 211 318 c 128
 199 262.666666667 187.333333333 204.333333333 176 143 c 2
 152 15 l 1
 134 -87 108 -159.5 74 -202.5 c 128
 40 -245.5 -24.3333333333 -267 -119 -267 c 1
 -136 -221 l 1
EndSplineSet
EndChar
StartChar: k
Encoding: 107 107 74
Width: 534
Flags: HW
LayerCount: 2
Fore
SplineSet
140 738 m 1
 168 734.666666667 194.666666667 733 220 733 c 256
 245.333333333 733 273.666666667 734.666666667 305 738 c 1
 287 674.666666667 271 612.333333333 257 551 c 2
 198 280 l 1
 216 275 l 1
 323 364 l 2
 346.333333333 383.333333333 365.166666667 400 379.5 414 c 128
 393.833333333 428 415 450 443 480 c 1
 453.666666667 478.666666667 464.833333333 477.333333333 476.5 476 c 128
 488.166666667 474.666666667 498.666666667 474 508 474 c 0
 516.666666667 474 526.833333333 474.666666667 538.5 476 c 128
 550.166666667 477.333333333 560.666666667 478.666666667 570 480 c 1
 576 473 l 1
 534 445 494.666666667 416.833333333 458 388.5 c 128
 421.333333333 360.166666667 382 327.333333333 340 290 c 1
 378.666666667 191.333333333 422 94.6666666667 470 0 c 1
 457.333333333 0 439.333333333 0.833333333333 416 2.5 c 128
 392.666666667 4.16666666667 379.333333333 5 376 5 c 0
 363.333333333 5 346.833333333 4.16666666667 326.5 2.5 c 128
 306.166666667 0.833333333333 294.333333333 0 291 0 c 1
 281 36 270.333333333 70.3333333333 259 103 c 128
 247.666666667 135.666666667 232.666666667 175 214 221 c 1
 187 221 l 1
 170 136 170 136 163.5 103.5 c 128
 159.166666667 81.8333333333 153.333333333 47.3333333333 146 0 c 1
 134 0 118.666666667 0.833333333333 100 2.5 c 128
 81.3333333333 4.16666666667 70.3333333333 5 67 5 c 0
 55.6666666667 5 40.8333333333 4.16666666667 22.5 2.5 c 128
 4.16666666667 0.833333333333 -6.66666666667 0 -10 0 c 1
 20 100 48.8333333333 219.166666667 76.5 357.5 c 128
 104.166666667 495.833333333 125.333333333 622.666666667 140 738 c 1
EndSplineSet
EndChar
StartChar: l
Encoding: 108 108 75
Width: 282
Flags: HW
LayerCount: 2
Fore
SplineSet
139 738 m 1
 167 734.666666667 195 733 223 733 c 0
 233 733 242.5 733.166666667 251.5 733.5 c 128
 260.5 733.833333333 277.333333333 735.333333333 302 738 c 1
 270 614.666666667 241.166666667 490 215.5 364 c 128
 189.833333333 238 168.666666667 116.666666667 152 0 c 1
 139.333333333 0 123.666666667 0.833333333333 105 2.5 c 128
 86.3333333333 4.16666666667 75.6666666667 5 73 5 c 0
 61 5 45.6666666667 4.16666666667 27 2.5 c 128
 8.33333333333 0.833333333333 -2.66666666667 0 -6 0 c 1
 24 112.666666667 53.1666666667 239.333333333 81.5 380 c 128
 109.833333333 520.666666667 129 640 139 738 c 1
EndSplineSet
EndChar
StartChar: m
Encoding: 109 109 78
Width: 869
Flags: W
LayerCount: 2
Fore
SplineSet
91 480 m 1,0,1
 103 480 103 480 127 478 c 128,-1,2
 151 476 151 476 163 476 c 0,3,4
 177 476 177 476 209 478 c 128,-1,5
 241 480 241 480 242 480 c 1,6,7
 234 456 234 456 231.5 447 c 128,-1,8
 229 438 229 438 225 418 c 1,9,10
 260 450 260 450 303.5 470 c 128,-1,11
 347 490 347 490 393 490 c 0,12,13
 442 490 442 490 476 470 c 128,-1,14
 510 450 510 450 517 405 c 1,15,16
 546 442 546 442 585 466 c 128,-1,17
 624 490 624 490 666 490 c 0,18,19
 730 490 730 490 772 462.5 c 128,-1,20
 814 435 814 435 814 374 c 0,21,22
 814 303 814 303 782 173.5 c 128,-1,23
 750 44 750 44 744 0 c 1,24,25
 725 0 725 0 697 2.5 c 128,-1,26
 669 5 669 5 664 5 c 0,27,28
 647 5 647 5 618 2.5 c 128,-1,29
 589 0 589 0 583 0 c 1,30,31
 635 189 635 189 648.5 250.5 c 128,-1,32
 662 312 662 312 662 354 c 1,33,-1
 661 373 l 1,34,35
 651 412 651 412 610 412 c 0,36,37
 549 412 549 412 522.5 352 c 128,-1,38
 496 292 496 292 479 201 c 1,39,-1
 444 0 l 1,40,41
 432 0 432 0 408 2 c 128,-1,42
 384 4 384 4 371 4 c 0,43,44
 356 4 356 4 323.5 2 c 128,-1,45
 291 0 291 0 289 0 c 1,46,47
 328 133 328 133 347 208.5 c 128,-1,48
 366 284 366 284 366 355 c 0,49,50
 366 379 366 379 356 395.5 c 128,-1,51
 346 412 346 412 323 412 c 0,52,53
 230 412 230 412 207 320.5 c 128,-1,54
 184 229 184 229 151 0 c 1,55,56
 132 0 132 0 104 2.5 c 128,-1,57
 76 5 76 5 71 5 c 0,58,59
 54 5 54 5 25 2.5 c 128,-1,60
 -4 0 -4 0 -10 0 c 1,61,62
 19 117 19 117 42 228.5 c 128,-1,63
 65 340 65 340 91 480 c 1,0,1
EndSplineSet
EndChar
StartChar: n
Encoding: 110 110 77
Width: 583
Flags: HW
LayerCount: 2
Fore
SplineSet
91 480 m 1
 99 480 111 479.333333333 127 478 c 128
 143 476.666666667 155 476 163 476 c 0
 172.333333333 476 187.666666667 476.666666667 209 478 c 128
 230.333333333 479.333333333 241.333333333 480 242 480 c 1
 236.666666667 464 233.166666667 453 231.5 447 c 128
 229.833333333 441 227.666666667 431.333333333 225 418 c 1
 249 440.666666667 275.666666667 458.333333333 305 471 c 128
 334.333333333 483.666666667 364.333333333 490 395 490 c 0
 434.333333333 490 466.333333333 480.166666667 491 460.5 c 128
 515.666666667 440.833333333 528 412 528 374 c 0
 528 365.333333333 527.666666667 357.833333333 527 351.5 c 128
 526.333333333 345.166666667 524 331.666666667 520 311 c 1
 487 173 l 2
 485 164.333333333 480.5 142.333333333 473.5 107 c 128
 466.5 71.6666666667 460.666666667 36 456 0 c 1
 447.333333333 0 434.666666667 0.666666666667 418 2 c 128
 401.333333333 3.33333333333 388.666666667 4 380 4 c 0
 370.666666667 4 354.666666667 3.33333333333 332 2 c 128
 309.333333333 0.666666666667 297 0 295 0 c 1
 312.333333333 60.6666666667 329.666666667 126.833333333 347 198.5 c 128
 364.333333333 270.166666667 373 321 373 351 c 0
 373 368.333333333 368.666666667 382.833333333 360 394.5 c 128
 351.333333333 406.166666667 338.333333333 412 321 412 c 0
 311 412 289 403.333333333 255 386 c 128
 221 368.666666667 197 313.666666667 183 221 c 128
 169 128.333333333 158.333333333 54.6666666667 151 0 c 1
 138.333333333 0 122.666666667 0.833333333333 104 2.5 c 128
 85.3333333333 4.16666666667 74.3333333333 5 71 5 c 0
 59.6666666667 5 44.3333333333 4.16666666667 25 2.5 c 128
 5.66666666667 0.833333333333 -6 0 -10 0 c 1
 9.33333333333 78 26.6666666667 154.166666667 42 228.5 c 128
 57.3333333333 302.833333333 73.6666666667 386.666666667 91 480 c 1
EndSplineSet
EndChar
StartChar: p
Encoding: 112 112 79
Width: 596
Flags: HW
LayerCount: 2
Fore
SplineSet
215 413 m 1
 237 437 259.666666667 455.833333333 283 469.5 c 128
 306.333333333 483.166666667 331.333333333 490 358 490 c 0
 416 490 461.333333333 473.666666667 494 441 c 128
 526.666666667 408.333333333 543 362.666666667 543 304 c 0
 543 226.666666667 521 155 477 89 c 128
 433 23 374.333333333 -10 301 -10 c 0
 236.333333333 -10 188.666666667 17.6666666667 158 73 c 1
 143.333333333 17 128.333333333 -42 113 -104 c 128
 97.6666666667 -166 90 -221.333333333 90 -270 c 1
 66 -266 41.6666666667 -264 17 -264 c 0
 -11.6666666667 -264 -41 -266 -71 -270 c 1
 -37.6666666667 -140.666666667 -8.16666666667 -15.3333333333 17.5 106 c 128
 43.1666666667 227.333333333 66 352 86 480 c 1
 102.666666667 478 117.833333333 476.333333333 131.5 475 c 128
 145.166666667 473.666666667 155.666666667 473 163 473 c 0
 171.666666667 473 182 473.666666667 194 475 c 128
 206 476.333333333 217.333333333 477.666666667 228 479 c 1
 215 413 l 1
390 340 m 0
 390 362.666666667 383.833333333 383.333333333 371.5 402 c 128
 359.166666667 420.666666667 342 430 320 430 c 0
 274 430 239.666666667 399.333333333 217 338 c 128
 194.333333333 276.666666667 183 216.666666667 183 158 c 0
 183 134 189.166666667 112.666666667 201.5 94 c 128
 213.833333333 75.3333333333 231 66 253 66 c 0
 285.666666667 66 310.333333333 80.1666666667 327 108.5 c 128
 343.666666667 136.833333333 358.333333333 174 371 220 c 1
 381 263.333333333 386.666666667 289.166666667 388 297.5 c 128
 389.333333333 305.833333333 390 320 390 340 c 0
EndSplineSet
EndChar
StartChar: q
Encoding: 113 113 82
Width: 598
Flags: W
LayerCount: 2
Fore
SplineSet
304 -65 m 2,0,-1
 332 55 l 1,1,2
 307 22 307 22 266.5 4.5 c 128,-1,3
 226 -13 226 -13 181 -13 c 0,4,5
 103 -13 103 -13 57 41 c 128,-1,6
 11 95 11 95 11 174 c 0,7,8
 11 291 11 291 77.5 389.5 c 128,-1,9
 144 488 144 488 255 488 c 0,10,11
 301 488 301 488 341 468 c 128,-1,12
 381 448 381 448 409 412 c 1,13,14
 411 420 411 420 415 445 c 128,-1,15
 419 470 419 470 420 480 c 1,16,17
 446 477 446 477 467 475 c 128,-1,18
 488 473 488 473 501 473 c 0,19,20
 519 473 519 473 541.5 476 c 128,-1,21
 564 479 564 479 576 480 c 1,22,23
 535 348 535 348 485 108.5 c 128,-1,24
 435 -131 435 -131 418 -269 c 1,25,26
 397 -266 397 -266 376.5 -264 c 128,-1,27
 356 -262 356 -262 335 -262 c 0,28,29
 317 -262 317 -262 296.5 -263.5 c 128,-1,30
 276 -265 276 -265 251 -269 c 1,31,32
 262 -232 262 -232 277 -174 c 128,-1,33
 292 -116 292 -116 304 -65 c 2,0,-1
170 145 m 0,34,35
 170 112 170 112 190 88 c 128,-1,36
 210 64 210 64 244 64 c 0,37,38
 322 64 322 64 351.5 154 c 128,-1,39
 381 244 381 244 381 342 c 0,40,41
 381 376 381 376 361 401.5 c 128,-1,42
 341 427 341 427 307 427 c 0,43,44
 265 427 265 427 237 393 c 128,-1,45
 209 359 209 359 193 295 c 128,-1,46
 177 231 177 231 173.5 203.5 c 128,-1,47
 170 176 170 176 170 145 c 0,34,35
EndSplineSet
EndChar
StartChar: r
Encoding: 114 114 83
Width: 421
Flags: W
LayerCount: 2
Fore
SplineSet
90 480 m 1,0,1
 105 480 105 480 134 477.5 c 128,-1,2
 163 475 163 475 167 475 c 0,3,4
 187 475 187 475 210 477 c 1,5,6
 228 480 228 480 236 480 c 1,7,8
 228 455 228 455 221.5 432 c 128,-1,9
 215 409 215 409 206 374 c 1,10,-1
 217 374 l 1,11,12
 257 441 257 441 292 465 c 128,-1,13
 327 489 327 489 365 489 c 0,14,15
 379 489 379 489 387 488 c 128,-1,16
 395 487 395 487 413 484 c 1,17,18
 402 449 402 449 395 411.5 c 128,-1,19
 388 374 388 374 388 338 c 1,20,21
 352 351 352 351 320 351 c 0,22,23
 197 351 197 351 168 162 c 1,24,25
 157 42 157 42 153 0 c 1,26,27
 134 0 134 0 106.5 2.5 c 128,-1,28
 79 5 79 5 74 5 c 0,29,30
 57 5 57 5 27 2.5 c 128,-1,31
 -3 0 -3 0 -9 0 c 1,32,33
 20 130 20 130 45 249.5 c 128,-1,34
 70 369 70 369 90 480 c 1,0,1
EndSplineSet
EndChar
StartChar: s
Encoding: 115 115 84
Width: 418
Flags: W
LayerCount: 2
Fore
SplineSet
9 166 m 1,0,-1
 22 164 l 1,1,2
 38 109 38 109 68.5 74 c 128,-1,3
 99 39 99 39 151 39 c 0,4,5
 179 39 179 39 200 54.5 c 128,-1,6
 221 70 221 70 221 97 c 0,7,8
 221 142 221 142 130 200 c 128,-1,9
 39 258 39 258 39 325 c 0,10,11
 39 398 39 398 94.5 444 c 128,-1,12
 150 490 150 490 225 490 c 0,13,14
 272 490 272 490 322.5 473.5 c 128,-1,15
 373 457 373 457 395 427 c 1,16,17
 381 405 381 405 368.5 377 c 128,-1,18
 356 349 356 349 346 320 c 1,19,-1
 333 325 l 1,20,21
 333 372 333 372 301 407 c 128,-1,22
 269 442 269 442 221 442 c 0,23,24
 194 442 194 442 173 427.5 c 128,-1,25
 152 413 152 413 152 388 c 0,26,27
 152 350 152 350 252 291 c 128,-1,28
 352 232 352 232 352 159 c 0,29,30
 352 80 352 80 292.5 35 c 128,-1,31
 233 -10 233 -10 150 -10 c 0,32,33
 101 -10 101 -10 54.5 4.5 c 128,-1,34
 8 19 8 19 -29 48 c 1,35,36
 -19 71 -19 71 -9 102.5 c 128,-1,37
 1 134 1 134 9 166 c 1,0,-1
EndSplineSet
EndChar
StartChar: t
Encoding: 116 116 85
Width: 318
Flags: W
LayerCount: 2
Fore
SplineSet
69 427 m 2,0,1
 56 427 56 427 43 427 c 1,2,3
 32 424 32 424 25 424 c 1,4,5
 36 450 36 450 36 483 c 1,6,7
 56 479 56 479 83 479 c 1,8,-1
 106 480 l 1,9,-1
 124 605 l 1,10,11
 164 614 164 614 197 626 c 128,-1,12
 230 638 230 638 279 660 c 1,13,-1
 290 647 l 1,14,15
 266 554 266 554 263.5 543 c 128,-1,16
 261 532 261 532 251 480 c 1,17,-1
 284 479 l 1,18,-1
 343 482 l 1,19,20
 338 469 338 469 335 453 c 128,-1,21
 332 437 332 437 332 421 c 1,22,23
 297 424 297 424 263 424 c 2,24,-1
 240 424 l 1,25,26
 195 236 195 236 184.5 184 c 128,-1,27
 174 132 174 132 174 91 c 0,28,29
 174 67 174 67 190.5 56 c 128,-1,30
 207 45 207 45 234 45 c 0,31,32
 248 45 248 45 257 46.5 c 128,-1,33
 266 48 266 48 277 50 c 1,34,-1
 263 9 l 1,35,36
 213 -10 213 -10 153 -10 c 0,37,38
 98 -10 98 -10 62.5 19 c 128,-1,39
 27 48 27 48 27 103 c 0,40,41
 27 167 27 167 48.5 256 c 128,-1,42
 70 345 70 345 91 426 c 1,43,-1
 69 427 l 2,0,1
EndSplineSet
EndChar
StartChar: u
Encoding: 117 117 84
Width: 583
Flags: HW
LayerCount: 2
Fore
SplineSet
453 -1 m 1
 431 1 417.166666667 2.16666666667 411.5 2.5 c 128
 405.833333333 2.83333333333 395.666666667 3 381 3 c 0
 372.333333333 3 357.5 2.33333333333 336.5 1 c 128
 315.5 -0.333333333333 304 -1 302 -1 c 1
 310.666666667 20.3333333333 316.333333333 41 319 61 c 1
 296.333333333 38.3333333333 270.5 20.8333333333 241.5 8.5 c 128
 212.5 -3.83333333333 181.666666667 -10 149 -10 c 0
 110.333333333 -10 78.8333333333 -0.166666666667 54.5 19.5 c 128
 30.1666666667 39.1666666667 18 68 18 106 c 0
 18 118.666666667 18.5 128.5 19.5 135.5 c 128
 20.5 142.5 24.3333333333 163 31 197 c 1
 56 307 l 1
 62 330.333333333 67.8333333333 358.666666667 73.5 392 c 128
 79.1666666667 425.333333333 83.6666666667 455.333333333 87 482 c 1
 110.333333333 479.333333333 136.333333333 478 165 478 c 0
 196.333333333 478 225 479.333333333 251 482 c 1
 228.333333333 401.333333333 209.5 330.5 194.5 269.5 c 128
 179.5 208.5 172 161.666666667 172 129 c 0
 172 110.333333333 176.166666667 95.3333333333 184.5 84 c 128
 192.833333333 72.6666666667 206 67 224 67 c 0
 234 67 252.166666667 74 278.5 88 c 128
 304.833333333 102 325 131.5 339 176.5 c 128
 353 221.5 364.666666667 283 374 361 c 1
 394 482 l 1
 402.666666667 482 416 481.333333333 434 480 c 128
 452 478.666666667 465.333333333 478 474 478 c 0
 484 478 499.833333333 478.666666667 521.5 480 c 128
 543.166666667 481.333333333 554.666666667 482 556 482 c 1
 536.666666667 406 518.5 328.166666667 501.5 248.5 c 128
 484.5 168.833333333 468.333333333 85.6666666667 453 -1 c 1
EndSplineSet
EndChar
StartChar: v
Encoding: 118 118 87
Width: 471
Flags: W
LayerCount: 2
Fore
SplineSet
152 3 m 1,0,-1
 87 0 l 1,1,2
 66 223 66 223 15 480 c 1,3,4
 43 477 43 477 59.5 475.5 c 128,-1,5
 76 474 76 474 94 474 c 0,6,7
 113 474 113 474 135 476 c 128,-1,8
 157 478 157 478 179 480 c 1,9,10
 179 404 179 404 186.5 349 c 128,-1,11
 194 294 194 294 220 143 c 1,12,-1
 302 293 l 2,13,14
 322 329 322 329 345 377.5 c 128,-1,15
 368 426 368 426 393 480 c 1,16,-1
 444 476 l 1,17,-1
 499 480 l 1,18,19
 446 398 446 398 395.5 314.5 c 128,-1,20
 345 231 345 231 304.5 157 c 128,-1,21
 264 83 264 83 226 0 c 1,22,-1
 152 3 l 1,0,-1
EndSplineSet
EndChar
StartChar: w
Encoding: 119 119 86
Width: 735
Flags: HW
LayerCount: 2
Fore
SplineSet
16 480 m 1
 100 476 l 1
 178 480 l 1
 178 430 179.5 383.666666667 182.5 341 c 128
 185.5 298.333333333 191 239.666666667 199 165 c 1
 252.333333333 264.333333333 304.666666667 369.333333333 356 480 c 1
 421 476 l 1
 482 480 l 1
 492 275 l 1
 500 164 l 1
 590 334 l 2
 603.333333333 358 614 377.833333333 622 393.5 c 128
 630 409.166666667 643.666666667 438 663 480 c 1
 720 476 l 1
 775 480 l 1
 719 402.666666667 667 324 619 244 c 128
 571 164 527.333333333 82.6666666667 488 0 c 1
 428 4 l 1
 369 0 l 1
 369 50 368 91.1666666667 366 123.5 c 128
 364 155.833333333 359 214.666666667 351 300 c 1
 324.333333333 256 297.5 208.833333333 270.5 158.5 c 128
 243.5 108.166666667 216.666666667 55.3333333333 190 0 c 1
 143 3 l 1
 59 0 l 1
 59 76.6666666667 55.3333333333 153.5 48 230.5 c 128
 40.6666666667 307.5 30 390.666666667 16 480 c 1
EndSplineSet
EndChar
StartChar: x
Encoding: 120 120 87
Width: 454
Flags: HW
LayerCount: 2
Fore
SplineSet
-13 3 m 1
 -25 3 -37.6666666667 2.5 -51 1.5 c 128
 -64.3333333333 0.5 -72.6666666667 0 -76 0 c 1
 -38.6666666667 36 -3 72.6666666667 31 110 c 1
 144 229 l 1
 108.666666667 320.333333333 74 404 40 480 c 1
 53.3333333333 478.666666667 67.5 477.333333333 82.5 476 c 128
 97.5 474.666666667 111 474 123 474 c 0
 134.333333333 474 148 474.666666667 164 476 c 128
 180 477.333333333 194 478.666666667 206 480 c 1
 252 349 l 1
 255.333333333 353 270.166666667 370.666666667 296.5 402 c 128
 322.833333333 433.333333333 342.666666667 459.333333333 356 480 c 1
 409 474 l 1
 417 474 426.833333333 474.666666667 438.5 476 c 128
 450.166666667 477.333333333 460.333333333 478.666666667 469 480 c 1
 384 394 l 1
 278 279 l 1
 327 151 l 1
 388 0 l 1
 378 0 364 1 346 3 c 128
 328 5 313.666666667 6 303 6 c 0
 293 6 278 5 258 3 c 128
 238 1 223 0 213 0 c 1
 167 155 l 1
 148.333333333 133.666666667 127.5 109.333333333 104.5 82 c 128
 81.5 54.6666666667 59.6666666667 27.3333333333 39 0 c 1
 -13 3 l 1
EndSplineSet
EndChar
StartChar: y
Encoding: 121 121 88
Width: 434
Flags: HW
LayerCount: 2
Fore
SplineSet
-22 -262 m 0
 -31.3333333333 -262 -41 -262.5 -51 -263.5 c 128
 -61 -264.5 -75 -266.333333333 -93 -269 c 1
 -67 -239.666666667 -45.8333333333 -214.333333333 -29.5 -193 c 128
 -13.1666666667 -171.666666667 4 -146.333333333 22 -117 c 2
 89 -8 l 1
 80.3333333333 71.3333333333 73.1666666667 132.166666667 67.5 174.5 c 128
 61.8333333333 216.833333333 55 261.333333333 47 308 c 128
 39 354.666666667 27.3333333333 412 12 480 c 1
 93 474 l 1
 105.666666667 474 120.333333333 474.666666667 137 476 c 128
 153.666666667 477.333333333 169 478.666666667 183 480 c 1
 183 433.333333333 185.333333333 388.666666667 190 346 c 128
 194.666666667 303.333333333 201.666666667 251.333333333 211 190 c 1
 282 309 l 2
 296 333 308.833333333 356.666666667 320.5 380 c 128
 332.166666667 403.333333333 348 436.666666667 368 480 c 1
 413 474 l 1
 421 474 430.833333333 474.666666667 442.5 476 c 128
 454.166666667 477.333333333 464.333333333 478.666666667 473 480 c 1
 391 352 330.5 257.166666667 291.5 195.5 c 128
 252.5 133.833333333 209.166666667 61.6666666667 161.5 -21 c 128
 113.833333333 -103.666666667 70 -186.333333333 30 -269 c 1
 20.6666666667 -267 11.8333333333 -265.333333333 3.5 -264 c 128
 -4.83333333333 -262.666666667 -13.3333333333 -262 -22 -262 c 0
EndSplineSet
EndChar
StartChar: z
Encoding: 122 122 91
Width: 482
Flags: W
LayerCount: 2
Fore
SplineSet
191 7 m 0,0,1
 164 7 164 7 87.5 3.5 c 128,-1,2
 11 0 11 0 -27 0 c 1,3,-1
 -27 50 l 1,4,5
 48 134 48 134 94 188 c 128,-1,6
 140 242 140 242 176.5 286.5 c 128,-1,7
 213 331 213 331 275 414 c 1,8,9
 171 414 171 414 67 402 c 1,10,-1
 79 480 l 1,11,12
 112 480 112 480 179 477 c 128,-1,13
 246 474 246 474 280 474 c 0,14,15
 313 474 313 474 380 477 c 128,-1,16
 447 480 447 480 481 480 c 1,17,-1
 481 424 l 1,18,19
 401 342 401 342 323 252.5 c 128,-1,20
 245 163 245 163 170 67 c 1,21,-1
 436 82 l 1,22,23
 430 54 430 54 427.5 38 c 128,-1,24
 425 22 425 22 425 0 c 1,25,26
 399 0 399 0 314.5 3.5 c 128,-1,27
 230 7 230 7 191 7 c 0,0,1
EndSplineSet
EndChar
StartChar: braceleft
Encoding: 123 123 90
Width: 492
Flags: HW
LayerCount: 2
Fore
SplineSet
424 608 m 1
 389 608 l 2
 377.666666667 608 366.833333333 606.166666667 356.5 602.5 c 128
 346.166666667 598.833333333 338.5 594 333.5 588 c 128
 328.5 582 325 576.333333333 323 571 c 128
 321 565.666666667 319.333333333 556.333333333 318 543 c 1
 318 513 l 1
 318 398 l 2
 318 356 311.666666667 325 299 305 c 128
 286.333333333 285 260 268.333333333 220 255 c 1
 258 246.333333333 283.833333333 230.5 297.5 207.5 c 128
 311.166666667 184.5 318 152.333333333 318 111 c 2
 318 -4 l 2
 318 -37.3333333333 323.666666667 -61.5 335 -76.5 c 128
 346.333333333 -91.5 368 -99 400 -99 c 2
 424 -99 l 1
 424 -199 l 1
 347 -198 l 1
 306.333333333 -194.666666667 273.166666667 -184.833333333 247.5 -168.5 c 128
 221.833333333 -152.166666667 206.666666667 -125.333333333 202 -88 c 1
 202 -35 l 1
 202 85 l 2
 202 121.666666667 193.833333333 150.666666667 177.5 172 c 128
 161.166666667 193.333333333 135.333333333 204 100 204 c 2
 75 204 l 1
 75 305 l 1
 121 305 153.666666667 313.666666667 173 331 c 128
 192.333333333 348.333333333 202 379.666666667 202 425 c 2
 202 546 l 1
 202 599 l 1
 208 641 226.166666667 669.666666667 256.5 685 c 128
 286.833333333 700.333333333 325.666666667 708 373 708 c 2
 424 708 l 1
 424 608 l 1
EndSplineSet
EndChar
StartChar: bar
Encoding: 124 124 221
Width: 492
Flags: HW
LayerCount: 2
Fore
SplineSet
196 688 m 1
 297 688 l 1
 297 -168 l 1
 196 -168 l 1
 196 688 l 1
EndSplineSet
EndChar
StartChar: braceright
Encoding: 125 125 94
Width: 492
Flags: W
LayerCount: 2
Fore
SplineSet
90 708 m 2,0,1
 175 708 175 708 231.5 688 c 128,-1,2
 288 668 288 668 288 599 c 1,3,-1
 290 546 l 1,4,-1
 290 425 l 2,5,6
 290 384 290 384 302 353.5 c 128,-1,7
 314 323 314 323 346 311 c 1,8,9
 360 308 360 308 378 306.5 c 128,-1,10
 396 305 396 305 417 305 c 1,11,-1
 417 204 l 1,12,13
 347 204 347 204 318.5 180 c 128,-1,14
 290 156 290 156 290 85 c 2,15,-1
 290 -35 l 2,16,17
 290 -106 290 -106 268.5 -146.5 c 128,-1,18
 247 -187 247 -187 204.5 -192 c 128,-1,19
 162 -197 162 -197 129 -198 c 128,-1,20
 96 -199 96 -199 67 -199 c 1,21,-1
 67 -99 l 1,22,23
 117 -99 117 -99 145 -86.5 c 128,-1,24
 173 -74 173 -74 173 -30 c 2,25,-1
 173 -3 l 1,26,-1
 173 111 l 2,27,28
 173 174 173 174 194 205.5 c 128,-1,29
 215 237 215 237 274 255 c 1,30,31
 214 273 214 273 193.5 303.5 c 128,-1,32
 173 334 173 334 173 398 c 2,33,-1
 173 513 l 2,34,35
 173 566 173 566 157.5 587 c 128,-1,36
 142 608 142 608 91 608 c 2,37,-1
 67 608 l 1,38,-1
 67 708 l 1,39,-1
 90 708 l 2,0,1
EndSplineSet
EndChar
StartChar: asciitilde
Encoding: 126 126 93
Width: 983
Flags: HW
LayerCount: 2
Fore
SplineSet
786 676 m 1
 786 612.666666667 772.166666667 560.333333333 744.5 519 c 128
 716.833333333 477.666666667 672.333333333 457 611 457 c 0
 567.666666667 457 522.5 477.166666667 475.5 517.5 c 128
 428.5 557.833333333 394.333333333 578 373 578 c 0
 341.666666667 578 320 566.666666667 308 544 c 128
 296 521.333333333 290 492.333333333 290 457 c 1
 193 457 l 1
 193 518.333333333 207.333333333 569.833333333 236 611.5 c 128
 264.666666667 653.166666667 308.333333333 674 367 674 c 0
 409.666666667 674 454.333333333 653.666666667 501 613 c 128
 547.666666667 572.333333333 584 552 610 552 c 0
 640.666666667 552 661.5 563.833333333 672.5 587.5 c 128
 683.5 611.166666667 689 640.666666667 689 676 c 1
 786 676 l 1
EndSplineSet
EndChar
StartChar: iacute
Encoding: 163 163 108
Width: 539
Flags: HW
LayerCount: 2
Fore
SplineSet
111 193 m 0
 115.666666667 210.333333333 118.833333333 228.833333333 120.5 248.5 c 128
 122.166666667 268.166666667 123 290.333333333 123 315 c 1
 113.666666667 315 98.1666666667 314.333333333 76.5 313 c 128
 54.8333333333 311.666666667 43.6666666667 311 43 311 c 1
 49 331 53 351.666666667 55 373 c 1
 63 373 74.6666666667 372.666666667 90 372 c 128
 105.333333333 371.333333333 116.666666667 371 124 371 c 1
 134.666666667 459.666666667 160.166666667 529.333333333 200.5 580 c 128
 240.833333333 630.666666667 303 656 387 656 c 0
 419 656 448.166666667 653 474.5 647 c 128
 500.833333333 641 525.333333333 630.333333333 548 615 c 1
 530 572.333333333 515 529.333333333 503 486 c 1
 484 489 l 1
 484 522.333333333 476.333333333 550.166666667 461 572.5 c 128
 445.666666667 594.833333333 422 606 390 606 c 0
 340 606 307.833333333 583 293.5 537 c 128
 279.166666667 491 272 435.666666667 272 371 c 1
 286.666666667 371 314.666666667 372 356 374 c 128
 397.333333333 376 426.333333333 377 443 377 c 1
 438.333333333 366.333333333 434.833333333 355.166666667 432.5 343.5 c 128
 430.166666667 331.833333333 429 319 429 305 c 1
 376.333333333 311.666666667 322.333333333 315 267 315 c 1
 261.666666667 275 249.666666667 239.833333333 231 209.5 c 128
 212.333333333 179.166666667 186.333333333 153.333333333 153 132 c 1
 382 135 l 1
 494 141 l 1
 483.333333333 116.333333333 474.833333333 92.3333333333 468.5 69 c 128
 462.166666667 45.6666666667 459 22 459 -2 c 1
 231 5 l 1
 192.333333333 5 143 4.16666666667 83 2.5 c 128
 23 0.833333333333 -11.3333333333 0 -20 0 c 1
 -17.3333333333 10.6666666667 -13.8333333333 28.1666666667 -9.5 52.5 c 128
 -5.16666666667 76.8333333333 -2 97 0 113 c 1
 28 116.333333333 51.6666666667 124.166666667 71 136.5 c 128
 90.3333333333 148.833333333 103.666666667 167.666666667 111 193 c 0
EndSplineSet
EndChar
StartChar: yen
Encoding: 165 165 130
Width: 539
Flags: W
LayerCount: 2
Fore
SplineSet
166 190 m 1,0,1
 127 190 127 190 87 189 c 128,-1,2
 47 188 47 188 7 187 c 1,3,-1
 19 241 l 1,4,-1
 176 239 l 1,5,-1
 190 304 l 1,6,-1
 32 301 l 1,7,-1
 42 355 l 1,8,-1
 180 353 l 1,9,10
 149 461 149 461 131 514.5 c 128,-1,11
 113 568 113 568 88 638 c 1,12,13
 101 638 101 638 125 635 c 128,-1,14
 149 632 149 632 162 632 c 256,15,16
 175 632 175 632 201 635 c 128,-1,17
 227 638 227 638 241 638 c 1,18,19
 264 514 264 514 305 389 c 1,20,21
 392 496 392 496 485 638 c 1,22,23
 496 636 496 636 508.5 634 c 128,-1,24
 521 632 521 632 533 632 c 256,25,26
 545 632 545 632 560 634 c 128,-1,27
 575 636 575 636 589 638 c 1,28,29
 510 548 510 548 460 488.5 c 128,-1,30
 410 429 410 429 353 353 c 1,31,32
 377 353 377 353 425.5 354 c 128,-1,33
 474 355 474 355 498 355 c 1,34,-1
 488 301 l 1,35,-1
 329 304 l 1,36,-1
 313 239 l 1,37,-1
 474 241 l 1,38,-1
 464 187 l 1,39,40
 424 187 424 187 383 188 c 128,-1,41
 342 189 342 189 302 190 c 1,42,43
 292 140 292 140 283.5 91 c 128,-1,44
 275 42 275 42 270 0 c 1,45,46
 256 0 256 0 229.5 3.5 c 128,-1,47
 203 7 203 7 194 7 c 0,48,49
 180 7 180 7 153.5 3.5 c 128,-1,50
 127 0 127 0 120 0 c 1,51,52
 129 32 129 32 143 90.5 c 128,-1,53
 157 149 157 149 166 190 c 1,0,1
EndSplineSet
EndChar
StartChar: brokenbar
Encoding: 166 166 91
Width: 492
Flags: HW
LayerCount: 2
Fore
SplineSet
297 688 m 1
 297 323 l 1
 196 323 l 1
 196 688 l 1
 297 688 l 1
297 196 m 1
 297 -168 l 1
 196 -168 l 1
 196 196 l 1
 297 196 l 1
EndSplineSet
EndChar
StartChar: dieresis
Encoding: 167 167 125
Width: 541
Flags: W
LayerCount: 2
Fore
SplineSet
53 40 m 1,0,-1
 71 40 l 1,1,2
 90 -15 90 -15 126 -50 c 128,-1,3
 162 -85 162 -85 216 -85 c 0,4,5
 250 -85 250 -85 276 -67.5 c 128,-1,6
 302 -50 302 -50 302 -17 c 0,7,8
 302 29 302 29 238 70.5 c 128,-1,9
 174 112 174 112 112 152 c 1,10,11
 44 206 44 206 44 273 c 0,12,13
 44 321 44 321 73 360 c 128,-1,14
 102 399 102 399 148 423 c 1,15,16
 133 443 133 443 124.5 466 c 128,-1,17
 116 489 116 489 116 513 c 0,18,19
 116 590 116 590 178.5 636.5 c 128,-1,20
 241 683 241 683 321 683 c 0,21,22
 369 683 369 683 412.5 669.5 c 128,-1,23
 456 656 456 656 498 628 c 1,24,25
 472 582 472 582 458 526 c 1,26,-1
 441 526 l 1,27,28
 431 571 431 571 397 600 c 128,-1,29
 363 629 363 629 317 629 c 0,30,31
 285 629 285 629 256 609.5 c 128,-1,32
 227 590 227 590 227 560 c 0,33,34
 227 519 227 519 292.5 478.5 c 128,-1,35
 358 438 358 438 421 400 c 1,36,37
 490 346 490 346 490 277 c 0,38,39
 490 228 490 228 464 194.5 c 128,-1,40
 438 161 438 161 389 124 c 1,41,42
 404 102 404 102 412.5 80 c 128,-1,43
 421 58 421 58 421 33 c 0,44,45
 421 -50 421 -50 355.5 -95.5 c 128,-1,46
 290 -141 290 -141 202 -141 c 0,47,48
 152 -141 152 -141 107 -125.5 c 128,-1,49
 62 -110 62 -110 18 -80 c 1,50,51
 36 -22 36 -22 41.5 -5 c 128,-1,52
 47 12 47 12 53 40 c 1,0,-1
389 207 m 1,53,54
 389 260 389 260 284 326 c 128,-1,55
 179 392 179 392 175 396 c 1,56,57
 151 367 151 367 147 359.5 c 128,-1,58
 143 352 143 352 143 337 c 0,59,60
 143 295 143 295 248.5 228 c 128,-1,61
 354 161 354 161 358 157 c 1,62,63
 386 176 386 176 389 207 c 1,53,54
EndSplineSet
EndChar
StartChar: copyright
Encoding: 169 169 124
Width: 819
Flags: W
LayerCount: 2
Fore
SplineSet
766 351 m 0,0,1
 766 207 766 207 661.5 101.5 c 128,-1,2
 557 -4 557 -4 412 -4 c 256,3,4
 267 -4 267 -4 159.5 101.5 c 128,-1,5
 52 207 52 207 52 353 c 0,6,7
 52 497 52 497 159 603 c 128,-1,8
 266 709 266 709 410 709 c 0,9,10
 555 709 555 709 660.5 602.5 c 128,-1,11
 766 496 766 496 766 351 c 0,0,1
112 354 m 256,12,13
 112 233 112 233 199.5 143.5 c 128,-1,14
 287 54 287 54 409 54 c 0,15,16
 529 54 529 54 618 142 c 128,-1,17
 707 230 707 230 707 352 c 0,18,19
 707 475 707 475 620 563 c 128,-1,20
 533 651 533 651 410 651 c 0,21,22
 288 651 288 651 200 563 c 128,-1,23
 112 475 112 475 112 354 c 256,12,13
492 430 m 1,24,25
 492 460 492 460 468 481 c 128,-1,26
 444 502 444 502 413 502 c 0,27,28
 361 502 361 502 338.5 459.5 c 128,-1,29
 316 417 316 417 316 360 c 0,30,31
 316 304 316 304 337 256 c 128,-1,32
 358 208 358 208 406 208 c 0,33,34
 481 208 481 208 495 286 c 1,35,-1
 587 286 l 1,36,37
 581 219 581 219 531.5 178.5 c 128,-1,38
 482 138 482 138 412 138 c 0,39,40
 324 138 324 138 271 198 c 128,-1,41
 218 258 218 258 218 347 c 0,42,43
 218 435 218 435 268 500.5 c 128,-1,44
 318 566 318 566 403 566 c 0,45,46
 470 566 470 566 522 529.5 c 128,-1,47
 574 493 574 493 583 430 c 1,48,-1
 492 430 l 1,24,25
EndSplineSet
EndChar
StartChar: guillemotleft
Encoding: 171 171 130
Width: 501
Flags: HW
LayerCount: 2
Fore
SplineSet
251 481 m 1
 257.666666667 467 261.5 459.166666667 262.5 457.5 c 128
 263.5 455.833333333 267.666666667 452.333333333 275 447 c 1
 255.666666667 418.333333333 231.333333333 387 202 353 c 128
 172.666666667 319 143 286.333333333 113 255 c 1
 132.333333333 210.333333333 147.666666667 172.666666667 159 142 c 128
 170.333333333 111.333333333 181.333333333 75.3333333333 192 34 c 1
 186.666666667 30 181.166666667 25 175.5 19 c 128
 169.833333333 13 164.333333333 6.66666666667 159 0 c 1
 136.333333333 46.6666666667 114.5 90.5 93.5 131.5 c 128
 72.5 172.5 48.6666666667 216 22 262 c 1
 58.6666666667 295.333333333 95.6666666667 329.833333333 133 365.5 c 128
 170.333333333 401.166666667 209.666666667 439.666666667 251 481 c 1
455 481 m 1
 461 468.333333333 469 457 479 447 c 1
 459 415 435.333333333 383.166666667 408 351.5 c 128
 380.666666667 319.833333333 350.333333333 287.666666667 317 255 c 1
 333 221.666666667 347.5 187 360.5 151 c 128
 373.5 115 385.666666667 76 397 34 c 1
 391.666666667 30 386.333333333 25.3333333333 381 20 c 128
 375.666666667 14.6666666667 369.666666667 8 363 0 c 1
 336.333333333 56.6666666667 313.333333333 103.666666667 294 141 c 128
 274.666666667 178.333333333 252 218.666666667 226 262 c 1
 302 330.666666667 378.333333333 403.666666667 455 481 c 1
EndSplineSet
EndChar
StartChar: registered
Encoding: 174 174 123
Width: 819
Flags: W
LayerCount: 2
Fore
SplineSet
767 353 m 256,0,1
 767 206 767 206 662 101 c 128,-1,2
 557 -4 557 -4 410 -4 c 0,3,4
 266 -4 266 -4 159 102 c 128,-1,5
 52 208 52 208 52 353 c 0,6,7
 52 497 52 497 159 603 c 128,-1,8
 266 709 266 709 410 709 c 0,9,10
 556 709 556 709 661.5 604.5 c 128,-1,11
 767 500 767 500 767 353 c 256,0,1
112 353 m 0,12,13
 112 233 112 233 200.5 143.5 c 128,-1,14
 289 54 289 54 409 54 c 256,15,16
 529 54 529 54 618.5 142.5 c 128,-1,17
 708 231 708 231 708 352 c 0,18,19
 708 474 708 474 620.5 562.5 c 128,-1,20
 533 651 533 651 410 651 c 0,21,22
 289 651 289 651 200.5 562.5 c 128,-1,23
 112 474 112 474 112 353 c 0,12,13
416 558 m 2,24,25
 483 558 483 558 534.5 533.5 c 128,-1,26
 586 509 586 509 586 450 c 0,27,28
 586 410 586 410 562 380 c 128,-1,29
 538 350 538 350 500 337 c 1,30,-1
 587 162 l 1,31,-1
 481 162 l 1,32,-1
 404 323 l 1,33,-1
 358 323 l 1,34,-1
 358 162 l 1,35,-1
 260 162 l 1,36,-1
 260 558 l 1,37,-1
 416 558 l 2,24,25
358 381 m 1,38,-1
 405 381 l 2,39,40
 440 381 440 381 463 393.5 c 128,-1,41
 486 406 486 406 486 438 c 0,42,43
 486 459 486 459 473.5 474.5 c 128,-1,44
 461 490 461 490 439 493 c 1,45,46
 422 497 422 497 400 497 c 2,47,-1
 358 497 l 1,48,-1
 358 381 l 1,38,-1
EndSplineSet
EndChar
StartChar: AE
Encoding: 176 176 126
Width: 492
Flags: W
LayerCount: 2
Fore
SplineSet
327 769 m 0,0,1
 372 769 372 769 403 743 c 128,-1,2
 434 717 434 717 434 672 c 0,3,4
 434 616 434 616 391 575 c 128,-1,5
 348 534 348 534 292 534 c 0,6,7
 250 534 250 534 220 564 c 128,-1,8
 190 594 190 594 190 635 c 0,9,10
 190 691 190 691 230 730 c 128,-1,11
 270 769 270 769 327 769 c 0,0,1
299 566 m 0,12,13
 336 566 336 566 358 598.5 c 128,-1,14
 380 631 380 631 380 670 c 0,15,16
 380 699 380 699 366 718.5 c 128,-1,17
 352 738 352 738 324 738 c 0,18,19
 286 738 286 738 265.5 703.5 c 128,-1,20
 245 669 245 669 245 628 c 1,21,22
 251 591 251 591 264.5 578.5 c 128,-1,23
 278 566 278 566 299 566 c 0,12,13
EndSplineSet
EndChar
StartChar: plusminus
Encoding: 177 177 125
Width: 818
Flags: HW
LayerCount: 2
Fore
SplineSet
458 587 m 1
 458 430 l 1
 697 430 l 1
 697 335 l 1
 458 335 l 1
 458 178 l 1
 361 178 l 1
 361 335 l 1
 122 335 l 1
 122 430 l 1
 361 430 l 1
 361 587 l 1
 458 587 l 1
697 95 m 1
 697 0 l 1
 122 0 l 1
 122 95 l 1
 697 95 l 1
EndSplineSet
EndChar
StartChar: Ccedilla
Encoding: 178 178 144
Width: 355
Flags: HW
LayerCount: 2
Fore
SplineSet
-19 288 m 1
 63 345.333333333 124.333333333 392.166666667 165 428.5 c 128
 205.666666667 464.833333333 226 506.666666667 226 554 c 0
 226 571.333333333 221.5 586 212.5 598 c 128
 203.5 610 190.333333333 616 173 616 c 0
 152.333333333 616 137.333333333 607.5 128 590.5 c 128
 118.666666667 573.5 112.666666667 553 110 529 c 1
 106 524 l 1
 94 534 84.8333333333 542.166666667 78.5 548.5 c 128
 72.1666666667 554.833333333 61.3333333333 566 46 582 c 1
 82.6666666667 626.666666667 129.666666667 649 187 649 c 0
 225 649 259 641.333333333 289 626 c 128
 319 610.666666667 334 585.666666667 334 551 c 0
 334 500.333333333 305.166666667 456.333333333 247.5 419 c 128
 189.833333333 381.666666667 143.666666667 352.333333333 109 331 c 1
 136.333333333 331 173.333333333 331.833333333 220 333.5 c 128
 266.666666667 335.166666667 294.666666667 336 304 336 c 1
 294 310 287 283.333333333 283 256 c 1
 178 258 l 2
 155.333333333 258 121 257.666666667 75 257 c 128
 29 256.333333333 -5.33333333333 256 -28 256 c 1
 -22 265.333333333 -19 276 -19 288 c 1
EndSplineSet
EndChar
StartChar: Ntilde
Encoding: 179 179 145
Width: 355
Flags: HW
LayerCount: 2
Fore
SplineSet
60 362 m 1
 60 332 64.5 311.166666667 73.5 299.5 c 128
 82.5 287.833333333 95.3333333333 281.333333333 112 280 c 1
 134.666666667 280 152.166666667 289.166666667 164.5 307.5 c 128
 176.833333333 325.833333333 184.333333333 347.666666667 187 373 c 1
 187 390.333333333 182 406.333333333 172 421 c 128
 162 435.666666667 149 443 133 443 c 2
 104 443 l 1
 106 448.333333333 107.333333333 453.666666667 108 459 c 128
 108.666666667 464.333333333 109 471 109 479 c 1
 132 476 l 1
 156 476 176.333333333 484.333333333 193 501 c 128
 209.666666667 517.666666667 218 538 218 562 c 0
 218 578 213.666666667 592 205 604 c 128
 196.333333333 616 184 622 168 622 c 0
 150 622 136.333333333 615.166666667 127 601.5 c 128
 117.666666667 587.833333333 111.333333333 570.666666667 108 550 c 1
 97 540 l 1
 92.3333333333 548 87.3333333333 556.5 82 565.5 c 128
 76.6666666667 574.5 67.6666666667 586.666666667 55 602 c 1
 74.3333333333 618.666666667 94.8333333333 630.666666667 116.5 638 c 128
 138.166666667 645.333333333 162 649 188 649 c 0
 220.666666667 649 250.5 642.5 277.5 629.5 c 128
 304.5 616.5 318 595.333333333 318 566 c 0
 318 534 307.5 510.5 286.5 495.5 c 128
 265.5 480.5 236.666666667 470 200 464 c 1
 200 458 l 1
 228.666666667 452 251.5 442.166666667 268.5 428.5 c 128
 285.5 414.833333333 294 394.666666667 294 368 c 0
 294 327.333333333 278 296.833333333 246 276.5 c 128
 214 256.166666667 176 246 132 246 c 0
 102.666666667 246 76.3333333333 249.666666667 53 257 c 128
 29.6666666667 264.333333333 9.33333333333 277.333333333 -8 296 c 1
 48 366 l 1
 60 362 l 1
EndSplineSet
EndChar
StartChar: atilde
Encoding: 180 180 101
Width: 269
Flags: HW
LayerCount: 2
Fore
SplineSet
52 372 m 1
 163 611 l 1
 174.333333333 639.666666667 185.666666667 659.166666667 197 669.5 c 128
 208.333333333 679.833333333 221 685 235 685 c 0
 252.333333333 685 268.333333333 680.166666667 283 670.5 c 128
 297.666666667 660.833333333 305 648 305 632 c 0
 305 619.333333333 300.833333333 605.833333333 292.5 591.5 c 128
 284.166666667 577.166666667 274.333333333 563.666666667 263 551 c 1
 72 355 l 1
 52 372 l 1
EndSplineSet
EndChar
StartChar: Aring
Encoding: 185 185 145
Width: 355
Flags: W
LayerCount: 2
Fore
SplineSet
192 572 m 1,0,1
 169 567 169 567 145.5 557.5 c 128,-1,2
 122 548 122 548 98 535 c 1,3,4
 94 555 94 555 86 578 c 1,5,6
 145 595 145 595 195 611.5 c 128,-1,7
 245 628 245 628 301 650 c 1,8,-1
 319 642 l 1,9,10
 264 457 264 457 227 256 c 1,11,-1
 169 258 l 2,12,13
 155 258 155 258 142.5 258 c 128,-1,14
 130 258 130 258 114 256 c 1,15,16
 150 373 150 373 167.5 437.5 c 128,-1,17
 185 502 185 502 192 572 c 1,0,1
EndSplineSet
EndChar
StartChar: uni00B9
Encoding: 185 185 143
Width: 355
Flags: HW
LayerCount: 2
Fore
SplineSet
192 572 m 1
 176.666666667 568.666666667 161.166666667 563.833333333 145.5 557.5 c 128
 129.833333333 551.166666667 114 543.666666667 98 535 c 1
 95.3333333333 548.333333333 91.3333333333 562.666666667 86 578 c 1
 125.333333333 589.333333333 161.666666667 600.5 195 611.5 c 128
 228.333333333 622.5 263.666666667 635.333333333 301 650 c 1
 319 642 l 1
 282.333333333 518.666666667 251.666666667 390 227 256 c 1
 169 258 l 2
 155 258 155 258 142.5 258 c 128
 134.166666667 258 124.666666667 257.333333333 114 256 c 1
 138 334 155.833333333 394.5 167.5 437.5 c 128
 179.166666667 480.5 187.333333333 525.333333333 192 572 c 1
EndSplineSet
EndChar
StartChar: guillemotright
Encoding: 187 187 133
Width: 501
Flags: W
LayerCount: 2
Fore
SplineSet
6 0 m 1,0,1
 1 10 1 10 -4 18 c 128,-1,2
 -9 26 -9 26 -17 34 c 1,3,4
 21 93 21 93 54.5 130.5 c 128,-1,5
 88 168 88 168 143 226 c 1,6,7
 92 334 92 334 64 446 c 1,8,9
 72 451 72 451 81 461 c 128,-1,10
 90 471 90 471 99 480 c 1,11,12
 127 417 127 417 160.5 352 c 128,-1,13
 194 287 194 287 235 219 c 1,14,15
 184 172 184 172 121 112 c 128,-1,16
 58 52 58 52 6 0 c 1,0,1
211 0 m 1,17,18
 206 9 206 9 201 17.5 c 128,-1,19
 196 26 196 26 187 34 c 1,20,21
 214 76 214 76 257.5 126.5 c 128,-1,22
 301 177 301 177 348 226 c 1,23,24
 321 282 321 282 301 336 c 128,-1,25
 281 390 281 390 270 446 c 1,26,27
 277 451 277 451 286.5 461 c 128,-1,28
 296 471 296 471 303 480 c 1,29,30
 370 338 370 338 440 219 c 1,31,32
 419 199 419 199 365.5 149 c 128,-1,33
 312 99 312 99 285 73 c 128,-1,34
 258 47 258 47 211 0 c 1,17,18
EndSplineSet
EndChar
StartChar: oacute
Encoding: 189 189 149
Width: 842
Flags: W
LayerCount: 2
Fore
SplineSet
186 577 m 1,0,1
 165 572 165 572 141.5 563 c 128,-1,2
 118 554 118 554 95 542 c 1,3,4
 95 552 95 552 92.5 560.5 c 128,-1,5
 90 569 90 569 85 583 c 1,6,7
 137 595 137 595 171.5 606.5 c 128,-1,8
 206 618 206 618 290 649 c 1,9,-1
 307 641 l 1,10,11
 278 551 278 551 257.5 464.5 c 128,-1,12
 237 378 237 378 220 281 c 1,13,-1
 164 284 l 1,14,-1
 112 281 l 1,15,16
 140 367 140 367 159.5 439.5 c 128,-1,17
 179 512 179 512 186 577 c 1,0,1
728 731 m 1,18,-1
 184 -90 l 1,19,-1
 124 -90 l 1,20,-1
 665 731 l 1,21,-1
 728 731 l 1,18,-1
485 30 m 1,22,23
 584 93 584 93 652 152.5 c 128,-1,24
 720 212 720 212 720 276 c 0,25,26
 720 300 720 300 706.5 317.5 c 128,-1,27
 693 335 693 335 670 335 c 0,28,29
 641 335 641 335 625.5 311 c 128,-1,30
 610 287 610 287 610 257 c 1,31,-1
 605 251 l 1,32,-1
 546 304 l 1,33,34
 572 335 572 335 609 350.5 c 128,-1,35
 646 366 646 366 689 366 c 0,36,37
 740 366 740 366 781 344.5 c 128,-1,38
 822 323 822 323 822 276 c 256,39,40
 822 229 822 229 789 197.5 c 128,-1,41
 756 166 756 166 607 70 c 1,42,43
 639 70 639 70 714.5 72 c 128,-1,44
 790 74 790 74 794 74 c 1,45,46
 789 62 789 62 783.5 40 c 128,-1,47
 778 18 778 18 774 0 c 1,48,49
 750 0 750 0 700 1 c 128,-1,50
 650 2 650 2 625 2 c 0,51,52
 601 2 601 2 551 1 c 128,-1,53
 501 0 501 0 476 0 c 1,54,55
 485 12 485 12 485 30 c 1,22,23
EndSplineSet
EndChar
StartChar: onehalf
Encoding: 189 189 147
Width: 842
Flags: HW
LayerCount: 2
Fore
SplineSet
186 577 m 1
 172 573.666666667 157.166666667 569 141.5 563 c 128
 125.833333333 557 110.333333333 550 95 542 c 1
 95 548.666666667 94.1666666667 554.833333333 92.5 560.5 c 128
 90.8333333333 566.166666667 88.3333333333 573.666666667 85 583 c 1
 119.666666667 591 148.5 598.833333333 171.5 606.5 c 128
 194.5 614.166666667 234 628.333333333 290 649 c 1
 307 641 l 1
 287.666666667 581 271.166666667 522.166666667 257.5 464.5 c 128
 243.833333333 406.833333333 231.333333333 345.666666667 220 281 c 1
 164 284 l 1
 112 281 l 1
 130.666666667 338.333333333 146.5 391.166666667 159.5 439.5 c 128
 172.5 487.833333333 181.333333333 533.666666667 186 577 c 1
728 731 m 1
 184 -90 l 1
 124 -90 l 1
 665 731 l 1
 728 731 l 1
485 30 m 1
 551 72 606.666666667 112.833333333 652 152.5 c 128
 697.333333333 192.166666667 720 233.333333333 720 276 c 0
 720 292 715.5 305.833333333 706.5 317.5 c 128
 697.5 329.166666667 685.333333333 335 670 335 c 0
 650.666666667 335 635.833333333 327 625.5 311 c 128
 615.166666667 295 610 277 610 257 c 1
 605 251 l 1
 546 304 l 1
 563.333333333 324.666666667 584.333333333 340.166666667 609 350.5 c 128
 633.666666667 360.833333333 660.333333333 366 689 366 c 0
 723 366 753.666666667 358.833333333 781 344.5 c 128
 808.333333333 330.166666667 822 307.333333333 822 276 c 256
 822 244.666666667 811 218.5 789 197.5 c 128
 767 176.5 706.333333333 134 607 70 c 1
 628.333333333 70 664.166666667 70.6666666667 714.5 72 c 128
 764.833333333 73.3333333333 791.333333333 74 794 74 c 1
 790.666666667 66 787.166666667 54.6666666667 783.5 40 c 128
 779.833333333 25.3333333333 776.666666667 12 774 0 c 1
 758 0 733.333333333 0.333333333333 700 1 c 128
 666.666666667 1.66666666667 641.666666667 2 625 2 c 0
 609 2 584.333333333 1.66666666667 551 1 c 128
 517.666666667 0.333333333333 492.666666667 0 476 0 c 1
 482 8 485 18 485 30 c 1
EndSplineSet
EndChar
StartChar: Adieresis
Encoding: 196 196 94
Width: 616
Flags: HW
LayerCount: 2
Fore
SplineSet
374 24 m 1
 374 50 372.166666667 77.3333333333 368.5 106 c 128
 364.833333333 134.666666667 361.333333333 163 358 191 c 1
 333.333333333 193 311.333333333 194.666666667 292 196 c 128
 272.666666667 197.333333333 257.333333333 198 246 198 c 256
 234.666666667 198 217.166666667 196.833333333 193.5 194.5 c 128
 169.833333333 192.166666667 153.666666667 191 145 191 c 1
 103.666666667 115.666666667 78.3333333333 69.1666666667 69 51.5 c 128
 59.6666666667 33.8333333333 51 16.6666666667 43 0 c 1
 -6 4 l 2
 -12.6666666667 4 -24.1666666667 3.33333333333 -40.5 2 c 128
 -56.8333333333 0.666666666667 -66 0 -68 0 c 1
 -20 72 25.6666666667 142.166666667 69 210.5 c 128
 112.333333333 278.833333333 155 347.5 197 416.5 c 128
 239 485.5 291 572 353 676 c 1
 367.666666667 673.333333333 377.5 671.833333333 382.5 671.5 c 128
 387.5 671.166666667 393.333333333 671 400 671 c 0
 408.666666667 671 415.666666667 671.333333333 421 672 c 128
 426.333333333 672.666666667 434 674 444 676 c 1
 479 445 l 1
 491 370.333333333 503.666666667 294.333333333 517 217 c 128
 530.333333333 139.666666667 546.333333333 67.3333333333 565 0 c 1
 554.333333333 1.33333333333 537.833333333 3 515.5 5 c 128
 493.166666667 7 476.666666667 8 466 8 c 0
 452 8 441 7.66666666667 433 7 c 128
 425 6.33333333333 405 4 373 0 c 1
 374 24 l 1
347 902 m 256
 365 902 380.833333333 895.5 394.5 882.5 c 128
 408.166666667 869.5 415 853.666666667 415 835 c 256
 415 816.333333333 408.666666667 800.333333333 396 787 c 128
 383.333333333 773.666666667 367.333333333 767 348 767 c 256
 328.666666667 767 312.166666667 773.5 298.5 786.5 c 128
 284.833333333 799.5 278 815.666666667 278 835 c 0
 278 853 285 868.666666667 299 882 c 128
 313 895.333333333 329 902 347 902 c 256
530 902 m 256
 548.666666667 902 564.833333333 895.5 578.5 882.5 c 128
 592.166666667 869.5 599 853.666666667 599 835 c 256
 599 816.333333333 592.333333333 800.333333333 579 787 c 128
 565.666666667 773.666666667 549.333333333 767 530 767 c 256
 510.666666667 767 494.5 773.5 481.5 786.5 c 128
 468.5 799.5 462 815.666666667 462 835 c 0
 462 853 468.666666667 868.666666667 482 882 c 128
 495.333333333 895.333333333 511.333333333 902 530 902 c 256
239 262 m 1
 349 263 l 1
 341 347.666666667 332.333333333 421.333333333 323 484 c 1
 284.333333333 424.666666667 256.833333333 382 240.5 356 c 128
 224.166666667 330 205.666666667 299 185 263 c 1
 239 262 l 1
EndSplineSet
EndChar
StartChar: Eacute
Encoding: 201 201 95
Width: 503
Flags: HW
LayerCount: 2
Fore
SplineSet
133 671 m 1
 152.333333333 671 182.666666667 670 224 668 c 128
 265.333333333 666 296.666666667 665 318 665 c 0
 341.333333333 665 376.333333333 666 423 668 c 128
 469.666666667 670 504.666666667 671 528 671 c 1
 516 645 508.333333333 615.666666667 505 583 c 1
 478.333333333 587.666666667 453.5 591.333333333 430.5 594 c 128
 407.5 596.666666667 383.666666667 598 359 598 c 1
 288 596 l 1
 284.666666667 587.333333333 281.166666667 575.5 277.5 560.5 c 128
 273.833333333 545.5 269.333333333 527.333333333 264 506 c 1
 244 395 l 1
 329 391 l 2
 343 391 364.666666667 392 394 394 c 128
 423.333333333 396 445.333333333 397 460 397 c 1
 456.666666667 389.666666667 453.333333333 376 450 356 c 128
 446.666666667 336 445 321 445 311 c 1
 435.666666667 311 417.333333333 312.166666667 390 314.5 c 128
 362.666666667 316.833333333 342.333333333 318 329 318 c 2
 229 318 l 1
 202 191 l 2
 199.333333333 181 195.833333333 163.666666667 191.5 139 c 128
 187.166666667 114.333333333 184 94.3333333333 182 79 c 1
 226 79 264.666666667 79.8333333333 298 81.5 c 128
 331.333333333 83.1666666667 374 86.3333333333 426 91 c 1
 421.333333333 78.3333333333 417.166666667 64 413.5 48 c 128
 409.833333333 32 406.666666667 16 404 0 c 1
 382.666666667 0 347.666666667 1 299 3 c 128
 250.333333333 5 215 6 193 6 c 256
 171 6 138.333333333 5 95 3 c 128
 51.6666666667 1 19.3333333333 0 -2 0 c 1
 28.6666666667 104 55.5 213.666666667 78.5 329 c 128
 101.5 444.333333333 119.666666667 558.333333333 133 671 c 1
252 746 m 1
 401 899 l 2
 410.333333333 909 420.5 917.333333333 431.5 924 c 128
 442.5 930.666666667 453 934 463 934 c 0
 474.333333333 934 485.666666667 928.333333333 497 917 c 128
 508.333333333 905.666666667 514 894 514 882 c 0
 514 870.666666667 510 861 502 853 c 128
 494 845 483 837.333333333 469 830 c 2
 301 746 l 1
 252 746 l 1
EndSplineSet
EndChar
StartChar: Odieresis
Encoding: 214 214 96
Width: 803
Flags: HW
LayerCount: 2
Fore
SplineSet
24 284 m 0
 24 394 62 488.333333333 138 567 c 128
 214 645.666666667 306.333333333 685 415 685 c 256
 523.666666667 685 611.333333333 662.5 678 617.5 c 128
 744.666666667 572.5 778 498 778 394 c 0
 778 279.333333333 737.333333333 183.333333333 656 106 c 128
 574.666666667 28.6666666667 476.666666667 -10 362 -10 c 0
 328.666666667 -10 298 -8 270 -4 c 128
 242 0 208.833333333 10.1666666667 170.5 26.5 c 128
 132.166666667 42.8333333333 98.1666666667 75.3333333333 68.5 124 c 128
 38.8333333333 172.666666667 24 226 24 284 c 0
415 902 m 256
 433.666666667 902 449.833333333 895.5 463.5 882.5 c 128
 477.166666667 869.5 484 853.666666667 484 835 c 0
 484 817 477.5 801.166666667 464.5 787.5 c 128
 451.5 773.833333333 435.333333333 767 416 767 c 0
 398 767 382 773.666666667 368 787 c 128
 354 800.333333333 347 816.333333333 347 835 c 0
 347 853 353.666666667 868.666666667 367 882 c 128
 380.333333333 895.333333333 396.333333333 902 415 902 c 256
600 902 m 0
 618 902 633.666666667 895.333333333 647 882 c 128
 660.333333333 868.666666667 667 853 667 835 c 0
 667 817.666666667 660.333333333 802 647 788 c 128
 633.666666667 774 618 767 600 767 c 0
 581.333333333 767 565 773.666666667 551 787 c 128
 537 800.333333333 530 816.333333333 530 835 c 256
 530 853.666666667 536.833333333 869.5 550.5 882.5 c 128
 564.166666667 895.5 580.666666667 902 600 902 c 0
204 261 m 0
 204 201 216.833333333 151.666666667 242.5 113 c 128
 268.166666667 74.3333333333 309.666666667 55 367 55 c 0
 447 55 506.5 92.3333333333 545.5 167 c 128
 584.5 241.666666667 604 322.666666667 604 410 c 0
 604 468.666666667 590.166666667 518.333333333 562.5 559 c 128
 534.833333333 599.666666667 493 620 437 620 c 0
 375 620 325.666666667 595.166666667 289 545.5 c 128
 252.333333333 495.833333333 229 445 219 393 c 128
 209 341 204 297 204 261 c 0
EndSplineSet
EndChar
StartChar: aacute
Encoding: 215 215 148
Width: 818
Flags: W
LayerCount: 2
Fore
SplineSet
415 360 m 1,0,-1
 632 576 l 1,1,-1
 698 509 l 1,2,-1
 482 293 l 1,3,-1
 698 77 l 1,4,-1
 632 10 l 1,5,-1
 415 226 l 1,6,-1
 199 10 l 1,7,-1
 133 77 l 1,8,-1
 349 293 l 1,9,-1
 133 509 l 1,10,-1
 199 576 l 1,11,-1
 415 360 l 1,0,-1
EndSplineSet
EndChar
StartChar: multiply
Encoding: 215 215 146
Width: 818
Flags: HW
LayerCount: 2
Fore
SplineSet
415 360 m 1
 632 576 l 1
 698 509 l 1
 482 293 l 1
 698 77 l 1
 632 10 l 1
 415 226 l 1
 199 10 l 1
 133 77 l 1
 349 293 l 1
 133 509 l 1
 199 576 l 1
 415 360 l 1
EndSplineSet
EndChar
StartChar: Udieresis
Encoding: 220 220 97
Width: 724
Flags: HW
LayerCount: 2
Fore
SplineSet
220 665 m 0
 248 665 277 667 307 671 c 1
 291.666666667 618.333333333 276 563.666666667 260 507 c 128
 244 450.333333333 230.833333333 394.666666667 220.5 340 c 128
 210.166666667 285.333333333 205 234.333333333 205 187 c 0
 205 150.333333333 216.666666667 121.666666667 240 101 c 128
 263.333333333 80.3333333333 293.333333333 70 330 70 c 0
 364 70 394.5 75.5 421.5 86.5 c 128
 448.5 97.5 473.833333333 117.166666667 497.5 145.5 c 128
 521.166666667 173.833333333 541.5 218.333333333 558.5 279 c 128
 575.5 339.666666667 589.333333333 405.333333333 600 476 c 128
 610.666666667 546.666666667 620.333333333 611.666666667 629 671 c 1
 647.666666667 667.666666667 664.666666667 666 680 666 c 0
 694.666666667 666 711.333333333 667.666666667 730 671 c 1
 719.333333333 627.666666667 711 594.166666667 705 570.5 c 128
 699 546.833333333 687 495.833333333 669 417.5 c 128
 651 339.166666667 640 291 636 273 c 128
 632 255 628.333333333 239.833333333 625 227.5 c 128
 621.666666667 215.166666667 613.5 188.666666667 600.5 148 c 128
 587.5 107.333333333 552.833333333 70.3333333333 496.5 37 c 128
 440.166666667 3.66666666667 377 -13 307 -13 c 0
 233.666666667 -13 172.833333333 1.83333333333 124.5 31.5 c 128
 76.1666666667 61.1666666667 52 110.666666667 52 180 c 0
 52 206 57.6666666667 251.333333333 69 316 c 128
 80.3333333333 380.666666667 92.5 447.333333333 105.5 516 c 128
 118.5 584.666666667 127 636.333333333 131 671 c 1
 160.333333333 667 190 665 220 665 c 0
389 902 m 0
 407 902 422.666666667 895.333333333 436 882 c 128
 449.333333333 868.666666667 456 853 456 835 c 0
 456 816.333333333 449.666666667 800.333333333 437 787 c 128
 424.333333333 773.666666667 408.333333333 767 389 767 c 0
 369 767 352.333333333 773.333333333 339 786 c 128
 325.666666667 798.666666667 319 815 319 835 c 0
 319 853 326 868.666666667 340 882 c 128
 354 895.333333333 370.333333333 902 389 902 c 0
572 902 m 256
 590.666666667 902 606.666666667 895.333333333 620 882 c 128
 633.333333333 868.666666667 640 853 640 835 c 0
 640 815.666666667 633.5 799.5 620.5 786.5 c 128
 607.5 773.5 591.333333333 767 572 767 c 256
 552.666666667 767 536.333333333 773.333333333 523 786 c 128
 509.666666667 798.666666667 503 815 503 835 c 0
 503 853.666666667 509.833333333 869.5 523.5 882.5 c 128
 537.166666667 895.5 553.333333333 902 572 902 c 256
EndSplineSet
EndChar
StartChar: germandbls
Encoding: 223 223 122
Width: 577
Flags: W
LayerCount: 2
Fore
SplineSet
41 229 m 1,0,-1
 72 390 l 1,1,2
 89 487 89 487 118.5 562.5 c 128,-1,3
 148 638 148 638 205 688.5 c 128,-1,4
 262 739 262 739 353 739 c 0,5,6
 420 739 420 739 472 710.5 c 128,-1,7
 524 682 524 682 524 619 c 0,8,9
 524 563 524 563 456 508 c 128,-1,10
 388 453 388 453 388 413 c 0,11,12
 388 389 388 389 455 318 c 128,-1,13
 522 247 522 247 522 184 c 0,14,15
 522 105 522 105 456 46 c 128,-1,16
 390 -13 390 -13 307 -13 c 0,17,18
 246 -13 246 -13 196 19 c 1,19,20
 213 52 213 52 223.5 80 c 128,-1,21
 234 108 234 108 242 143 c 1,22,-1
 256 134 l 1,23,24
 259 97 259 97 283 69 c 128,-1,25
 307 41 307 41 343 41 c 0,26,27
 372 41 372 41 391 63 c 128,-1,28
 410 85 410 85 410 115 c 0,29,30
 410 162 410 162 339.5 229.5 c 128,-1,31
 269 297 269 297 269 349 c 0,32,33
 269 406 269 406 356 477 c 128,-1,34
 443 548 443 548 443 609 c 0,35,36
 443 644 443 644 421 665 c 128,-1,37
 399 686 399 686 364 686 c 0,38,39
 323 686 323 686 292.5 651 c 128,-1,40
 262 616 262 616 231.5 490 c 128,-1,41
 201 364 201 364 180.5 232.5 c 128,-1,42
 160 101 160 101 149 0 c 1,43,-1
 38 2 l 1,44,-1
 -13 0 l 1,45,46
 0 49 0 49 13.5 107.5 c 128,-1,47
 27 166 27 166 41 229 c 1,0,-1
EndSplineSet
EndChar
StartChar: agrave
Encoding: 224 224 100
Width: 514
Flags: W
LayerCount: 2
Fore
SplineSet
126 -10 m 0,0,1
 68 -10 68 -10 30.5 23.5 c 128,-1,2
 -7 57 -7 57 -7 115 c 0,3,4
 -7 193 -7 193 44 230.5 c 128,-1,5
 95 268 95 268 158 275.5 c 128,-1,6
 221 283 221 283 263 289 c 1,7,8
 301 301 301 301 301 350 c 0,9,10
 301 386 301 386 277.5 404 c 128,-1,11
 254 422 254 422 216 422 c 0,12,13
 142 422 142 422 97 364 c 1,14,-1
 85 361 l 1,15,16
 96 402 96 402 100 440 c 1,17,18
 146 463 146 463 191 477 c 128,-1,19
 236 491 236 491 280 491 c 0,20,21
 347 491 347 491 394.5 457.5 c 128,-1,22
 442 424 442 424 442 360 c 1,23,24
 440 343 440 343 438 327 c 128,-1,25
 436 311 436 311 432 295 c 2,26,-1
 403 167 l 2,27,28
 397 143 397 143 391.5 117 c 128,-1,29
 386 91 386 91 386 69 c 0,30,31
 386 57 386 57 397 49 c 128,-1,32
 408 41 408 41 421 41 c 0,33,34
 428 41 428 41 436 42.5 c 128,-1,35
 444 44 444 44 448 45 c 1,36,-1
 446 11 l 1,37,38
 404 -7 404 -7 355 -7 c 0,39,40
 277 -7 277 -7 254 63 c 1,41,42
 235 27 235 27 202 8.5 c 128,-1,43
 169 -10 169 -10 126 -10 c 0,0,1
350 545 m 1,44,-1
 214 630 l 2,45,46
 194 643 194 643 183 655.5 c 128,-1,47
 172 668 172 668 172 685 c 0,48,49
 172 704 172 704 187 718 c 128,-1,50
 202 732 202 732 221 732 c 0,51,52
 238 732 238 732 251 722.5 c 128,-1,53
 264 713 264 713 278 696 c 2,54,-1
 400 545 l 1,55,-1
 350 545 l 1,44,-1
136 128 m 1,56,57
 136 102 136 102 148 83.5 c 128,-1,58
 160 65 160 65 184 65 c 0,59,60
 242 65 242 65 257 140.5 c 128,-1,61
 272 216 272 216 276 236 c 1,62,63
 218 236 218 236 179.5 209.5 c 128,-1,64
 141 183 141 183 136 128 c 1,56,57
EndSplineSet
EndChar
StartChar: acircumflex
Encoding: 226 226 101
Width: 514
Flags: W
LayerCount: 2
Fore
SplineSet
126 -10 m 0,0,1
 68 -10 68 -10 30.5 23.5 c 128,-1,2
 -7 57 -7 57 -7 115 c 0,3,4
 -7 193 -7 193 44 230.5 c 128,-1,5
 95 268 95 268 158 275.5 c 128,-1,6
 221 283 221 283 263 289 c 1,7,8
 301 301 301 301 301 350 c 0,9,10
 301 386 301 386 277.5 404 c 128,-1,11
 254 422 254 422 216 422 c 0,12,13
 142 422 142 422 97 364 c 1,14,-1
 85 361 l 1,15,16
 96 402 96 402 100 440 c 1,17,18
 146 463 146 463 191 477 c 128,-1,19
 236 491 236 491 280 491 c 0,20,21
 347 491 347 491 394.5 457.5 c 128,-1,22
 442 424 442 424 442 360 c 1,23,24
 440 343 440 343 438 327 c 128,-1,25
 436 311 436 311 432 295 c 2,26,-1
 403 167 l 2,27,28
 397 143 397 143 391.5 117 c 128,-1,29
 386 91 386 91 386 69 c 0,30,31
 386 57 386 57 397 49 c 128,-1,32
 408 41 408 41 421 41 c 0,33,34
 428 41 428 41 436 42.5 c 128,-1,35
 444 44 444 44 448 45 c 1,36,-1
 446 11 l 1,37,38
 404 -7 404 -7 355 -7 c 0,39,40
 277 -7 277 -7 254 63 c 1,41,42
 235 27 235 27 202 8.5 c 128,-1,43
 169 -10 169 -10 126 -10 c 0,0,1
404 544 m 1,44,-1
 317 638 l 1,45,-1
 187 544 l 1,46,-1
 138 544 l 1,47,-1
 287 722 l 1,48,-1
 368 722 l 1,49,-1
 445 544 l 1,50,-1
 404 544 l 1,44,-1
136 128 m 1,51,52
 136 102 136 102 148 83.5 c 128,-1,53
 160 65 160 65 184 65 c 0,54,55
 242 65 242 65 257 140.5 c 128,-1,56
 272 216 272 216 276 236 c 1,57,58
 218 236 218 236 179.5 209.5 c 128,-1,59
 141 183 141 183 136 128 c 1,51,52
EndSplineSet
EndChar
StartChar: adieresis
Encoding: 228 228 102
Width: 514
Flags: W
LayerCount: 2
Fore
SplineSet
126 -10 m 0,0,1
 68 -10 68 -10 30.5 23.5 c 128,-1,2
 -7 57 -7 57 -7 115 c 0,3,4
 -7 193 -7 193 44 230.5 c 128,-1,5
 95 268 95 268 158 275.5 c 128,-1,6
 221 283 221 283 263 289 c 1,7,8
 301 301 301 301 301 350 c 0,9,10
 301 386 301 386 277.5 404 c 128,-1,11
 254 422 254 422 216 422 c 0,12,13
 142 422 142 422 97 364 c 1,14,-1
 85 361 l 1,15,16
 96 402 96 402 100 440 c 1,17,18
 146 463 146 463 191 477 c 128,-1,19
 236 491 236 491 280 491 c 0,20,21
 347 491 347 491 394.5 457.5 c 128,-1,22
 442 424 442 424 442 360 c 1,23,24
 440 343 440 343 438 327 c 128,-1,25
 436 311 436 311 432 295 c 2,26,-1
 403 167 l 2,27,28
 397 143 397 143 391.5 117 c 128,-1,29
 386 91 386 91 386 69 c 0,30,31
 386 57 386 57 397 49 c 128,-1,32
 408 41 408 41 421 41 c 0,33,34
 428 41 428 41 436 42.5 c 128,-1,35
 444 44 444 44 448 45 c 1,36,-1
 446 11 l 1,37,38
 404 -7 404 -7 355 -7 c 0,39,40
 316 -7 316 -7 290.5 10 c 128,-1,41
 265 27 265 27 254 63 c 1,42,43
 235 27 235 27 202 8.5 c 128,-1,44
 169 -10 169 -10 126 -10 c 0,0,1
226 701 m 0,45,46
 254 701 254 701 274 681 c 128,-1,47
 294 661 294 661 294 632 c 256,48,49
 294 603 294 603 275 584 c 128,-1,50
 256 565 256 565 226 565 c 0,51,52
 197 565 197 565 177 584 c 128,-1,53
 157 603 157 603 157 632 c 256,54,55
 157 661 157 661 177 681 c 128,-1,56
 197 701 197 701 226 701 c 0,45,46
409 701 m 0,57,58
 436 701 436 701 456 681 c 128,-1,59
 476 661 476 661 476 632 c 256,60,61
 476 603 476 603 458 584 c 128,-1,62
 440 565 440 565 410 565 c 0,63,64
 381 565 381 565 361 584 c 128,-1,65
 341 603 341 603 341 632 c 256,66,67
 341 661 341 661 361 681 c 128,-1,68
 381 701 381 701 409 701 c 0,57,58
136 128 m 1,69,70
 136 102 136 102 148 83.5 c 128,-1,71
 160 65 160 65 184 65 c 0,72,73
 242 65 242 65 257 140.5 c 128,-1,74
 272 216 272 216 276 236 c 1,75,76
 218 236 218 236 179.5 209.5 c 128,-1,77
 141 183 141 183 136 128 c 1,69,70
EndSplineSet
EndChar
StartChar: ccedilla
Encoding: 231 231 105
Width: 474
Flags: W
LayerCount: 2
Fore
SplineSet
239 -10 m 0,0,1
 139 -10 139 -10 70.5 43.5 c 128,-1,2
 2 97 2 97 2 194 c 0,3,4
 2 318 2 318 92.5 404.5 c 128,-1,5
 183 491 183 491 308 491 c 0,6,7
 357 491 357 491 397.5 481.5 c 128,-1,8
 438 472 438 472 476 448 c 1,9,10
 462 421 462 421 449.5 380 c 128,-1,11
 437 339 437 339 430 317 c 1,12,-1
 414 314 l 1,13,-1
 415 335 l 1,14,15
 415 381 415 381 387 412 c 128,-1,16
 359 443 359 443 313 443 c 0,17,18
 234 443 234 443 197 365.5 c 128,-1,19
 160 288 160 288 160 200 c 0,20,21
 160 137 160 137 189 95 c 128,-1,22
 218 53 218 53 280 53 c 0,23,24
 307 53 307 53 334.5 63.5 c 128,-1,25
 362 74 362 74 388 92 c 1,26,-1
 400 80 l 1,27,-1
 362 11 l 1,28,29
 331 1 331 1 300.5 -4.5 c 128,-1,30
 270 -10 270 -10 239 -10 c 0,0,1
65 -140 m 1,31,32
 111 -159 111 -159 136.5 -165.5 c 128,-1,33
 162 -172 162 -172 184 -172 c 0,34,35
 204 -172 204 -172 219.5 -162 c 128,-1,36
 235 -152 235 -152 235 -133 c 256,37,38
 235 -114 235 -114 221 -104.5 c 128,-1,39
 207 -95 207 -95 186 -95 c 0,40,41
 167 -95 167 -95 145 -100 c 1,42,-1
 178 1 l 1,43,-1
 220 1 l 1,44,-1
 202 -54 l 1,45,-1
 232 -51 l 1,46,47
 271 -51 271 -51 296.5 -72 c 128,-1,48
 322 -93 322 -93 322 -131 c 0,49,50
 322 -177 322 -177 291 -199.5 c 128,-1,51
 260 -222 260 -222 212 -222 c 0,52,53
 182 -222 182 -222 141.5 -210 c 128,-1,54
 101 -198 101 -198 68 -181 c 1,55,-1
 65 -140 l 1,31,32
EndSplineSet
EndChar
StartChar: egrave
Encoding: 232 232 107
Width: 514
Flags: W
LayerCount: 2
Fore
SplineSet
242 -13 m 0,0,1
 142 -13 142 -13 72 43.5 c 128,-1,2
 2 100 2 100 2 198 c 0,3,4
 2 318 2 318 85 405 c 128,-1,5
 168 492 168 492 288 492 c 0,6,7
 376 492 376 492 428 445 c 128,-1,8
 480 398 480 398 480 310 c 0,9,10
 480 288 480 288 477 266.5 c 128,-1,11
 474 245 474 245 472 232 c 1,12,-1
 290 234 l 1,13,-1
 162 233 l 1,14,15
 160 225 160 225 160 215 c 128,-1,16
 160 205 160 205 160 199 c 2,17,-1
 160 187 l 2,18,19
 160 124 160 124 196.5 89.5 c 128,-1,20
 233 55 233 55 296 55 c 0,21,22
 371 55 371 55 437 103 c 1,23,-1
 448 90 l 1,24,25
 424 52 424 52 410 23 c 1,26,27
 325 -13 325 -13 242 -13 c 0,0,1
359 545 m 1,28,-1
 222 630 l 2,29,30
 202 642 202 642 191.5 655.5 c 128,-1,31
 181 669 181 669 181 686 c 0,32,33
 181 705 181 705 196.5 718.5 c 128,-1,34
 212 732 212 732 230 732 c 256,35,36
 248 732 248 732 259.5 723.5 c 128,-1,37
 271 715 271 715 288 696 c 1,38,-1
 408 545 l 1,39,-1
 359 545 l 1,28,-1
263 284 m 1,40,-1
 332 287 l 1,41,42
 343 323 343 323 343 370 c 0,43,44
 343 399 343 399 327.5 423.5 c 128,-1,45
 312 448 312 448 286 448 c 0,46,47
 236 448 236 448 209.5 399 c 128,-1,48
 183 350 183 350 172 287 c 1,49,-1
 263 284 l 1,40,-1
EndSplineSet
EndChar
StartChar: eacute
Encoding: 233 233 106
Width: 514
Flags: W
LayerCount: 2
Fore
SplineSet
242 -13 m 0,0,1
 142 -13 142 -13 72 43.5 c 128,-1,2
 2 100 2 100 2 198 c 0,3,4
 2 318 2 318 85 405 c 128,-1,5
 168 492 168 492 288 492 c 0,6,7
 376 492 376 492 428 445 c 128,-1,8
 480 398 480 398 480 310 c 0,9,10
 480 288 480 288 477 266.5 c 128,-1,11
 474 245 474 245 472 232 c 1,12,-1
 290 234 l 1,13,-1
 162 233 l 1,14,15
 160 225 160 225 160 215 c 128,-1,16
 160 205 160 205 160 199 c 2,17,-1
 160 187 l 2,18,19
 160 124 160 124 196.5 89.5 c 128,-1,20
 233 55 233 55 296 55 c 0,21,22
 371 55 371 55 437 103 c 1,23,-1
 448 90 l 1,24,25
 424 52 424 52 410 23 c 1,26,27
 325 -13 325 -13 242 -13 c 0,0,1
215 545 m 1,28,-1
 362 697 l 2,29,30
 381 716 381 716 393 724 c 128,-1,31
 405 732 405 732 425 732 c 0,32,33
 447 732 447 732 461 717 c 128,-1,34
 475 702 475 702 475 680 c 0,35,36
 475 662 475 662 466 654 c 1,37,38
 455 641 455 641 450 638.5 c 128,-1,39
 445 636 445 636 432 629 c 2,40,-1
 263 545 l 1,41,-1
 215 545 l 1,28,-1
263 284 m 1,42,-1
 332 287 l 1,43,44
 343 323 343 323 343 370 c 0,45,46
 343 399 343 399 327.5 423.5 c 128,-1,47
 312 448 312 448 286 448 c 0,48,49
 236 448 236 448 209.5 399 c 128,-1,50
 183 350 183 350 172 287 c 1,51,-1
 263 284 l 1,42,-1
EndSplineSet
EndChar
StartChar: ecircumflex
Encoding: 234 234 108
Width: 514
Flags: W
LayerCount: 2
Fore
SplineSet
242 -13 m 0,0,1
 142 -13 142 -13 72 43.5 c 128,-1,2
 2 100 2 100 2 198 c 0,3,4
 2 318 2 318 85 405 c 128,-1,5
 168 492 168 492 288 492 c 0,6,7
 376 492 376 492 428 445 c 128,-1,8
 480 398 480 398 480 310 c 0,9,10
 480 288 480 288 477 266.5 c 128,-1,11
 474 245 474 245 472 232 c 1,12,-1
 290 234 l 1,13,-1
 162 233 l 1,14,15
 160 225 160 225 160 215 c 128,-1,16
 160 205 160 205 160 199 c 2,17,-1
 160 187 l 2,18,19
 160 124 160 124 196.5 89.5 c 128,-1,20
 233 55 233 55 296 55 c 0,21,22
 371 55 371 55 437 103 c 1,23,-1
 448 90 l 1,24,25
 424 52 424 52 410 23 c 1,26,27
 325 -13 325 -13 242 -13 c 0,0,1
413 544 m 1,28,-1
 325 638 l 1,29,-1
 197 544 l 1,30,-1
 146 544 l 1,31,-1
 296 722 l 1,32,-1
 378 722 l 1,33,-1
 454 544 l 1,34,-1
 413 544 l 1,28,-1
263 284 m 1,35,-1
 332 287 l 1,36,37
 343 323 343 323 343 370 c 0,38,39
 343 399 343 399 327.5 423.5 c 128,-1,40
 312 448 312 448 286 448 c 0,41,42
 236 448 236 448 209.5 399 c 128,-1,43
 183 350 183 350 172 287 c 1,44,-1
 263 284 l 1,35,-1
EndSplineSet
EndChar
StartChar: edieresis
Encoding: 235 235 107
Width: 514
Flags: HW
LayerCount: 2
Fore
SplineSet
242 -13 m 0
 175.333333333 -13 118.666666667 5.83333333333 72 43.5 c 128
 25.3333333333 81.1666666667 2 132.666666667 2 198 c 0
 2 278 29.6666666667 347 85 405 c 128
 140.333333333 463 208 492 288 492 c 0
 346.666666667 492 393.333333333 476.333333333 428 445 c 128
 462.666666667 413.666666667 480 368.666666667 480 310 c 0
 480 295.333333333 479 280.833333333 477 266.5 c 128
 475 252.166666667 473.333333333 240.666666667 472 232 c 1
 290 234 l 1
 162 233 l 1
 160.666666667 227.666666667 160 221.666666667 160 215 c 128
 160 205 160 205 160 199 c 2
 160 187 l 2
 160 145 172.166666667 112.5 196.5 89.5 c 128
 220.833333333 66.5 254 55 296 55 c 0
 346 55 393 71 437 103 c 1
 448 90 l 1
 432 64.6666666667 419.333333333 42.3333333333 410 23 c 1
 353.333333333 -1 297.333333333 -13 242 -13 c 0
235 701 m 0
 253 701 268.666666667 694.333333333 282 681 c 128
 295.333333333 667.666666667 302 651.333333333 302 632 c 0
 302 614 295.666666667 598.333333333 283 585 c 128
 270.333333333 571.666666667 254.333333333 565 235 565 c 0
 216.333333333 565 200.166666667 571.5 186.5 584.5 c 128
 172.833333333 597.5 166 613.333333333 166 632 c 0
 166 651.333333333 172.666666667 667.666666667 186 681 c 128
 199.333333333 694.333333333 215.666666667 701 235 701 c 0
418 701 m 256
 436.666666667 701 452.666666667 694.333333333 466 681 c 128
 479.333333333 667.666666667 486 651.333333333 486 632 c 0
 486 613.333333333 479.5 597.5 466.5 584.5 c 128
 453.5 571.5 437.666666667 565 419 565 c 256
 400.333333333 565 384.166666667 571.5 370.5 584.5 c 128
 356.833333333 597.5 350 613.333333333 350 632 c 0
 350 651.333333333 356.666666667 667.666666667 370 681 c 128
 383.333333333 694.333333333 399.333333333 701 418 701 c 256
263 284 m 1
 332 287 l 1
 339.333333333 311 343 338.666666667 343 370 c 0
 343 389.333333333 337.833333333 407.166666667 327.5 423.5 c 128
 317.166666667 439.833333333 303.333333333 448 286 448 c 0
 253.333333333 448 228.666666667 432.166666667 212 400.5 c 128
 195.333333333 368.833333333 182 331 172 287 c 1
 263 284 l 1
EndSplineSet
EndChar
StartChar: icircumflex
Encoding: 238 238 110
Width: 283
Flags: HW
LayerCount: 2
Fore
SplineSet
94 480 m 1
 106 480 122 479.166666667 142 477.5 c 128
 162 475.833333333 173.333333333 475 176 475 c 0
 187.333333333 475 202.166666667 475.833333333 220.5 477.5 c 128
 238.833333333 479.166666667 249.333333333 480 252 480 c 1
 231.333333333 402.666666667 212.333333333 322 195 238 c 128
 177.666666667 154 164 74.6666666667 154 0 c 1
 145.333333333 0 132.666666667 0.666666666667 116 2 c 128
 99.3333333333 3.33333333333 87 4 79 4 c 0
 68.3333333333 4 52.3333333333 3.33333333333 31 2 c 128
 9.66666666667 0.666666666667 -3 0 -7 0 c 1
 7.66666666667 62 21.6666666667 122.666666667 35 182 c 128
 48.3333333333 241.333333333 58.6666666667 289.166666667 66 325.5 c 128
 73.3333333333 361.833333333 82.6666666667 413.333333333 94 480 c 1
289 544 m 1
 202 638 l 1
 73 544 l 1
 23 544 l 1
 172 722 l 1
 253 722 l 1
 330 544 l 1
 289 544 l 1
EndSplineSet
EndChar
StartChar: idieresis
Encoding: 239 239 111
Width: 283
Flags: HW
LayerCount: 2
Fore
SplineSet
94 480 m 1
 106 480 122 479.166666667 142 477.5 c 128
 162 475.833333333 173.333333333 475 176 475 c 0
 187.333333333 475 202.166666667 475.833333333 220.5 477.5 c 128
 238.833333333 479.166666667 249.333333333 480 252 480 c 1
 231.333333333 402.666666667 212.333333333 322 195 238 c 128
 177.666666667 154 164 74.6666666667 154 0 c 1
 145.333333333 0 132.666666667 0.666666666667 116 2 c 128
 99.3333333333 3.33333333333 87 4 79 4 c 2
 -7 0 l 1
 7.66666666667 62 21.6666666667 122.666666667 35 182 c 128
 48.3333333333 241.333333333 58.6666666667 289.166666667 66 325.5 c 128
 73.3333333333 361.833333333 82.6666666667 413.333333333 94 480 c 1
110 701 m 256
 128.666666667 701 144.666666667 694.333333333 158 681 c 128
 171.333333333 667.666666667 178 651.333333333 178 632 c 256
 178 612.666666667 171.666666667 596.666666667 159 584 c 128
 146.333333333 571.333333333 130.666666667 565 112 565 c 0
 92 565 75.3333333333 571.333333333 62 584 c 128
 48.6666666667 596.666666667 42 612.666666667 42 632 c 256
 42 651.333333333 48.6666666667 667.666666667 62 681 c 128
 75.3333333333 694.333333333 91.3333333333 701 110 701 c 256
294 701 m 0
 312 701 327.666666667 694.333333333 341 681 c 128
 354.333333333 667.666666667 361 651.333333333 361 632 c 256
 361 612.666666667 355 596.666666667 343 584 c 128
 331 571.333333333 315 565 295 565 c 0
 275.666666667 565 259.333333333 571.333333333 246 584 c 128
 232.666666667 596.666666667 226 612.666666667 226 632 c 256
 226 651.333333333 232.666666667 667.666666667 246 681 c 128
 259.333333333 694.333333333 275.333333333 701 294 701 c 0
EndSplineSet
EndChar
StartChar: ocircumflex
Encoding: 244 244 116
Width: 562
Flags: W
LayerCount: 2
Fore
SplineSet
282 495 m 0,0,1
 387 495 387 495 454.5 442.5 c 128,-1,2
 522 390 522 390 522 287 c 0,3,4
 522 169 522 169 439 78 c 128,-1,5
 356 -13 356 -13 241 -13 c 0,6,7
 131 -13 131 -13 67.5 37.5 c 128,-1,8
 4 88 4 88 4 196 c 0,9,10
 4 255 4 255 28.5 320.5 c 128,-1,11
 53 386 53 386 125 440.5 c 128,-1,12
 197 495 197 495 282 495 c 0,0,1
428 545 m 1,13,-1
 341 639 l 1,14,-1
 212 545 l 1,15,-1
 162 545 l 1,16,-1
 312 723 l 1,17,-1
 394 723 l 1,18,-1
 469 545 l 1,19,-1
 428 545 l 1,13,-1
154 140 m 0,20,21
 154 101 154 101 170 68 c 128,-1,22
 186 35 186 35 221 35 c 0,23,24
 297 35 297 35 333.5 144.5 c 128,-1,25
 370 254 370 254 370 351 c 0,26,27
 370 392 370 392 354 422 c 128,-1,28
 338 452 338 452 301 452 c 0,29,30
 238 452 238 452 211 385 c 128,-1,31
 184 318 184 318 174 272 c 1,32,33
 165 242 165 242 159.5 205.5 c 128,-1,34
 154 169 154 169 154 140 c 0,20,21
EndSplineSet
EndChar
StartChar: odieresis
Encoding: 246 246 117
Width: 562
Flags: W
LayerCount: 2
Fore
SplineSet
282 495 m 0,0,1
 387 495 387 495 454.5 442.5 c 128,-1,2
 522 390 522 390 522 287 c 0,3,4
 522 169 522 169 439 78 c 128,-1,5
 356 -13 356 -13 241 -13 c 0,6,7
 131 -13 131 -13 67.5 37.5 c 128,-1,8
 4 88 4 88 4 196 c 0,9,10
 4 255 4 255 28.5 320.5 c 128,-1,11
 53 386 53 386 125 440.5 c 128,-1,12
 197 495 197 495 282 495 c 0,0,1
251 701 m 0,13,14
 278 701 278 701 298 681 c 128,-1,15
 318 661 318 661 318 632 c 256,16,17
 318 603 318 603 299 584 c 128,-1,18
 280 565 280 565 251 565 c 256,19,20
 222 565 222 565 202 584 c 128,-1,21
 182 603 182 603 182 632 c 256,22,23
 182 661 182 661 202 681 c 128,-1,24
 222 701 222 701 251 701 c 0,13,14
433 701 m 0,25,26
 460 701 460 701 481 681 c 128,-1,27
 502 661 502 661 502 632 c 256,28,29
 502 603 502 603 483 584 c 128,-1,30
 464 565 464 565 434 565 c 0,31,32
 406 565 406 565 386 584 c 128,-1,33
 366 603 366 603 366 632 c 0,34,35
 366 660 366 660 385.5 680.5 c 128,-1,36
 405 701 405 701 433 701 c 0,25,26
154 140 m 0,37,38
 154 101 154 101 170 68 c 128,-1,39
 186 35 186 35 221 35 c 0,40,41
 297 35 297 35 333.5 144.5 c 128,-1,42
 370 254 370 254 370 351 c 0,43,44
 370 392 370 392 354 422 c 128,-1,45
 338 452 338 452 301 452 c 0,46,47
 248 452 248 452 218.5 397 c 128,-1,48
 189 342 189 342 174 272 c 1,49,50
 165 242 165 242 159.5 205.5 c 128,-1,51
 154 169 154 169 154 140 c 0,37,38
EndSplineSet
EndChar
StartChar: divide
Encoding: 247 247 139
Width: 818
Flags: HW
LayerCount: 2
Fore
SplineSet
481 480 m 0
 481 460.666666667 474 444 460 430 c 128
 446 416 428.666666667 409 408 409 c 0
 388 409 371.166666667 416.166666667 357.5 430.5 c 128
 343.833333333 444.833333333 337 461.666666667 337 481 c 0
 337 501 344 518 358 532 c 128
 372 546 389 553 409 553 c 256
 429 553 446 546 460 532 c 128
 474 518 481 500.666666667 481 480 c 0
697 341 m 1
 697 246 l 1
 122 246 l 1
 122 341 l 1
 697 341 l 1
480 106 m 256
 480 86 473 68.6666666667 459 54 c 128
 445 39.3333333333 428.333333333 32 409 32 c 256
 389.666666667 32 372.833333333 38.8333333333 358.5 52.5 c 128
 344.166666667 66.1666666667 337 83 337 103 c 256
 337 123 344.166666667 140.166666667 358.5 154.5 c 128
 372.833333333 168.833333333 389.666666667 176 409 176 c 256
 428.333333333 176 445 169.333333333 459 156 c 128
 473 142.666666667 480 126 480 106 c 256
EndSplineSet
EndChar
StartChar: ugrave
Encoding: 249 249 118
Width: 582
Flags: W
LayerCount: 2
Fore
SplineSet
454 0 m 1,0,1
 442 0 442 0 412 2 c 128,-1,2
 382 4 382 4 380 4 c 0,3,4
 367 4 367 4 335.5 2 c 128,-1,5
 304 0 304 0 301 0 c 1,6,7
 314 28 314 28 319 62 c 1,8,9
 285 29 285 29 240.5 9.5 c 128,-1,10
 196 -10 196 -10 149 -10 c 0,11,12
 91 -10 91 -10 54.5 20 c 128,-1,13
 18 50 18 50 18 107 c 0,14,15
 18 127 18 127 21.5 149.5 c 128,-1,16
 25 172 25 172 31 198 c 2,17,-1
 56 307 l 2,18,19
 65 343 65 343 72 382 c 128,-1,20
 79 421 79 421 88 481 c 1,21,-1
 166 478 l 1,22,-1
 251 481 l 1,23,24
 217 361 217 361 194.5 270.5 c 128,-1,25
 172 180 172 180 172 130 c 0,26,27
 172 102 172 102 184.5 85 c 128,-1,28
 197 68 197 68 224 68 c 0,29,30
 239 68 239 68 252 76 c 1,31,32
 316 109 316 109 337.5 177 c 128,-1,33
 359 245 359 245 373 361 c 1,34,-1
 394 481 l 1,35,-1
 474 478 l 1,36,-1
 556 481 l 1,37,38
 495 246 495 246 454 0 c 1,0,1
389 545 m 1,39,-1
 252 630 l 1,40,41
 232 641 232 641 221 654 c 128,-1,42
 210 667 210 667 210 685 c 0,43,44
 210 704 210 704 225 718 c 128,-1,45
 240 732 240 732 259 732 c 0,46,47
 277 732 277 732 288.5 723.5 c 128,-1,48
 300 715 300 715 317 696 c 1,49,-1
 437 545 l 1,50,-1
 389 545 l 1,39,-1
EndSplineSet
EndChar
StartChar: ucircumflex
Encoding: 251 251 119
Width: 582
Flags: W
LayerCount: 2
Fore
SplineSet
454 0 m 1,0,1
 442 0 442 0 412 2 c 128,-1,2
 382 4 382 4 380 4 c 0,3,4
 367 4 367 4 335.5 2 c 128,-1,5
 304 0 304 0 301 0 c 1,6,7
 314 28 314 28 319 62 c 1,8,9
 285 29 285 29 240.5 9.5 c 128,-1,10
 196 -10 196 -10 149 -10 c 0,11,12
 91 -10 91 -10 54.5 20 c 128,-1,13
 18 50 18 50 18 107 c 0,14,15
 18 127 18 127 21.5 149.5 c 128,-1,16
 25 172 25 172 31 198 c 2,17,-1
 56 307 l 2,18,19
 65 343 65 343 72 382 c 128,-1,20
 79 421 79 421 88 481 c 1,21,-1
 166 478 l 1,22,-1
 251 481 l 1,23,24
 217 361 217 361 194.5 270.5 c 128,-1,25
 172 180 172 180 172 130 c 0,26,27
 172 102 172 102 184.5 85 c 128,-1,28
 197 68 197 68 224 68 c 0,29,30
 239 68 239 68 252 76 c 1,31,32
 316 109 316 109 337.5 177 c 128,-1,33
 359 245 359 245 373 361 c 1,34,-1
 394 481 l 1,35,-1
 474 478 l 1,36,-1
 556 481 l 1,37,38
 495 246 495 246 454 0 c 1,0,1
443 544 m 1,39,-1
 355 638 l 1,40,-1
 226 544 l 1,41,-1
 176 544 l 1,42,-1
 325 722 l 1,43,-1
 407 722 l 1,44,-1
 484 544 l 1,45,-1
 443 544 l 1,39,-1
EndSplineSet
EndChar
StartChar: udieresis
Encoding: 252 252 120
Width: 582
Flags: W
LayerCount: 2
Fore
SplineSet
454 0 m 1,0,1
 442 0 442 0 412 2 c 128,-1,2
 382 4 382 4 380 4 c 0,3,4
 367 4 367 4 335.5 2 c 128,-1,5
 304 0 304 0 301 0 c 1,6,7
 314 28 314 28 319 62 c 1,8,9
 285 29 285 29 240.5 9.5 c 128,-1,10
 196 -10 196 -10 149 -10 c 0,11,12
 91 -10 91 -10 54.5 20 c 128,-1,13
 18 50 18 50 18 107 c 0,14,15
 18 127 18 127 21.5 149.5 c 128,-1,16
 25 172 25 172 31 198 c 2,17,-1
 56 307 l 2,18,19
 65 343 65 343 72 382 c 128,-1,20
 79 421 79 421 88 481 c 1,21,-1
 166 478 l 1,22,-1
 251 481 l 1,23,24
 217 361 217 361 194.5 270.5 c 128,-1,25
 172 180 172 180 172 130 c 0,26,27
 172 102 172 102 184.5 85 c 128,-1,28
 197 68 197 68 224 68 c 0,29,30
 239 68 239 68 252 76 c 1,31,32
 316 109 316 109 337.5 177 c 128,-1,33
 359 245 359 245 373 361 c 1,34,-1
 394 481 l 1,35,-1
 474 478 l 1,36,-1
 556 481 l 1,37,38
 495 246 495 246 454 0 c 1,0,1
263 701 m 256,39,40
 291 701 291 701 311 681 c 128,-1,41
 331 661 331 661 331 632 c 256,42,43
 331 603 331 603 312 584 c 128,-1,44
 293 565 293 565 264 565 c 0,45,46
 236 565 236 565 216 584 c 128,-1,47
 196 603 196 603 196 632 c 0,48,49
 196 660 196 660 215.5 680.5 c 128,-1,50
 235 701 235 701 263 701 c 256,39,40
448 701 m 0,51,52
 475 701 475 701 495 681 c 128,-1,53
 515 661 515 661 515 632 c 256,54,55
 515 603 515 603 496 584 c 128,-1,56
 477 565 477 565 448 565 c 256,57,58
 419 565 419 565 399 584 c 128,-1,59
 379 603 379 603 379 632 c 256,60,61
 379 661 379 661 399 681 c 128,-1,62
 419 701 419 701 448 701 c 0,51,52
EndSplineSet
EndChar
StartChar: oe
Encoding: 339 339 135
Width: 872
Flags: W
LayerCount: 2
Fore
SplineSet
217 -14 m 0,0,1
 117 -14 117 -14 60.5 39.5 c 128,-1,2
 4 93 4 93 4 193 c 0,3,4
 4 314 4 314 88 404 c 128,-1,5
 172 494 172 494 293 494 c 0,6,7
 343 494 343 494 389.5 478 c 128,-1,8
 436 462 436 462 464 427 c 1,9,10
 507 458 507 458 551.5 475 c 128,-1,11
 596 492 596 492 644 492 c 0,12,13
 731 492 731 492 785 446.5 c 128,-1,14
 839 401 839 401 839 316 c 0,15,16
 839 297 839 297 837.5 276.5 c 128,-1,17
 836 256 836 256 832 232 c 1,18,-1
 650 234 l 1,19,-1
 522 233 l 1,20,21
 520 222 520 222 519 212 c 128,-1,22
 518 202 518 202 518 187 c 0,23,24
 518 127 518 127 557 91 c 128,-1,25
 596 55 596 55 656 55 c 0,26,27
 732 55 732 55 797 103 c 1,28,-1
 809 90 l 1,29,30
 786 56 786 56 770 23 c 1,31,32
 733 7 733 7 691.5 -3 c 128,-1,33
 650 -13 650 -13 610 -13 c 0,34,35
 551 -13 551 -13 500.5 3 c 128,-1,36
 450 19 450 19 413 56 c 1,37,38
 378 20 378 20 326 3 c 128,-1,39
 274 -14 274 -14 217 -14 c 0,0,1
628 281 m 1,40,-1
 692 283 l 1,41,42
 698 311 698 311 700.5 328.5 c 128,-1,43
 703 346 703 346 703 367 c 0,44,45
 703 403 703 403 690 425.5 c 128,-1,46
 677 448 677 448 643 448 c 0,47,48
 594 448 594 448 570 400.5 c 128,-1,49
 546 353 546 353 532 284 c 1,50,-1
 628 281 l 1,40,-1
157 139 m 0,51,52
 157 101 157 101 176.5 68 c 128,-1,53
 196 35 196 35 232 35 c 0,54,55
 309 35 309 35 346 141 c 128,-1,56
 383 247 383 247 383 341 c 0,57,58
 383 385 383 385 365.5 419.5 c 128,-1,59
 348 454 348 454 308 454 c 0,60,61
 252 454 252 454 222 398.5 c 128,-1,62
 192 343 192 343 176 270 c 1,63,64
 157 203 157 203 157 139 c 0,51,52
EndSplineSet
EndChar
StartChar: Epsilontonos
Encoding: 904 904 178
Width: 704
Flags: HW
LayerCount: 2
Fore
SplineSet
333 671 m 1
 353.666666667 671 384.333333333 670 425 668 c 128
 465.666666667 666 496.333333333 665 517 665 c 0
 541 665 576.333333333 666 623 668 c 128
 669.666666667 670 704.666666667 671 728 671 c 1
 720.666666667 655.666666667 715.166666667 641.333333333 711.5 628 c 128
 707.833333333 614.666666667 706 600.333333333 706 585 c 1
 681.333333333 588.333333333 656.5 591.333333333 631.5 594 c 128
 606.5 596.666666667 582.333333333 598 559 598 c 2
 488 597 l 1
 484 584.333333333 479.833333333 569.833333333 475.5 553.5 c 128
 471.166666667 537.166666667 467.333333333 521.666666667 464 507 c 1
 444 395 l 1
 530 392 l 2
 548.666666667 392 573.5 392.833333333 604.5 394.5 c 128
 635.5 396.166666667 654 397 660 397 c 1
 656 388.333333333 652.666666667 374.666666667 650 356 c 128
 647.333333333 337.333333333 646 322.333333333 646 311 c 1
 630 311 608.5 312.166666667 581.5 314.5 c 128
 554.5 316.833333333 537 318 529 318 c 2
 429 317 l 1
 401 191 l 2
 393 152.333333333 387 115 383 79 c 1
 413 79 458.5 81 519.5 85 c 128
 580.5 89 616 91 626 91 c 1
 622 79 618 64.1666666667 614 46.5 c 128
 610 28.8333333333 607 13.3333333333 605 0 c 1
 583 0 547.666666667 1 499 3 c 128
 450.333333333 5 415 6 393 6 c 0
 371.666666667 6 339.333333333 5 296 3 c 128
 252.666666667 1 220 0 198 0 c 1
 228.666666667 104 255.5 214 278.5 330 c 128
 301.5 446 319.666666667 559.666666667 333 671 c 1
-32 545 m 1
 115 699 l 2
 125 709 135.333333333 717.166666667 146 723.5 c 128
 156.666666667 729.833333333 167.333333333 733 178 733 c 0
 190.666666667 733 202 727.333333333 212 716 c 128
 222 704.666666667 227 693 227 681 c 0
 227 669.666666667 223.166666667 660.166666667 215.5 652.5 c 128
 207.833333333 644.833333333 197.666666667 637 185 629 c 1
 16 545 l 1
 -32 545 l 1
EndSplineSet
EndChar
StartChar: OE
Encoding: 904 904 180
Width: 704
Flags: W
LayerCount: 2
Fore
SplineSet
333 671 m 1,0,1
 364 671 364 671 425 668 c 128,-1,2
 486 665 486 665 517 665 c 0,3,4
 553 665 553 665 623 668 c 128,-1,5
 693 671 693 671 728 671 c 1,6,7
 717 648 717 648 711.5 628 c 128,-1,8
 706 608 706 608 706 585 c 1,9,10
 669 590 669 590 631.5 594 c 128,-1,11
 594 598 594 598 559 598 c 2,12,-1
 488 597 l 1,13,14
 482 578 482 578 475.5 553.5 c 128,-1,15
 469 529 469 529 464 507 c 1,16,-1
 444 395 l 1,17,-1
 530 392 l 2,18,19
 558 392 558 392 604.5 394.5 c 128,-1,20
 651 397 651 397 660 397 c 1,21,22
 654 384 654 384 650 356 c 128,-1,23
 646 328 646 328 646 311 c 1,24,25
 622 311 622 311 581.5 314.5 c 128,-1,26
 541 318 541 318 529 318 c 2,27,-1
 429 317 l 1,28,-1
 401 191 l 2,29,30
 389 133 389 133 383 79 c 1,31,32
 428 79 428 79 519.5 85 c 128,-1,33
 611 91 611 91 626 91 c 1,34,35
 620 73 620 73 614 46.5 c 128,-1,36
 608 20 608 20 605 0 c 1,37,38
 572 0 572 0 499 3 c 128,-1,39
 426 6 426 6 393 6 c 0,40,41
 361 6 361 6 296 3 c 128,-1,42
 231 0 231 0 198 0 c 1,43,44
 244 156 244 156 278.5 330 c 128,-1,45
 313 504 313 504 333 671 c 1,0,1
-32 545 m 1,46,-1
 115 699 l 2,47,48
 130 714 130 714 146 723.5 c 128,-1,49
 162 733 162 733 178 733 c 0,50,51
 197 733 197 733 212 716 c 128,-1,52
 227 699 227 699 227 681 c 0,53,54
 227 664 227 664 215.5 652.5 c 128,-1,55
 204 641 204 641 185 629 c 1,56,-1
 16 545 l 1,57,-1
 -32 545 l 1,46,-1
EndSplineSet
EndChar
StartChar: Etatonos
Encoding: 905 905 180
Width: 938
Flags: HW
LayerCount: 2
Fore
SplineSet
402 171 m 2
 397.333333333 148.333333333 392.666666667 119.833333333 388 85.5 c 128
 383.333333333 51.1666666667 380 22.6666666667 378 0 c 1
 358 2 340.5 3.66666666667 325.5 5 c 128
 310.5 6.33333333333 298 7 288 7 c 0
 273.333333333 7 257.333333333 6 240 4 c 128
 222.666666667 2 209.333333333 0.666666666667 200 0 c 1
 224.666666667 98 244.833333333 180.5 260.5 247.5 c 128
 276.166666667 314.5 290.666666667 383.166666667 304 453.5 c 128
 317.333333333 523.833333333 328 596.333333333 336 671 c 1
 350 669.666666667 365.5 668.166666667 382.5 666.5 c 128
 399.5 664.833333333 413 664 423 664 c 0
 437.666666667 664 454 665 472 667 c 128
 490 669 504 670.333333333 514 671 c 1
 506 643.666666667 499 617.833333333 493 593.5 c 128
 487 569.166666667 481.666666667 545.666666667 477 523 c 2
 450 403 l 1
 588 399 l 1
 712 403 l 1
 733 501 l 2
 738.333333333 527.666666667 743.833333333 561.5 749.5 602.5 c 128
 755.166666667 643.5 758.333333333 666.333333333 759 671 c 1
 779 669 796.5 667.333333333 811.5 666 c 128
 826.5 664.666666667 839 664 849 664 c 0
 863.666666667 664 879.666666667 665 897 667 c 128
 914.333333333 669 928 670.333333333 938 671 c 1
 918.666666667 599.666666667 899.666666667 525.166666667 881 447.5 c 128
 862.333333333 369.833333333 846 292.5 832 215.5 c 128
 818 138.5 807.333333333 66.6666666667 800 0 c 1
 786 1.33333333333 771 2.83333333333 755 4.5 c 128
 739 6.16666666667 726.333333333 7 717 7 c 0
 701.666666667 7 685.666666667 6.16666666667 669 4.5 c 128
 652.333333333 2.83333333333 637 1.33333333333 623 0 c 1
 660 148 l 1
 698 323 l 1
 684 323 660.666666667 323.666666667 628 325 c 128
 595.333333333 326.333333333 572.333333333 327 559 327 c 256
 545.666666667 327 525 326 497 324 c 128
 469 322 448 321 434 321 c 1
 402 171 l 2
-32 545 m 1
 115 699 l 2
 125 709 135.333333333 717.166666667 146 723.5 c 128
 156.666666667 729.833333333 167.333333333 733 178 733 c 0
 190.666666667 733 202 727.333333333 212 716 c 128
 222 704.666666667 227 693 227 681 c 0
 227 669.666666667 223.166666667 660.166666667 215.5 652.5 c 128
 207.833333333 644.833333333 197.666666667 637 185 629 c 1
 16 545 l 1
 -32 545 l 1
EndSplineSet
EndChar
StartChar: lozenge
Encoding: 905 905 182
Width: 938
Flags: W
LayerCount: 2
Fore
SplineSet
402 171 m 2,0,1
 395 137 395 137 388 85.5 c 128,-1,2
 381 34 381 34 378 0 c 1,3,4
 348 3 348 3 325.5 5 c 128,-1,5
 303 7 303 7 288 7 c 0,6,7
 266 7 266 7 240 4 c 128,-1,8
 214 1 214 1 200 0 c 1,9,10
 237 147 237 147 260.5 247.5 c 128,-1,11
 284 348 284 348 304 453.5 c 128,-1,12
 324 559 324 559 336 671 c 1,13,14
 357 669 357 669 382.5 666.5 c 128,-1,15
 408 664 408 664 423 664 c 0,16,17
 445 664 445 664 472 667 c 128,-1,18
 499 670 499 670 514 671 c 1,19,20
 502 630 502 630 493 593.5 c 128,-1,21
 484 557 484 557 477 523 c 2,22,-1
 450 403 l 1,23,-1
 588 399 l 1,24,-1
 712 403 l 1,25,-1
 733 501 l 2,26,27
 741 541 741 541 749.5 602.5 c 128,-1,28
 758 664 758 664 759 671 c 1,29,30
 789 668 789 668 811.5 666 c 128,-1,31
 834 664 834 664 849 664 c 0,32,33
 871 664 871 664 897 667 c 128,-1,34
 923 670 923 670 938 671 c 1,35,36
 909 564 909 564 881 447.5 c 128,-1,37
 853 331 853 331 832 215.5 c 128,-1,38
 811 100 811 100 800 0 c 1,39,40
 779 2 779 2 755 4.5 c 128,-1,41
 731 7 731 7 717 7 c 0,42,43
 694 7 694 7 669 4.5 c 128,-1,44
 644 2 644 2 623 0 c 1,45,-1
 660 148 l 1,46,-1
 698 323 l 1,47,48
 677 323 677 323 628 325 c 128,-1,49
 579 327 579 327 559 327 c 256,50,51
 539 327 539 327 497 324 c 128,-1,52
 455 321 455 321 434 321 c 1,53,-1
 402 171 l 2,0,1
-32 545 m 1,54,-1
 115 699 l 2,55,56
 130 714 130 714 146 723.5 c 128,-1,57
 162 733 162 733 178 733 c 0,58,59
 197 733 197 733 212 716 c 128,-1,60
 227 699 227 699 227 681 c 0,61,62
 227 664 227 664 215.5 652.5 c 128,-1,63
 204 641 204 641 185 629 c 1,64,-1
 16 545 l 1,65,-1
 -32 545 l 1,54,-1
EndSplineSet
EndChar
StartChar: ydieresis
Encoding: 906 906 183
Width: 530
Flags: W
LayerCount: 2
Fore
SplineSet
388 0 m 1,0,1
 379 0 379 0 341.5 3.5 c 128,-1,2
 304 7 304 7 288 7 c 0,3,4
 264 7 264 7 240 4 c 128,-1,5
 216 1 216 1 206 0 c 1,6,7
 238 117 238 117 267 234 c 128,-1,8
 296 351 296 351 315 455 c 128,-1,9
 334 559 334 559 343 671 c 1,10,11
 372 668 372 668 394.5 666 c 128,-1,12
 417 664 417 664 433 664 c 0,13,14
 455 664 455 664 483 667 c 128,-1,15
 511 670 511 670 525 671 c 1,16,17
 479 536 479 536 442 349.5 c 128,-1,18
 405 163 405 163 388 0 c 1,0,1
-32 545 m 1,19,-1
 115 699 l 2,20,21
 130 714 130 714 146 723.5 c 128,-1,22
 162 733 162 733 178 733 c 0,23,24
 197 733 197 733 212 716 c 128,-1,25
 227 699 227 699 227 681 c 0,26,27
 227 664 227 664 215.5 652.5 c 128,-1,28
 204 641 204 641 185 629 c 1,29,-1
 16 545 l 1,30,-1
 -32 545 l 1,19,-1
EndSplineSet
EndChar
StartChar: Ydieresis
Encoding: 908 908 182
Width: 954
Flags: HW
LayerCount: 2
Fore
SplineSet
175 283 m 0
 175 393.666666667 213 488.333333333 289 567 c 128
 365 645.666666667 457 685 565 685 c 0
 673.666666667 685 761.333333333 662.5 828 617.5 c 128
 894.666666667 572.5 928 498 928 394 c 0
 928 279.333333333 887.666666667 183.333333333 807 106 c 128
 726.333333333 28.6666666667 628.333333333 -10 513 -10 c 0
 476.333333333 -10 445 -8.33333333333 419 -5 c 128
 393 -1.66666666667 360.5 8.33333333333 321.5 25 c 128
 282.5 41.6666666667 248.333333333 74.1666666667 219 122.5 c 128
 189.666666667 170.833333333 175 224.333333333 175 283 c 0
-32 545 m 1
 115 699 l 2
 125 709 135.333333333 717.166666667 146 723.5 c 128
 156.666666667 729.833333333 167.333333333 733 178 733 c 0
 190.666666667 733 202 727.333333333 212 716 c 128
 222 704.666666667 227 693 227 681 c 0
 227 669.666666667 223.166666667 660.166666667 215.5 652.5 c 128
 207.833333333 644.833333333 197.666666667 637 185 629 c 1
 16 545 l 1
 -32 545 l 1
353 260 m 0
 353 200.666666667 366 151.5 392 112.5 c 128
 418 73.5 460 54 518 54 c 0
 598 54 657.5 91.3333333333 696.5 166 c 128
 735.5 240.666666667 755 322.333333333 755 411 c 0
 755 469.666666667 741.166666667 519.333333333 713.5 560 c 128
 685.833333333 600.666666667 644 621 588 621 c 0
 526 621 476.5 596 439.5 546 c 128
 402.5 496 378.833333333 445.166666667 368.5 393.5 c 128
 358.166666667 341.833333333 353 297.333333333 353 260 c 0
EndSplineSet
EndChar
StartChar: Upsilontonos
Encoding: 910 910 183
Width: 798
Flags: HW
LayerCount: 2
Fore
SplineSet
385 58 m 1
 413 187 l 1
 433 282 l 1
 417 351.333333333 400 417.5 382 480.5 c 128
 364 543.5 343 607 319 671 c 1
 333.666666667 669.666666667 348.666666667 668.333333333 364 667 c 128
 379.333333333 665.666666667 393.666666667 665 407 665 c 0
 421 665 436.666666667 665.666666667 454 667 c 128
 471.333333333 668.333333333 488 669.666666667 504 671 c 1
 520 573.666666667 542.333333333 479.666666667 571 389 c 1
 605.666666667 432.333333333 638.5 477.166666667 669.5 523.5 c 128
 700.5 569.833333333 731.333333333 619 762 671 c 1
 771.333333333 669.666666667 782.5 668.333333333 795.5 667 c 128
 808.5 665.666666667 816.666666667 665 820 665 c 0
 828 665 836.833333333 665.666666667 846.5 667 c 128
 856.166666667 668.333333333 866 669.666666667 876 671 c 1
 776.666666667 546.333333333 683.666666667 420 597 292 c 1
 574 193 l 1
 563.333333333 141.666666667 555.833333333 103.5 551.5 78.5 c 128
 547.166666667 53.5 545 27.3333333333 545 0 c 1
 530.333333333 1.33333333333 514.833333333 2.83333333333 498.5 4.5 c 128
 482.166666667 6.16666666667 469 7 459 7 c 0
 445 7 429 6 411 4 c 128
 393 2 379.333333333 0.666666666667 370 0 c 1
 385 58 l 1
-32 545 m 1
 115 699 l 2
 125 709 135.333333333 717.166666667 146 723.5 c 128
 156.666666667 729.833333333 167.333333333 733 178 733 c 0
 190.666666667 733 202 727.333333333 212 716 c 128
 222 704.666666667 227 693 227 681 c 0
 227 669.666666667 223.166666667 660.166666667 215.5 652.5 c 128
 207.833333333 644.833333333 197.666666667 637 185 629 c 1
 16 545 l 1
 -32 545 l 1
EndSplineSet
EndChar
StartChar: fraction
Encoding: 910 910 185
Width: 798
Flags: W
LayerCount: 2
Fore
SplineSet
385 58 m 1,0,-1
 413 187 l 1,1,-1
 433 282 l 1,2,3
 409 386 409 386 382 480.5 c 128,-1,4
 355 575 355 575 319 671 c 1,5,6
 341 669 341 669 364 667 c 128,-1,7
 387 665 387 665 407 665 c 0,8,9
 428 665 428 665 454 667 c 128,-1,10
 480 669 480 669 504 671 c 1,11,12
 528 525 528 525 571 389 c 1,13,14
 623 454 623 454 669.5 523.5 c 128,-1,15
 716 593 716 593 762 671 c 1,16,17
 776 669 776 669 795.5 667 c 128,-1,18
 815 665 815 665 820 665 c 0,19,20
 832 665 832 665 846.5 667 c 128,-1,21
 861 669 861 669 876 671 c 1,22,23
 727 484 727 484 597 292 c 1,24,-1
 574 193 l 1,25,26
 558 116 558 116 551.5 78.5 c 128,-1,27
 545 41 545 41 545 0 c 1,28,29
 523 2 523 2 498.5 4.5 c 128,-1,30
 474 7 474 7 459 7 c 0,31,32
 438 7 438 7 411 4 c 128,-1,33
 384 1 384 1 370 0 c 1,34,-1
 385 58 l 1,0,-1
-32 545 m 1,35,-1
 115 699 l 2,36,37
 130 714 130 714 146 723.5 c 128,-1,38
 162 733 162 733 178 733 c 0,39,40
 197 733 197 733 212 716 c 128,-1,41
 227 699 227 699 227 681 c 0,42,43
 227 664 227 664 215.5 652.5 c 128,-1,44
 204 641 204 641 185 629 c 1,45,-1
 16 545 l 1,46,-1
 -32 545 l 1,35,-1
EndSplineSet
EndChar
StartChar: fl
Encoding: 911 911 190
Width: 976
Flags: W
LayerCount: 2
Fore
SplineSet
184 301 m 0,0,1
 184 472 184 472 306 578.5 c 128,-1,2
 428 685 428 685 603 685 c 0,3,4
 755 685 755 685 846 612 c 128,-1,5
 937 539 937 539 937 391 c 0,6,7
 937 298 937 298 893 215.5 c 128,-1,8
 849 133 849 133 773 79 c 1,9,10
 812 79 812 79 850.5 83 c 128,-1,11
 889 87 889 87 947 95 c 1,12,13
 937 51 937 51 937 0 c 1,14,-1
 767 4 l 1,15,-1
 578 0 l 1,16,-1
 591 65 l 1,17,18
 685 101 685 101 723.5 197 c 128,-1,19
 762 293 762 293 762 413 c 0,20,21
 762 501 762 501 721.5 561 c 128,-1,22
 681 621 681 621 597 621 c 0,23,24
 472 621 472 621 417.5 507.5 c 128,-1,25
 363 394 363 394 363 251 c 0,26,27
 363 185 363 185 387 134.5 c 128,-1,28
 411 84 411 84 467 66 c 1,29,-1
 453 0 l 1,30,31
 392 0 392 0 329 1 c 128,-1,32
 266 2 266 2 204 3 c 1,33,-1
 101 0 l 1,34,35
 115 48 115 48 115 92 c 1,36,37
 152 88 152 88 198 85 c 128,-1,38
 244 82 244 82 282 82 c 1,39,40
 233 130 233 130 208.5 182.5 c 128,-1,41
 184 235 184 235 184 301 c 0,0,1
-32 545 m 1,42,-1
 115 699 l 2,43,44
 130 714 130 714 146 723.5 c 128,-1,45
 162 733 162 733 178 733 c 0,46,47
 197 733 197 733 212 716 c 128,-1,48
 227 699 227 699 227 681 c 0,49,50
 227 664 227 664 215.5 652.5 c 128,-1,51
 204 641 204 641 185 629 c 1,52,-1
 16 545 l 1,53,-1
 -32 545 l 1,42,-1
EndSplineSet
EndChar
StartChar: hungarumlaut
Encoding: 912 912 217
Width: 283
Flags: HW
LayerCount: 2
Fore
SplineSet
93 480 m 1
 121.666666667 476.666666667 149.333333333 475 176 475 c 0
 186.666666667 475 201.166666667 475.833333333 219.5 477.5 c 128
 237.833333333 479.166666667 249 480 253 480 c 1
 230.333333333 395.333333333 211.166666667 315.333333333 195.5 240 c 128
 179.833333333 164.666666667 165.666666667 84.6666666667 153 0 c 1
 79 4 l 2
 69 4 52.5 3.33333333333 29.5 2 c 128
 6.5 0.666666666667 -5.66666666667 0 -7 0 c 1
 13 84.6666666667 32 169 50 253 c 128
 68 337 82.3333333333 412.666666667 93 480 c 1
51 693 m 256
 67 693 80.6666666667 687.333333333 92 676 c 128
 103.333333333 664.666666667 109 650.666666667 109 634 c 0
 109 616.666666667 104 602.333333333 94 591 c 128
 84 579.666666667 70.3333333333 574 53 574 c 0
 36.3333333333 574 22 579.666666667 10 591 c 128
 -2 602.333333333 -8 616.666666667 -8 634 c 0
 -8 650 -2.16666666667 663.833333333 9.5 675.5 c 128
 21.1666666667 687.166666667 35 693 51 693 c 256
120 545 m 1
 199 670 l 2
 212.333333333 690.666666667 223.833333333 706.333333333 233.5 717 c 128
 243.166666667 727.666666667 255.666666667 733 271 733 c 0
 295.666666667 733 308 720.666666667 308 696 c 0
 308 685.333333333 304.5 675 297.5 665 c 128
 290.5 655 281.666666667 646 271 638 c 2
 159 545 l 1
 120 545 l 1
392 693 m 0
 408 693 421.666666667 687.333333333 433 676 c 128
 444.333333333 664.666666667 450 650.666666667 450 634 c 0
 450 618.666666667 444.833333333 604.833333333 434.5 592.5 c 128
 424.166666667 580.166666667 410.666666667 574 394 574 c 0
 378.666666667 574 364.5 579.833333333 351.5 591.5 c 128
 338.5 603.166666667 332 617.333333333 332 634 c 256
 332 650.666666667 337.666666667 664.666666667 349 676 c 128
 360.333333333 687.333333333 374.666666667 693 392 693 c 0
EndSplineSet
EndChar
StartChar: infinity
Encoding: 913 913 158
Width: 616
Flags: HW
LayerCount: 2
Fore
SplineSet
374 25 m 2
 374 51 372.166666667 78.1666666667 368.5 106.5 c 128
 364.833333333 134.833333333 361.333333333 163 358 191 c 1
 319.333333333 195.666666667 282 198 246 198 c 0
 229.333333333 198 211.166666667 197 191.5 195 c 128
 171.833333333 193 156.333333333 191.666666667 145 191 c 1
 114.333333333 136.333333333 93.8333333333 99.3333333333 83.5 80 c 128
 73.1666666667 60.6666666667 60 34 44 0 c 1
 -6 4 l 2
 -12.6666666667 4 -21.3333333333 3.5 -32 2.5 c 128
 -42.6666666667 1.5 -54.3333333333 0.666666666667 -67 0 c 1
 -19 72 26.6666666667 142.166666667 70 210.5 c 128
 113.333333333 278.833333333 156 347.5 198 416.5 c 128
 240 485.5 292 572 354 676 c 1
 400 672 l 2
 407.333333333 672 415.5 672.5 424.5 673.5 c 128
 433.5 674.5 440.333333333 675.333333333 445 676 c 1
 479 446 l 2
 487 396 495.833333333 342 505.5 284 c 128
 515.166666667 226 524.166666667 176.5 532.5 135.5 c 128
 540.833333333 94.5 552 49.3333333333 566 0 c 1
 541.333333333 3.33333333333 521.166666667 5.66666666667 505.5 7 c 128
 489.833333333 8.33333333333 477 9 467 9 c 0
 454.333333333 9 442.5 8.33333333333 431.5 7 c 128
 420.5 5.66666666667 401.333333333 3.33333333333 374 0 c 1
 374 25 l 2
240 261 m 1
 349 263 l 1
 343.666666667 318.333333333 339.666666667 358.166666667 337 382.5 c 128
 334.333333333 406.833333333 329.666666667 440.666666667 323 484 c 1
 301.666666667 451.333333333 278 414.5 252 373.5 c 128
 226 332.5 203.666666667 295.666666667 185 263 c 1
 240 261 l 1
EndSplineSet
EndChar
StartChar: mu
Encoding: 914 914 161
Width: 599
Flags: W
LayerCount: 2
Fore
SplineSet
135 671 m 1,0,1
 176 667 176 667 188.5 666.5 c 128,-1,2
 201 666 201 666 217 666 c 0,3,4
 247 666 247 666 299.5 669.5 c 128,-1,5
 352 673 352 673 368 673 c 0,6,7
 451 673 451 673 511 640 c 128,-1,8
 571 607 571 607 571 530 c 0,9,10
 571 456 571 456 517.5 409 c 128,-1,11
 464 362 464 362 386 351 c 1,12,-1
 386 345 l 1,13,14
 442 345 442 345 482.5 306.5 c 128,-1,15
 523 268 523 268 523 211 c 0,16,17
 523 94 523 94 444.5 47 c 128,-1,18
 366 0 366 0 240 0 c 0,19,20
 203 0 203 0 141.5 2.5 c 128,-1,21
 80 5 80 5 68 5 c 2,22,-1
 3 0 l 1,23,24
 31 98 31 98 62.5 224 c 128,-1,25
 94 350 94 350 114.5 467.5 c 128,-1,26
 135 585 135 585 135 671 c 1,0,1
412 516 m 0,27,28
 412 559 412 559 389 585 c 128,-1,29
 366 611 366 611 323 611 c 1,30,-1
 290 609 l 1,31,32
 282 580 282 580 274.5 542.5 c 128,-1,33
 267 505 267 505 264 490 c 2,34,-1
 245 382 l 1,35,36
 321 382 321 382 366.5 412.5 c 128,-1,37
 412 443 412 443 412 516 c 0,27,28
207 64 m 1,38,39
 278 64 278 64 319.5 109.5 c 128,-1,40
 361 155 361 155 361 227 c 0,41,42
 361 286 361 286 328.5 304.5 c 128,-1,43
 296 323 296 323 233 323 c 1,44,-1
 209 207 l 1,45,-1
 181 65 l 1,46,-1
 207 64 l 1,38,39
EndSplineSet
EndChar
StartChar: Gamma
Encoding: 915 915 149
Width: 468
Flags: HW
LayerCount: 2
Fore
SplineSet
309 664 m 0
 338.333333333 664 379.333333333 665.166666667 432 667.5 c 128
 484.666666667 669.833333333 518.666666667 671 534 671 c 1
 526.666666667 654.333333333 521 639.333333333 517 626 c 128
 513 612.666666667 511 599 511 585 c 1
 485 589 459.833333333 592.166666667 435.5 594.5 c 128
 411.166666667 596.833333333 386.666666667 598 362 598 c 2
 288 597 l 1
 283.333333333 582.333333333 278.666666667 566 274 548 c 128
 269.333333333 530 266 516.333333333 264 507 c 2
 233 349 l 1
 220.333333333 291 209.833333333 234 201.5 178 c 128
 193.166666667 122 185.666666667 62.6666666667 179 0 c 1
 158.333333333 2 139.833333333 3.66666666667 123.5 5 c 128
 107.166666667 6.33333333333 94.3333333333 7 85 7 c 0
 71 7 55.3333333333 6 38 4 c 128
 20.6666666667 2 7.33333333333 0.666666666667 -2 0 c 1
 2 17.3333333333 18.6666666667 81.6666666667 48 193 c 128
 77.3333333333 304.333333333 98.8333333333 396.166666667 112.5 468.5 c 128
 126.166666667 540.833333333 133 608.333333333 133 671 c 1
 188.333333333 666.333333333 247 664 309 664 c 0
EndSplineSet
EndChar
StartChar: degree
Encoding: 915 915 151
Width: 468
Flags: W
LayerCount: 2
Fore
SplineSet
309 664 m 0,0,1
 353 664 353 664 432 667.5 c 128,-1,2
 511 671 511 671 534 671 c 1,3,4
 523 646 523 646 517 626 c 128,-1,5
 511 606 511 606 511 585 c 1,6,7
 472 591 472 591 435.5 594.5 c 128,-1,8
 399 598 399 598 362 598 c 2,9,-1
 288 597 l 1,10,11
 281 575 281 575 274 548 c 128,-1,12
 267 521 267 521 264 507 c 2,13,-1
 233 349 l 1,14,15
 214 262 214 262 201.5 178 c 128,-1,16
 189 94 189 94 179 0 c 1,17,18
 148 3 148 3 123.5 5 c 128,-1,19
 99 7 99 7 85 7 c 0,20,21
 64 7 64 7 38 4 c 128,-1,22
 12 1 12 1 -2 0 c 1,23,24
 4 26 4 26 48 193 c 128,-1,25
 92 360 92 360 112.5 468.5 c 128,-1,26
 133 577 133 577 133 671 c 1,27,28
 216 664 216 664 309 664 c 0,0,1
EndSplineSet
EndChar
StartChar: Delta
Encoding: 916 916 150
Width: 616
Flags: HW
LayerCount: 2
Fore
SplineSet
354 676 m 1
 362 674.666666667 369.333333333 673.666666667 376 673 c 128
 382.666666667 672.333333333 390.666666667 672 400 672 c 0
 407.333333333 672 415.5 672.5 424.5 673.5 c 128
 433.5 674.5 440.333333333 675.333333333 445 676 c 1
 479 446 l 2
 493.666666667 348.666666667 507 266.833333333 519 200.5 c 128
 531 134.166666667 546.666666667 67.3333333333 566 0 c 1
 541.333333333 0 489.166666667 1.16666666667 409.5 3.5 c 128
 329.833333333 5.83333333333 272 7 236 7 c 0
 201.333333333 7 148.5 5.83333333333 77.5 3.5 c 128
 6.5 1.16666666667 -41.6666666667 0 -67 0 c 1
 -11.6666666667 84 34.8333333333 155.666666667 72.5 215 c 128
 110.166666667 274.333333333 150.333333333 338.833333333 193 408.5 c 128
 235.666666667 478.166666667 289.333333333 567.333333333 354 676 c 1
185 81 m 1
 213.666666667 81 250 81.8333333333 294 83.5 c 128
 338 85.1666666667 363.333333333 86 370 86 c 1
 359 184 l 1
 348.333333333 286.666666667 336.333333333 386.666666667 323 484 c 1
 290.333333333 436.666666667 258 386 226 332 c 1
 86 86 l 1
 185 81 l 1
EndSplineSet
EndChar
StartChar: cent
Encoding: 916 916 152
Width: 616
Flags: W
LayerCount: 2
Fore
SplineSet
354 676 m 1,0,1
 366 674 366 674 376 673 c 128,-1,2
 386 672 386 672 400 672 c 0,3,4
 411 672 411 672 424.5 673.5 c 128,-1,5
 438 675 438 675 445 676 c 1,6,-1
 479 446 l 2,7,8
 501 300 501 300 519 200.5 c 128,-1,9
 537 101 537 101 566 0 c 1,10,11
 529 0 529 0 409.5 3.5 c 128,-1,12
 290 7 290 7 236 7 c 0,13,14
 184 7 184 7 77.5 3.5 c 128,-1,15
 -29 0 -29 0 -67 0 c 1,16,17
 16 126 16 126 72.5 215 c 128,-1,18
 129 304 129 304 193 408.5 c 128,-1,19
 257 513 257 513 354 676 c 1,0,1
185 81 m 1,20,21
 228 81 228 81 294 83.5 c 128,-1,22
 360 86 360 86 370 86 c 1,23,-1
 359 184 l 1,24,25
 343 338 343 338 323 484 c 1,26,27
 274 413 274 413 226 332 c 1,28,-1
 86 86 l 1,29,-1
 185 81 l 1,20,21
EndSplineSet
EndChar
StartChar: partialdiff
Encoding: 917 917 162
Width: 504
Flags: W
LayerCount: 2
Fore
SplineSet
133 671 m 1,0,1
 164 671 164 671 225 668 c 128,-1,2
 286 665 286 665 317 665 c 0,3,4
 353 665 353 665 423 668 c 128,-1,5
 493 671 493 671 528 671 c 1,6,7
 517 648 517 648 511.5 628 c 128,-1,8
 506 608 506 608 506 585 c 1,9,10
 469 590 469 590 431.5 594 c 128,-1,11
 394 598 394 598 359 598 c 2,12,-1
 288 597 l 1,13,14
 282 578 282 578 275.5 553.5 c 128,-1,15
 269 529 269 529 264 507 c 1,16,-1
 244 395 l 1,17,-1
 330 392 l 2,18,19
 358 392 358 392 404.5 394.5 c 128,-1,20
 451 397 451 397 460 397 c 1,21,22
 454 384 454 384 450 356 c 128,-1,23
 446 328 446 328 446 311 c 1,24,25
 422 311 422 311 381.5 314.5 c 128,-1,26
 341 318 341 318 329 318 c 2,27,-1
 229 317 l 1,28,-1
 201 191 l 2,29,30
 189 133 189 133 183 79 c 1,31,32
 228 79 228 79 319.5 85 c 128,-1,33
 411 91 411 91 426 91 c 1,34,35
 420 73 420 73 414 46.5 c 128,-1,36
 408 20 408 20 405 0 c 1,37,38
 372 0 372 0 299 3 c 128,-1,39
 226 6 226 6 193 6 c 0,40,41
 161 6 161 6 96 3 c 128,-1,42
 31 0 31 0 -2 0 c 1,43,44
 44 156 44 156 78.5 330 c 128,-1,45
 113 504 113 504 133 671 c 1,0,1
EndSplineSet
EndChar
StartChar: summation
Encoding: 918 918 163
Width: 617
Flags: W
LayerCount: 2
Fore
SplineSet
-29 44 m 1,0,1
 61 156 61 156 128 240.5 c 128,-1,2
 195 325 195 325 251.5 399 c 128,-1,3
 308 473 308 473 398 593 c 1,4,-1
 316 594 l 2,5,6
 280 594 280 594 200 589 c 128,-1,7
 120 584 120 584 92 584 c 1,8,9
 100 603 100 603 104 622 c 128,-1,10
 108 641 108 641 112 671 c 1,11,12
 155 671 155 671 251 668 c 128,-1,13
 347 665 347 665 391 665 c 0,14,15
 433 665 433 665 519 668 c 128,-1,16
 605 671 605 671 648 671 c 1,17,-1
 644 635 l 1,18,19
 517 486 517 486 407 350.5 c 128,-1,20
 297 215 297 215 199 80 c 1,21,22
 256 80 256 80 392.5 86.5 c 128,-1,23
 529 93 529 93 577 93 c 1,24,25
 561 49 561 49 561 0 c 1,26,27
 511 0 511 0 412 3 c 128,-1,28
 313 6 313 6 263 6 c 0,29,30
 214 6 214 6 116 3 c 128,-1,31
 18 0 18 0 -32 0 c 1,32,-1
 -29 44 l 1,0,1
EndSplineSet
EndChar
StartChar: Eta
Encoding: 919 919 162
Width: 737
Flags: HW
LayerCount: 2
Fore
SplineSet
204 178 m 2
 196.666666667 144.666666667 190.666666667 113.166666667 186 83.5 c 128
 181.333333333 53.8333333333 179 26 179 0 c 1
 172.333333333 0 157.666666667 1.16666666667 135 3.5 c 128
 112.333333333 5.83333333333 95.6666666667 7 85 7 c 0
 73.6666666667 7 60.8333333333 6.33333333333 46.5 5 c 128
 32.1666666667 3.66666666667 16.6666666667 2 0 0 c 1
 0.666666666667 2.66666666667 16.5 62 47.5 178 c 128
 78.5 294 100.666666667 388.166666667 114 460.5 c 128
 127.333333333 532.833333333 134 603 134 671 c 1
 144.666666667 669.666666667 157.166666667 668.166666667 171.5 666.5 c 128
 185.833333333 664.833333333 202 664 220 664 c 0
 233.333333333 664 247.333333333 664.5 262 665.5 c 128
 276.666666667 666.5 293.333333333 668.333333333 312 671 c 1
 276 526 l 1
 248 403 l 1
 390 400 l 1
 514 402 l 1
 534 499 l 2
 539.333333333 525 544.333333333 556.666666667 549 594 c 128
 553.666666667 631.333333333 556.666666667 657 558 671 c 1
 574.666666667 669 589.833333333 667.333333333 603.5 666 c 128
 617.166666667 664.666666667 631.333333333 664 646 664 c 0
 658.666666667 664 672.666666667 664.666666667 688 666 c 128
 703.333333333 667.333333333 719.666666667 669 737 671 c 1
 705 567.666666667 678 460.166666667 656 348.5 c 128
 634 236.833333333 615.666666667 120.666666667 601 0 c 1
 593.666666667 0 578.833333333 1.16666666667 556.5 3.5 c 128
 534.166666667 5.83333333333 518 7 508 7 c 256
 498 7 482.833333333 5.83333333333 462.5 3.5 c 128
 442.166666667 1.16666666667 428.666666667 0 422 0 c 1
 428 19.3333333333 435 44 443 74 c 128
 451 104 457 129.666666667 461 151 c 2
 497 323 l 1
 361 326 l 1
 233 322 l 1
 204 178 l 2
EndSplineSet
EndChar
StartChar: product
Encoding: 919 919 164
Width: 737
Flags: W
LayerCount: 2
Fore
SplineSet
204 178 m 2,0,1
 193 128 193 128 186 83.5 c 128,-1,2
 179 39 179 39 179 0 c 1,3,4
 169 0 169 0 135 3.5 c 128,-1,5
 101 7 101 7 85 7 c 0,6,7
 68 7 68 7 46.5 5 c 128,-1,8
 25 3 25 3 0 0 c 1,9,10
 1 4 1 4 47.5 178 c 128,-1,11
 94 352 94 352 114 460.5 c 128,-1,12
 134 569 134 569 134 671 c 1,13,14
 150 669 150 669 171.5 666.5 c 128,-1,15
 193 664 193 664 220 664 c 0,16,17
 240 664 240 664 262 665.5 c 128,-1,18
 284 667 284 667 312 671 c 1,19,-1
 276 526 l 1,20,-1
 248 403 l 1,21,-1
 390 400 l 1,22,-1
 514 402 l 1,23,-1
 534 499 l 2,24,25
 542 538 542 538 549 594 c 128,-1,26
 556 650 556 650 558 671 c 1,27,28
 583 668 583 668 603.5 666 c 128,-1,29
 624 664 624 664 646 664 c 0,30,31
 665 664 665 664 688 666 c 128,-1,32
 711 668 711 668 737 671 c 1,33,34
 689 516 689 516 656 348.5 c 128,-1,35
 623 181 623 181 601 0 c 1,36,37
 590 0 590 0 556.5 3.5 c 128,-1,38
 523 7 523 7 508 7 c 256,39,40
 493 7 493 7 462.5 3.5 c 128,-1,41
 432 0 432 0 422 0 c 1,42,43
 431 29 431 29 443 74 c 128,-1,44
 455 119 455 119 461 151 c 2,45,-1
 497 323 l 1,46,-1
 361 326 l 1,47,-1
 233 322 l 1,48,-1
 204 178 l 2,0,1
EndSplineSet
EndChar
StartChar: sterling
Encoding: 920 920 153
Width: 804
Flags: W
LayerCount: 2
Fore
SplineSet
24 279 m 0,0,1
 24 457 24 457 145 571 c 128,-1,2
 266 685 266 685 445 685 c 0,3,4
 595 685 595 685 686.5 612.5 c 128,-1,5
 778 540 778 540 778 394 c 0,6,7
 778 219 778 219 657.5 104.5 c 128,-1,8
 537 -10 537 -10 362 -10 c 0,9,10
 306 -10 306 -10 267.5 -5 c 128,-1,11
 229 0 229 0 171.5 24.5 c 128,-1,12
 114 49 114 49 69 120.5 c 128,-1,13
 24 192 24 192 24 279 c 0,0,1
203 259 m 0,14,15
 203 170 203 170 242.5 112 c 128,-1,16
 282 54 282 54 367 54 c 0,17,18
 488 54 488 54 546 165 c 128,-1,19
 604 276 604 276 604 410 c 0,20,21
 604 500 604 500 564.5 560.5 c 128,-1,22
 525 621 525 621 438 621 c 0,23,24
 345 621 345 621 289.5 546 c 128,-1,25
 234 471 234 471 218.5 393 c 128,-1,26
 203 315 203 315 203 259 c 0,14,15
414 379 m 0,27,28
 443 379 443 379 493 381.5 c 128,-1,29
 543 384 543 384 553 384 c 1,30,31
 547 365 547 365 541.5 342 c 128,-1,32
 536 319 536 319 533 293 c 1,33,34
 504 293 504 293 455 295.5 c 128,-1,35
 406 298 406 298 396 298 c 0,36,37
 363 298 363 298 327.5 297 c 128,-1,38
 292 296 292 296 258 293 c 1,39,40
 264 314 264 314 267.5 331.5 c 128,-1,41
 271 349 271 349 277 384 c 1,42,43
 306 384 306 384 355 381.5 c 128,-1,44
 404 379 404 379 414 379 c 0,27,28
EndSplineSet
EndChar
StartChar: integral
Encoding: 922 922 166
Width: 585
Flags: W
LayerCount: 2
Fore
SplineSet
271 508 m 1,0,-1
 242 363 l 1,1,-1
 374 483 l 1,2,3
 419 521 419 521 454 559 c 128,-1,4
 489 597 489 597 553 671 c 1,5,-1
 612 666 l 1,6,7
 634 666 634 666 648 667.5 c 128,-1,8
 662 669 662 669 679 671 c 1,9,-1
 677 661 l 1,10,11
 624 614 624 614 559 555 c 128,-1,12
 494 496 494 496 461 465.5 c 128,-1,13
 428 435 428 435 365 372 c 1,14,15
 419 258 419 258 478 143 c 1,16,-1
 553 0 l 1,17,18
 538 0 538 0 507 3 c 128,-1,19
 476 6 476 6 459 6 c 0,20,21
 444 6 444 6 411 3 c 128,-1,22
 378 0 378 0 361 0 c 1,23,24
 319 103 319 103 292.5 164 c 128,-1,25
 266 225 266 225 228 293 c 1,26,-1
 206 193 l 1,27,28
 187 92 187 92 177 0 c 1,29,30
 147 3 147 3 124 5 c 128,-1,31
 101 7 101 7 86 7 c 0,32,33
 66 7 66 7 40 4 c 128,-1,34
 14 1 14 1 0 0 c 1,35,36
 29 108 29 108 60.5 227.5 c 128,-1,37
 92 347 92 347 113.5 463.5 c 128,-1,38
 135 580 135 580 135 671 c 1,39,40
 147 670 147 670 180 667 c 128,-1,41
 213 664 213 664 224 664 c 0,42,43
 246 664 246 664 274.5 667 c 128,-1,44
 303 670 303 670 313 671 c 1,45,46
 298 632 298 632 289.5 598 c 128,-1,47
 281 564 281 564 271 508 c 1,0,-1
EndSplineSet
EndChar
StartChar: section
Encoding: 923 923 154
Width: 616
Flags: W
LayerCount: 2
Fore
SplineSet
314 461 m 1,0,1
 251 368 251 368 206.5 296.5 c 128,-1,2
 162 225 162 225 124.5 157 c 128,-1,3
 87 89 87 89 48 0 c 1,4,-1
 -5 5 l 1,5,6
 -19 5 -19 5 -41.5 2.5 c 128,-1,7
 -64 0 -64 0 -66 0 c 1,8,9
 41 160 41 160 145 332 c 128,-1,10
 249 504 249 504 345 679 c 1,11,12
 356 676 356 676 369.5 673 c 128,-1,13
 383 670 383 670 399 670 c 0,14,15
 409 670 409 670 426 673.5 c 128,-1,16
 443 677 443 677 452 679 c 1,17,18
 485 347 485 347 564 0 c 1,19,-1
 469 5 l 1,20,-1
 374 0 l 1,21,22
 374 81 374 81 366 153 c 128,-1,23
 358 225 358 225 350.5 271 c 128,-1,24
 343 317 343 317 314 461 c 1,0,1
EndSplineSet
EndChar
StartChar: ordfeminine
Encoding: 924 924 165
Width: 886
Flags: HW
LayerCount: 2
Fore
SplineSet
160 671 m 1
 168.666666667 669.666666667 179.166666667 668.333333333 191.5 667 c 128
 203.833333333 665.666666667 214.333333333 665 223 665 c 0
 231 665 240.333333333 665.666666667 251 667 c 128
 261.666666667 668.333333333 272 669.666666667 282 671 c 1
 303.333333333 589 324.666666667 511.833333333 346 439.5 c 128
 367.333333333 367.166666667 391 295 417 223 c 1
 624 503 l 1
 744 671 l 1
 757.333333333 669.666666667 771 668.333333333 785 667 c 128
 799 665.666666667 807 665 809 665 c 0
 816.333333333 665 827.333333333 666 842 668 c 128
 856.666666667 670 867.333333333 671 874 671 c 1
 852 579 834 499 820 431 c 128
 806 363 793.166666667 293 781.5 221 c 128
 769.833333333 149 760.666666667 75.3333333333 754 0 c 1
 693 6 l 1
 669.666666667 6 650.166666667 5.66666666667 634.5 5 c 128
 618.833333333 4.33333333333 601.666666667 2.66666666667 583 0 c 1
 594.333333333 44.6666666667 606.333333333 102.166666667 619 172.5 c 128
 631.666666667 242.833333333 639 284.666666667 641 298 c 2
 662 425 l 1
 608.666666667 357 556.666666667 286.833333333 506 214.5 c 128
 455.333333333 142.166666667 406 68 358 -8 c 1
 299 -8 l 1
 283.666666667 65.3333333333 266.666666667 137.5 248 208.5 c 128
 229.333333333 279.5 208.333333333 353.333333333 185 430 c 1
 170.333333333 366 155.5 295.666666667 140.5 219 c 128
 125.5 142.333333333 112.333333333 69.3333333333 101 0 c 1
 95 0 85.6666666667 1 73 3 c 128
 60.3333333333 5 51 6 45 6 c 0
 37 6 28.3333333333 5.33333333333 19 4 c 128
 9.66666666667 2.66666666667 0.666666666667 1.33333333333 -8 0 c 1
 53.3333333333 220.666666667 109.333333333 444.333333333 160 671 c 1
EndSplineSet
EndChar
StartChar: exclamdown
Encoding: 925 925 171
Width: 747
Flags: HW
LayerCount: 2
Fore
SplineSet
140 681 m 1
 191 676 l 1
 215.666666667 676 233.833333333 676.666666667 245.5 678 c 128
 257.166666667 679.333333333 266.333333333 680.333333333 273 681 c 1
 282.333333333 664.333333333 303.5 628.333333333 336.5 573 c 128
 369.5 517.666666667 391.666666667 480.5 403 461.5 c 128
 414.333333333 442.5 436.333333333 407.333333333 469 356 c 1
 561 204 l 1
 606 443 l 1
 620.666666667 515.666666667 633.666666667 591.666666667 645 671 c 1
 693 666 l 1
 703.666666667 666 713.5 666.666666667 722.5 668 c 128
 731.5 669.333333333 738.666666667 670.333333333 744 671 c 1
 729.333333333 621 716 571.166666667 704 521.5 c 128
 692 471.833333333 680 418.333333333 668 361 c 2
 618 115 l 1
 594 -10 l 1
 542 -4 l 1
 534.666666667 -4 525.5 -4.66666666667 514.5 -6 c 128
 503.5 -7.33333333333 493.666666667 -8.66666666667 485 -10 c 1
 452.333333333 49.3333333333 418.666666667 109.666666667 384 171 c 128
 349.333333333 232.333333333 318.333333333 285.5 291 330.5 c 128
 263.666666667 375.5 230 428.333333333 190 489 c 1
 150 277 l 1
 133.333333333 174.333333333 119.666666667 81.6666666667 109 -1 c 1
 97 1 86.5 2.66666666667 77.5 4 c 128
 68.5 5.33333333333 61 6 55 6 c 0
 47 6 38 5 28 3 c 128
 18 1 10.3333333333 -0.333333333333 5 -1 c 1
 37 109 64.8333333333 222.833333333 88.5 340.5 c 128
 112.166666667 458.166666667 129.333333333 571.666666667 140 681 c 1
EndSplineSet
EndChar
StartChar: Xi
Encoding: 926 926 153
Width: 608
Flags: HW
LayerCount: 2
Fore
SplineSet
317 395 m 0
 344.333333333 395 381.333333333 396.166666667 428 398.5 c 128
 474.666666667 400.833333333 504.666666667 402 518 402 c 1
 510.666666667 381.333333333 504.833333333 361 500.5 341 c 128
 496.166666667 321 492.333333333 297.333333333 489 270 c 1
 465.666666667 270 431 271.166666667 385 273.5 c 128
 339 275.833333333 307.666666667 277 291 277 c 0
 267.666666667 277 232.666666667 275.833333333 186 273.5 c 128
 139.333333333 271.166666667 107.666666667 270 91 270 c 1
 97.6666666667 288.666666667 103.5 309.166666667 108.5 331.5 c 128
 113.5 353.833333333 117.666666667 377.333333333 121 402 c 1
 155 398.666666667 185.166666667 396.666666667 211.5 396 c 128
 237.833333333 395.333333333 273 395 317 395 c 0
339 543 m 0
 309.666666667 543 264.666666667 541.833333333 204 539.5 c 128
 143.333333333 537.166666667 102.333333333 536 81 536 c 1
 87 556.666666667 92.8333333333 579.833333333 98.5 605.5 c 128
 104.166666667 631.166666667 108 653 110 671 c 1
 138.666666667 671 181.666666667 670 239 668 c 128
 296.333333333 666 339.666666667 665 369 665 c 0
 397.666666667 665 440.666666667 666 498 668 c 128
 555.333333333 670 598.666666667 671 628 671 c 1
 622 650.333333333 616.333333333 628.333333333 611 605 c 128
 605.666666667 581.666666667 601.666666667 558.666666667 599 536 c 1
 569 536 523.666666667 537.166666667 463 539.5 c 128
 402.333333333 541.833333333 361 543 339 543 c 0
265 132 m 0
 301.666666667 132 352 133.166666667 416 135.5 c 128
 480 137.833333333 520.666666667 139 538 139 c 1
 530.666666667 113 524.333333333 88.8333333333 519 66.5 c 128
 513.666666667 44.1666666667 510 22 508 0 c 1
 478 0 432.666666667 1 372 3 c 128
 311.333333333 5 266 6 236 6 c 256
 206 6 160.666666667 5 100 3 c 128
 39.3333333333 1 -6 0 -36 0 c 1
 -30 23.3333333333 -24.1666666667 47.3333333333 -18.5 72 c 128
 -12.8333333333 96.6666666667 -8.66666666667 119 -6 139 c 1
 25.3333333333 139 72.6666666667 137.833333333 136 135.5 c 128
 199.333333333 133.166666667 242.333333333 132 265 132 c 0
EndSplineSet
EndChar
StartChar: radical
Encoding: 927 927 174
Width: 804
Flags: W
LayerCount: 2
Fore
SplineSet
25 283 m 0,0,1
 25 449 25 449 139 567 c 128,-1,2
 253 685 253 685 415 685 c 0,3,4
 578 685 578 685 678 617.5 c 128,-1,5
 778 550 778 550 778 394 c 0,6,7
 778 222 778 222 657 106 c 128,-1,8
 536 -10 536 -10 363 -10 c 0,9,10
 308 -10 308 -10 269 -5 c 128,-1,11
 230 0 230 0 171.5 25 c 128,-1,12
 113 50 113 50 69 122.5 c 128,-1,13
 25 195 25 195 25 283 c 0,0,1
203 260 m 0,14,15
 203 171 203 171 242 112.5 c 128,-1,16
 281 54 281 54 368 54 c 0,17,18
 488 54 488 54 546.5 166 c 128,-1,19
 605 278 605 278 605 411 c 0,20,21
 605 499 605 499 563.5 560 c 128,-1,22
 522 621 522 621 438 621 c 0,23,24
 345 621 345 621 289.5 546 c 128,-1,25
 234 471 234 471 218.5 393.5 c 128,-1,26
 203 316 203 316 203 260 c 0,14,15
EndSplineSet
EndChar
StartChar: Pi
Encoding: 928 928 154
Width: 738
Flags: HW
LayerCount: 2
Fore
SplineSet
460 148 m 1
 516 416 l 2
 522 446 526.666666667 469.5 530 486.5 c 128
 533.333333333 503.5 539.333333333 537 548 587 c 1
 417 590 l 1
 293 587 l 1
 257 438 l 1
 202 171 l 2
 197.333333333 148.333333333 192.666666667 119.833333333 188 85.5 c 128
 183.333333333 51.1666666667 180 22.6666666667 178 0 c 1
 158 2 140.5 3.66666666667 125.5 5 c 128
 110.5 6.33333333333 98 7 88 7 c 0
 73.3333333333 7 57.3333333333 6 40 4 c 128
 22.6666666667 2 9.33333333333 0.666666666667 0 0 c 1
 24.6666666667 98 44.8333333333 180.5 60.5 247.5 c 128
 76.1666666667 314.5 90.6666666667 383.166666667 104 453.5 c 128
 117.333333333 523.833333333 128 596.333333333 136 671 c 1
 176 671 230.5 669.833333333 299.5 667.5 c 128
 368.5 665.166666667 413 664 433 664 c 0
 468.333333333 664 521.666666667 665.166666667 593 667.5 c 128
 664.333333333 669.833333333 712.666666667 671 738 671 c 1
 718.666666667 599.666666667 699.666666667 525.166666667 681 447.5 c 128
 662.333333333 369.833333333 646 292.5 632 215.5 c 128
 618 138.5 607.333333333 66.6666666667 600 0 c 1
 585.333333333 1.33333333333 569.5 2.83333333333 552.5 4.5 c 128
 535.5 6.16666666667 522 7 512 7 c 0
 498 7 482 6 464 4 c 128
 446 2 432.333333333 0.666666666667 423 0 c 1
 460 148 l 1
EndSplineSet
EndChar
StartChar: paragraph
Encoding: 928 928 156
Width: 738
Flags: W
LayerCount: 2
Fore
SplineSet
460 148 m 1,0,-1
 516 416 l 2,1,2
 525 461 525 461 530 486.5 c 128,-1,3
 535 512 535 512 548 587 c 1,4,-1
 417 590 l 1,5,-1
 293 587 l 1,6,-1
 257 438 l 1,7,-1
 202 171 l 2,8,9
 195 137 195 137 188 85.5 c 128,-1,10
 181 34 181 34 178 0 c 1,11,12
 148 3 148 3 125.5 5 c 128,-1,13
 103 7 103 7 88 7 c 0,14,15
 66 7 66 7 40 4 c 128,-1,16
 14 1 14 1 0 0 c 1,17,18
 37 147 37 147 60.5 247.5 c 128,-1,19
 84 348 84 348 104 453.5 c 128,-1,20
 124 559 124 559 136 671 c 1,21,22
 196 671 196 671 299.5 667.5 c 128,-1,23
 403 664 403 664 433 664 c 0,24,25
 486 664 486 664 593 667.5 c 128,-1,26
 700 671 700 671 738 671 c 1,27,28
 709 564 709 564 681 447.5 c 128,-1,29
 653 331 653 331 632 215.5 c 128,-1,30
 611 100 611 100 600 0 c 1,31,32
 578 2 578 2 552.5 4.5 c 128,-1,33
 527 7 527 7 512 7 c 0,34,35
 491 7 491 7 464 4 c 128,-1,36
 437 1 437 1 423 0 c 1,37,-1
 460 148 l 1,0,-1
EndSplineSet
EndChar
StartChar: trademark
Encoding: 931 931 157
Width: 607
Flags: W
LayerCount: 2
Fore
SplineSet
586 586 m 1,0,1
 558 586 558 586 501.5 589.5 c 128,-1,2
 445 593 445 593 426 593 c 2,3,-1
 305 593 l 1,4,5
 332 535 332 535 358.5 484 c 128,-1,6
 385 433 385 433 422 369 c 1,7,8
 338 300 338 300 257 225 c 1,9,-1
 163 140 l 1,10,-1
 340 140 l 1,11,-1
 528 146 l 1,12,13
 517 113 517 113 508 61.5 c 128,-1,14
 499 10 499 10 498 0 c 1,15,-1
 240 3 l 1,16,-1
 -65 0 l 1,17,-1
 -56 41 l 1,18,19
 39 125 39 125 105 186 c 128,-1,20
 171 247 171 247 255 332 c 1,21,22
 182 474 182 474 92 624 c 1,23,-1
 104 671 l 1,24,25
 166 671 166 671 261.5 668.5 c 128,-1,26
 357 666 357 666 373 666 c 0,27,28
 426 666 426 666 508.5 668.5 c 128,-1,29
 591 671 591 671 604 671 c 1,30,31
 596 650 596 650 591 628.5 c 128,-1,32
 586 607 586 607 586 586 c 1,0,1
EndSplineSet
EndChar
StartChar: Agrave
Encoding: 933 933 175
Width: 508
Flags: HW
LayerCount: 2
Fore
SplineSet
95 58 m 1
 123 187 l 1
 143 282 l 1
 127 351.333333333 110 417.5 92 480.5 c 128
 74 543.5 53 607 29 671 c 1
 43.6666666667 669.666666667 58.6666666667 668.333333333 74 667 c 128
 89.3333333333 665.666666667 103.666666667 665 117 665 c 0
 131 665 146.666666667 665.666666667 164 667 c 128
 181.333333333 668.333333333 198 669.666666667 214 671 c 1
 230 573.666666667 252.333333333 479.666666667 281 389 c 1
 315.666666667 432.333333333 348.5 477.166666667 379.5 523.5 c 128
 410.5 569.833333333 441.333333333 619 472 671 c 1
 481.333333333 669.666666667 492.5 668.333333333 505.5 667 c 128
 518.5 665.666666667 526.666666667 665 530 665 c 0
 538 665 546.833333333 665.666666667 556.5 667 c 128
 566.166666667 668.333333333 576 669.666666667 586 671 c 1
 486.666666667 546.333333333 393.666666667 420 307 292 c 1
 284 193 l 1
 273.333333333 141.666666667 265.833333333 103.5 261.5 78.5 c 128
 257.166666667 53.5 255 27.3333333333 255 0 c 1
 240.333333333 1.33333333333 224.833333333 2.83333333333 208.5 4.5 c 128
 192.166666667 6.16666666667 179 7 169 7 c 0
 155 7 139 6 121 4 c 128
 103 2 89.3333333333 0.666666666667 80 0 c 1
 95 58 l 1
EndSplineSet
EndChar
StartChar: Phi
Encoding: 934 934 166
Width: 804
Flags: HW
LayerCount: 2
Fore
SplineSet
413 -18 m 1
 398.333333333 -16 382.833333333 -14.1666666667 366.5 -12.5 c 128
 350.166666667 -10.8333333333 336.333333333 -10 325 -10 c 0
 314.333333333 -10 299 -11.1666666667 279 -13.5 c 128
 259 -15.8333333333 247.333333333 -17.3333333333 244 -18 c 1
 267 59 l 1
 201.666666667 67.6666666667 145 92.5 97 133.5 c 128
 49 174.5 25 226.333333333 25 289 c 0
 25 388.333333333 59.6666666667 467.5 129 526.5 c 128
 198.333333333 585.5 282.666666667 615 382 615 c 1
 389 692 l 1
 403 688.666666667 416.166666667 686.333333333 428.5 685 c 128
 440.833333333 683.666666667 454 683 468 683 c 0
 479.333333333 683 490.833333333 683.666666667 502.5 685 c 128
 514.166666667 686.333333333 532.333333333 688.666666667 557 692 c 1
 533 613 l 1
 572 606 l 2
 630.666666667 595.333333333 679.666666667 570 719 530 c 128
 758.333333333 490 778 441 778 383 c 0
 778 287.666666667 742.5 209.333333333 671.5 148 c 128
 600.5 86.6666666667 517 56 421 56 c 1
 419.666666667 46.6666666667 418 34 416 18 c 128
 414 2 413 -10 413 -18 c 1
618 409 m 0
 618 443 609.166666667 473.166666667 591.5 499.5 c 128
 573.833333333 525.833333333 548.666666667 539 516 539 c 1
 501.333333333 477 486.833333333 411.833333333 472.5 343.5 c 128
 458.166666667 275.166666667 444 203 430 127 c 1
 496.666666667 134.333333333 544.666666667 164.5 574 217.5 c 128
 603.333333333 270.5 618 334.333333333 618 409 c 0
183 275 m 0
 183 237 191 204.666666667 207 178 c 128
 223 151.333333333 248.666666667 136.333333333 284 133 c 1
 299.333333333 196.333333333 314 261.833333333 328 329.5 c 128
 342 397.166666667 356 469.333333333 370 546 c 1
 307.333333333 538 260.5 508 229.5 456 c 128
 198.5 404 183 343.666666667 183 275 c 0
EndSplineSet
EndChar
StartChar: ordmasculine
Encoding: 934 934 168
Width: 804
Flags: W
LayerCount: 2
Fore
SplineSet
413 -18 m 1,0,1
 391 -15 391 -15 366.5 -12.5 c 128,-1,2
 342 -10 342 -10 325 -10 c 0,3,4
 309 -10 309 -10 279 -13.5 c 128,-1,5
 249 -17 249 -17 244 -18 c 1,6,-1
 267 59 l 1,7,8
 169 72 169 72 97 133.5 c 128,-1,9
 25 195 25 195 25 289 c 0,10,11
 25 438 25 438 129 526.5 c 128,-1,12
 233 615 233 615 382 615 c 1,13,-1
 389 692 l 1,14,15
 410 687 410 687 428.5 685 c 128,-1,16
 447 683 447 683 468 683 c 0,17,18
 485 683 485 683 502.5 685 c 128,-1,19
 520 687 520 687 557 692 c 1,20,-1
 533 613 l 1,21,-1
 572 606 l 2,22,23
 660 590 660 590 719 530 c 128,-1,24
 778 470 778 470 778 383 c 0,25,26
 778 240 778 240 671.5 148 c 128,-1,27
 565 56 565 56 421 56 c 1,28,29
 419 42 419 42 416 18 c 128,-1,30
 413 -6 413 -6 413 -18 c 1,0,1
618 409 m 0,31,32
 618 460 618 460 591.5 499.5 c 128,-1,33
 565 539 565 539 516 539 c 1,34,35
 494 446 494 446 472.5 343.5 c 128,-1,36
 451 241 451 241 430 127 c 1,37,38
 530 138 530 138 574 217.5 c 128,-1,39
 618 297 618 297 618 409 c 0,31,32
183 275 m 0,40,41
 183 218 183 218 207 178 c 128,-1,42
 231 138 231 138 284 133 c 1,43,44
 307 228 307 228 328 329.5 c 128,-1,45
 349 431 349 431 370 546 c 1,46,47
 276 534 276 534 229.5 456 c 128,-1,48
 183 378 183 378 183 275 c 0,40,41
EndSplineSet
EndChar
StartChar: Atilde
Encoding: 935 935 176
Width: 578
Flags: HW
LayerCount: 2
Fore
SplineSet
141 226 m 2
 224 321 l 1
 205.333333333 377.666666667 184.333333333 435 161 493 c 128
 137.666666667 551 112.666666667 610.333333333 86 671 c 1
 100.666666667 669.666666667 116.666666667 668.333333333 134 667 c 128
 151.333333333 665.666666667 166.666666667 665 180 665 c 0
 192.666666667 665 207.833333333 665.666666667 225.5 667 c 128
 243.166666667 668.333333333 259 669.666666667 273 671 c 1
 282.333333333 637.666666667 293 602.5 305 565.5 c 128
 317 528.5 330 491.333333333 344 454 c 1
 398 524 450.333333333 596.333333333 501 671 c 1
 532 668 532 668 563 665 c 0
 569.666666667 665 580 666 594 668 c 128
 608 670 618.333333333 671 625 671 c 1
 596.333333333 641.666666667 565.5 609 532.5 573 c 128
 499.5 537 469.333333333 503 442 471 c 1
 368 381 l 1
 393.333333333 301.666666667 411.666666667 246.333333333 423 215 c 128
 434.333333333 183.666666667 443.333333333 158 450 138 c 2
 500 0 l 1
 486.666666667 1.33333333333 470.333333333 2.66666666667 451 4 c 128
 431.666666667 5.33333333333 415.333333333 6 402 6 c 0
 389.333333333 6 375 5.33333333333 359 4 c 128
 343 2.66666666667 327.333333333 1.33333333333 312 0 c 1
 304 38.6666666667 295 78.3333333333 285 119 c 128
 275 159.666666667 264 199.666666667 252 239 c 1
 216.666666667 199 184 160.333333333 154 123 c 128
 124 85.6666666667 93 44.6666666667 61 0 c 1
 49.6666666667 2 38.6666666667 3.5 28 4.5 c 128
 17.3333333333 5.5 7.33333333333 6 -2 6 c 256
 -11.3333333333 6 -21.6666666667 5.33333333333 -33 4 c 128
 -44.3333333333 2.66666666667 -55 1.33333333333 -65 0 c 1
 -21 47.3333333333 13.1666666667 84.1666666667 37.5 110.5 c 128
 61.8333333333 136.833333333 96.3333333333 175.333333333 141 226 c 2
EndSplineSet
EndChar
StartChar: ae
Encoding: 936 936 168
Width: 823
Flags: HW
LayerCount: 2
Fore
SplineSet
214 340 m 0
 214 308.666666667 221.833333333 286.5 237.5 273.5 c 128
 253.166666667 260.5 277 254 309 254 c 1
 327 332.666666667 342.166666667 406 354.5 474 c 128
 366.833333333 542 376 607.666666667 382 671 c 1
 407.333333333 668.333333333 426.666666667 666.5 440 665.5 c 128
 453.333333333 664.5 464 664 472 664 c 0
 487.333333333 664 504 665 522 667 c 128
 540 669 554 670.333333333 564 671 c 1
 545.333333333 611.666666667 528 547 512 477 c 128
 496 407 481 332.666666667 467 254 c 1
 496 255 l 1
 558.666666667 255 598.833333333 288.833333333 616.5 356.5 c 128
 634.166666667 424.166666667 652.333333333 529 671 671 c 1
 681 671 695 670 713 668 c 128
 731 666 745 665 755 665 c 0
 768.333333333 665 785.333333333 665.833333333 806 667.5 c 128
 826.666666667 669.166666667 838.666666667 670 842 670 c 1
 834.666666667 646.666666667 824.833333333 605.166666667 812.5 545.5 c 128
 800.166666667 485.833333333 788.666666667 431.833333333 778 383.5 c 128
 767.333333333 335.166666667 732.833333333 290.666666667 674.5 250 c 128
 616.166666667 209.333333333 542.333333333 189 453 189 c 1
 448.333333333 157 443.666666667 125.166666667 439 93.5 c 128
 434.333333333 61.8333333333 430.666666667 30.6666666667 428 0 c 1
 420.666666667 0 405.5 1.16666666667 382.5 3.5 c 128
 359.5 5.83333333333 343 7 333 7 c 0
 319 7 303.333333333 6 286 4 c 128
 268.666666667 2 255.333333333 0.666666666667 246 0 c 1
 262 60 271.833333333 97 275.5 111 c 128
 279.166666667 125 285 151 293 189 c 1
 232.333333333 189 178 203.166666667 130 231.5 c 128
 82 259.833333333 58 302.666666667 58 360 c 0
 58 376.666666667 58.5 388.833333333 59.5 396.5 c 128
 60.5 404.166666667 63.3333333333 418.666666667 68 440 c 2
 95 572 l 2
 97 582 99.6666666667 596.333333333 103 615 c 128
 106.333333333 633.666666667 109.333333333 652 112 670 c 1
 124 670 140.333333333 669.166666667 161 667.5 c 128
 181.666666667 665.833333333 194 665 198 665 c 0
 210 665 224 665.666666667 240 667 c 128
 256 668.333333333 270.333333333 669.666666667 283 671 c 1
 255 585 236.5 518 227.5 470 c 128
 218.5 422 214 378.666666667 214 340 c 0
EndSplineSet
EndChar
StartChar: oslash
Encoding: 937 937 171
Width: 826
Flags: W
LayerCount: 2
Fore
SplineSet
34 301 m 0,0,1
 34 472 34 472 156 578.5 c 128,-1,2
 278 685 278 685 453 685 c 0,3,4
 605 685 605 685 696 612 c 128,-1,5
 787 539 787 539 787 391 c 0,6,7
 787 298 787 298 743 215.5 c 128,-1,8
 699 133 699 133 623 79 c 1,9,10
 662 79 662 79 700.5 83 c 128,-1,11
 739 87 739 87 797 95 c 1,12,13
 787 51 787 51 787 0 c 1,14,-1
 617 4 l 1,15,-1
 428 0 l 1,16,-1
 441 65 l 1,17,18
 535 101 535 101 573.5 197 c 128,-1,19
 612 293 612 293 612 413 c 0,20,21
 612 501 612 501 571.5 561 c 128,-1,22
 531 621 531 621 447 621 c 0,23,24
 322 621 322 621 267.5 507.5 c 128,-1,25
 213 394 213 394 213 251 c 0,26,27
 213 185 213 185 237 134.5 c 128,-1,28
 261 84 261 84 317 66 c 1,29,-1
 303 0 l 1,30,31
 242 0 242 0 179 1 c 128,-1,32
 116 2 116 2 54 3 c 1,33,-1
 -49 0 l 1,34,35
 -35 48 -35 48 -35 92 c 1,36,37
 2 88 2 88 48 85 c 128,-1,38
 94 82 94 82 132 82 c 1,39,40
 83 130 83 130 58.5 182.5 c 128,-1,41
 34 235 34 235 34 301 c 0,0,1
EndSplineSet
EndChar
StartChar: acute
Encoding: 938 938 158
Width: 329
Flags: W
LayerCount: 2
Fore
SplineSet
187 0 m 1,0,1
 170 0 170 0 133 3.5 c 128,-1,2
 96 7 96 7 89 7 c 0,3,4
 80 7 80 7 50.5 3.5 c 128,-1,5
 21 0 21 0 6 0 c 1,6,7
 37 110 37 110 71.5 233.5 c 128,-1,8
 106 357 106 357 124.5 459 c 128,-1,9
 143 561 143 561 143 671 c 1,10,11
 166 668 166 668 188.5 666 c 128,-1,12
 211 664 211 664 233 664 c 0,13,14
 252 664 252 664 275 666 c 128,-1,15
 298 668 298 668 324 671 c 1,16,17
 277 531 277 531 241 350.5 c 128,-1,18
 205 170 205 170 187 0 c 1,0,1
179 902 m 256,19,20
 206 902 206 902 226.5 882.5 c 128,-1,21
 247 863 247 863 247 835 c 256,22,23
 247 807 247 807 228 787 c 128,-1,24
 209 767 209 767 180 767 c 256,25,26
 151 767 151 767 130.5 786.5 c 128,-1,27
 110 806 110 806 110 835 c 0,28,29
 110 862 110 862 131 882 c 128,-1,30
 152 902 152 902 179 902 c 256,19,20
362 902 m 256,31,32
 390 902 390 902 410.5 882.5 c 128,-1,33
 431 863 431 863 431 835 c 0,34,35
 431 806 431 806 411.5 786.5 c 128,-1,36
 392 767 392 767 362 767 c 0,37,38
 333 767 333 767 314 786 c 128,-1,39
 295 805 295 805 295 835 c 0,40,41
 295 863 295 863 314.5 882.5 c 128,-1,42
 334 902 334 902 362 902 c 256,31,32
EndSplineSet
EndChar
StartChar: Omega
Encoding: 939 939 167
Width: 508
Flags: HW
LayerCount: 2
Fore
SplineSet
95 58 m 2
 122 187 l 1
 143 282 l 1
 127.666666667 349.333333333 111 414.5 93 477.5 c 128
 75 540.5 54 605 30 671 c 1
 62 667 90.6666666667 665 116 665 c 0
 148 665 180.666666667 667 214 671 c 1
 230.666666667 571.666666667 253 477.666666667 281 389 c 1
 353.666666667 484.333333333 417.333333333 578.333333333 472 671 c 1
 475.333333333 670.333333333 483.333333333 669.166666667 496 667.5 c 128
 508.666666667 665.833333333 519.666666667 665 529 665 c 0
 549 665 568 667 586 671 c 1
 540 613 493.166666667 551.666666667 445.5 487 c 128
 397.833333333 422.333333333 351.666666667 357.333333333 307 292 c 1
 284 193 l 1
 270 127 260 62.6666666667 254 0 c 1
 248 0 234.5 1.16666666667 213.5 3.5 c 128
 192.5 5.83333333333 177.666666667 7 169 7 c 0
 153.666666667 7 138.5 6.16666666667 123.5 4.5 c 128
 108.5 2.83333333333 93.6666666667 1.33333333333 79 0 c 1
 85.6666666667 21.3333333333 89.3333333333 33.1666666667 90 35.5 c 128
 90.6666666667 37.8333333333 92.3333333333 45.3333333333 95 58 c 2
269 902 m 0
 287 902 302.666666667 895.333333333 316 882 c 128
 329.333333333 868.666666667 336 853 336 835 c 0
 336 816.333333333 329.666666667 800.333333333 317 787 c 128
 304.333333333 773.666666667 288.333333333 767 269 767 c 0
 249 767 232.333333333 773.333333333 219 786 c 128
 205.666666667 798.666666667 199 815 199 835 c 0
 199 853.666666667 205.833333333 869.5 219.5 882.5 c 128
 233.166666667 895.5 249.666666667 902 269 902 c 0
451 902 m 0
 469 902 484.666666667 895.333333333 498 882 c 128
 511.333333333 868.666666667 518 853 518 835 c 0
 518 815.666666667 511.833333333 799.5 499.5 786.5 c 128
 487.166666667 773.5 471.333333333 767 452 767 c 256
 432.666666667 767 416.333333333 773.333333333 403 786 c 128
 389.666666667 798.666666667 383 815 383 835 c 0
 383 853 389.666666667 868.666666667 403 882 c 128
 416.333333333 895.333333333 432.333333333 902 451 902 c 0
EndSplineSet
EndChar
